<?xml version="1.0" encoding="UTF-8"?>
<svg width="105px" height="120px" viewBox="0 0 105 120" version="1.1" xmlns="http://www.w3.org/2000/svg" xmlns:xlink="http://www.w3.org/1999/xlink">
    <!-- Generator: Sketch 61.1 (89650) - https://sketch.com -->
    <title>circle10</title>
    <desc>Created with Sketch.</desc>
    <defs>
        <rect id="path-1" x="15.6857143" y="11" width="75" height="75.840617" rx="37.5"></rect>
        <filter x="-89.3%" y="-73.8%" width="278.7%" height="276.7%" filterUnits="objectBoundingBox" id="filter-2">
            <feMorphology radius="2.5" operator="dilate" in="SourceAlpha" result="shadowSpreadOuter1"></feMorphology>
            <feOffset dx="0" dy="11" in="shadowSpreadOuter1" result="shadowOffsetOuter1"></feOffset>
            <feGaussianBlur stdDeviation="18" in="shadowOffsetOuter1" result="shadowBlurOuter1"></feGaussianBlur>
            <feColorMatrix values="0 0 0 0 0.242358758   0 0 0 0 0.273459851   0 0 0 0 0.530598958  0 0 0 0.353283435 0" type="matrix" in="shadowBlurOuter1"></feColorMatrix>
        </filter>
        <linearGradient x1="50%" y1="50%" x2="50%" y2="100%" id="linearGradient-3">
            <stop stop-color="#70F7F5" offset="0%"></stop>
            <stop stop-color="#418AF0" offset="100%"></stop>
        </linearGradient>
        <path d="M20.9709492,48.9203085 C20.9709492,66.9114456 35.3939908,81.496144 53.1857143,81.496144 C70.9774378,81.496144 85.4004794,66.9114456 85.4004794,48.9203085 C85.4004794,30.9291713 70.9774378,16.344473 53.1857143,16.344473 C51.5119285,16.344473 50.1550569,17.7165526 50.1550569,19.4090986 C50.1550569,21.0781371 51.4744993,22.4355491 53.1161594,22.4729331 L53.1857143,22.4737243 C67.6298661,22.4737243 79.3391647,34.3142633 79.3391647,48.9203085 C79.3391647,63.5263536 67.6298661,75.3668927 53.1857143,75.3668927 C38.886004,75.3668927 27.2667233,63.7619803 27.0357677,49.3576511 L27.0322639,48.9203085 C27.0322639,47.2277625 25.6753924,45.8556828 24.0016065,45.8556828 C22.3278207,45.8556828 20.9709492,47.2277625 20.9709492,48.9203085 Z" id="path-4"></path>
        <filter x="-13.2%" y="-10.0%" width="126.4%" height="126.1%" filterUnits="objectBoundingBox" id="filter-5">
            <feOffset dx="0" dy="2" in="SourceAlpha" result="shadowOffsetOuter1"></feOffset>
            <feGaussianBlur stdDeviation="2.5" in="shadowOffsetOuter1" result="shadowBlurOuter1"></feGaussianBlur>
            <feComposite in="shadowBlurOuter1" in2="SourceAlpha" operator="out" result="shadowBlurOuter1"></feComposite>
            <feColorMatrix values="0 0 0 0 0   0 0 0 0 0   0 0 0 0 0  0 0 0 0.362297858 0" type="matrix" in="shadowBlurOuter1"></feColorMatrix>
        </filter>
    </defs>
    <g id="circle10" stroke="none" stroke-width="1" fill="none" fill-rule="evenodd">
        <rect fill="#FFFFFF" x="0" y="0" width="105" height="120"></rect>
        <g id="Combined-Shape">
            <use fill="black" fill-opacity="1" filter="url(#filter-2)" xlink:href="#path-1"></use>
            <use fill="#273BD9" fill-rule="evenodd" xlink:href="#path-1"></use>
        </g>
        <g id="Path" fill-rule="nonzero">
            <use fill="black" fill-opacity="1" filter="url(#filter-5)" xlink:href="#path-4"></use>
            <path stroke-opacity="0.178430944" stroke="#FFFFFF" stroke-width="1" d="M21.4709492,48.9203085 C21.4709492,66.6365431 35.6713884,80.996144 53.1857143,80.996144 C70.7000402,80.996144 84.9004794,66.6365431 84.9004794,48.9203085 C84.9004794,31.2040739 70.7000402,16.844473 53.1857143,16.844473 C51.789326,16.844473 50.6550569,17.9914552 50.6550569,19.4090986 C50.6550569,20.8047863 51.7559134,21.9418279 53.1218467,21.9729654 L53.1857143,21.9737243 C67.9072637,21.9737243 79.8391647,34.0393608 79.8391647,48.9203085 C79.8391647,63.8012562 67.9072637,75.8668927 53.1857143,75.8668927 C38.6283897,75.8668927 26.771415,64.0586005 26.5357837,49.3616568 L26.5322639,48.9203085 C26.5322639,47.5026651 25.3979948,46.3556828 24.0016065,46.3556828 C22.6052182,46.3556828 21.4709492,47.5026651 21.4709492,48.9203085 Z" stroke-linejoin="square" fill="url(#linearGradient-3)" fill-rule="evenodd"></path>
        </g>
        <path d="M38.4586889,56.0462725 L44.6501115,42.0852534 L44.6501115,41.3907254 L35.1240802,41.3907254 L35.1240802,42.417419 L43.3660384,42.417419 L37.2144319,56.0462725 L38.4586889,56.0462725 Z M51.7373992,56.247585 C53.1110589,56.247585 54.1761428,55.8214736 54.9326511,54.9692508 C55.6891593,54.1170281 56.0674134,52.919219 56.0674134,51.3758234 C56.0674134,49.946505 55.6792052,48.8023791 54.9027889,47.943446 C54.1263725,47.0845128 53.0845147,46.6550462 51.7772154,46.6550462 C50.7353576,46.6550462 49.8262205,46.9234629 49.0498041,47.4602961 L49.0498041,47.4602961 L49.557461,42.5080096 L55.7787458,42.5080096 L55.7787458,41.3907254 L48.5321933,41.3907254 L47.8254553,48.5373177 L48.7710906,48.8090896 C49.2356132,48.3930438 49.6769097,48.112884 50.09498,47.96861 C50.5130503,47.8243361 51.0041171,47.7521991 51.5681802,47.7521991 C52.59013,47.7521991 53.3964085,48.0910751 53.9870158,48.7688271 C54.5776231,49.446579 54.8729267,50.3222882 54.8729267,51.3959547 C54.8729267,52.6239607 54.6091442,53.5701292 54.0815793,54.2344604 C53.5540143,54.8987915 52.772621,55.230957 51.7373992,55.230957 C50.7884459,55.230957 50.0352557,54.9742836 49.4778285,54.4609369 C48.9204014,53.9475901 48.5852816,53.1909908 48.4724689,52.1911389 L48.4724689,52.1911389 L47.3277525,52.1911389 C47.4405651,53.4728282 47.8884977,54.4693249 48.67155,55.1806289 C49.4546024,55.8919329 50.4765521,56.247585 51.7373992,56.247585 Z M60.8951304,47.9937741 C61.717999,47.9937741 62.3932158,47.7069038 62.9207807,47.1331633 C63.4483457,46.5594228 63.7121282,45.843086 63.7121282,44.9841528 L63.7121282,44.9841528 L63.7121282,44.2694936 C63.7121282,43.3568771 63.4450277,42.6136986 62.9108267,42.0399581 C62.3766257,41.4662176 61.6980909,41.1793473 60.8752223,41.1793473 C60.0523537,41.1793473 59.3738189,41.4662176 58.8396179,42.0399581 C58.3054169,42.6136986 58.0383164,43.3367459 58.0383164,44.2090999 L58.0383164,44.2090999 L58.0383164,44.9136935 C58.0383164,45.8397308 58.310394,46.5845869 58.854549,47.1482618 C59.398704,47.7119367 60.0788978,47.9937741 60.8951304,47.9937741 Z M60.8951304,47.1281305 C60.3177952,47.1281305 59.8582496,46.9268181 59.5164937,46.5241931 C59.1747378,46.1215682 59.0038598,45.6082215 59.0038598,44.9841528 L59.0038598,44.9841528 L59.0038598,44.2694936 C59.0038598,43.5984521 59.1780558,43.0616188 59.5264478,42.6589939 C59.8748397,42.256369 60.3244312,42.0550565 60.8752223,42.0550565 C61.4326494,42.0550565 61.8838999,42.2580466 62.2289739,42.6640267 C62.5740478,43.0700069 62.7465848,43.5850312 62.7465848,44.2090999 L62.7465848,44.2090999 L62.7465848,44.9438903 C62.7465848,45.5880902 62.5790248,46.1131802 62.243905,46.5191603 C61.9087851,46.9251405 61.4591936,47.1281305 60.8951304,47.1281305 Z M61.2733845,54.8283321 L68.3507181,43.3736531 L67.6041639,42.8905032 L60.5268304,54.3451822 L61.2733845,54.8283321 Z M68.1814992,56.2576506 C68.9977317,56.2576506 69.6729485,55.9724579 70.2071495,55.4020726 C70.7413505,54.8316873 71.008451,54.1103177 71.008451,53.2379637 L71.008451,53.2379637 L71.008451,52.5233044 C71.008451,51.5972671 70.7380325,50.8507334 70.1971954,50.2837033 C69.6563584,49.7166732 68.9778236,49.4331582 68.1615911,49.4331582 C67.3453585,49.4331582 66.6701417,49.7183508 66.1359407,50.2887361 C65.6017397,50.8591214 65.3346392,51.5804911 65.3346392,52.4528451 L65.3346392,52.4528451 L65.3346392,53.1876356 C65.3346392,54.100252 65.6050578,54.8400753 66.1458948,55.4071054 C66.6867318,55.9741355 67.3652666,56.2576506 68.1814992,56.2576506 Z M68.1814992,55.392007 C67.6041639,55.392007 67.1446184,55.1906945 66.8028625,54.7880696 C66.4611065,54.3854447 66.2902286,53.8687427 66.2902286,53.2379637 L66.2902286,53.2379637 L66.2902286,52.4931076 C66.2902286,51.8287765 66.4627656,51.2986536 66.8078395,50.9027391 C67.1529134,50.5068246 67.6041639,50.3088674 68.1615911,50.3088674 C68.7322903,50.3088674 69.1885178,50.505147 69.5302737,50.8977063 C69.8720296,51.2902656 70.0429076,51.8086452 70.0429076,52.4528451 L70.0429076,52.4528451 L70.0429076,53.1876356 C70.0429076,53.8452563 69.8753476,54.3770567 69.5402278,54.7830368 C69.2051079,55.1890169 68.7521984,55.392007 68.1814992,55.392007 Z" id="75%" fill="#FFFFFF" fill-rule="nonzero"></path>
        <text id="Title" font-family="Roboto-Light, Roboto" font-size="11" font-weight="300" fill="#5C338C">
            <tspan x="42.1418457" y="104">Title</tspan>
        </text>
    </g>
</svg>