<svg xmlns="http://www.w3.org/2000/svg" width="146" height="111"><defs><linearGradient id="a" x1="27.221%" x2="74.942%" y1="36.604%" y2="64.049%"><stop offset="0%" stop-color="#EA0081"/><stop offset="49.206%" stop-color="#240DE9"/><stop offset="100%" stop-color="#00FEFF"/></linearGradient></defs><g fill="none" fill-rule="evenodd"><g transform="translate(0 .293)"><path fill="#F2F3F7" d="M0 0h145.537v110.707H0z"/><rect width="49.756" height="85.829" x="12.439" y="12.439" fill="#D6D9DD" rx="3"/><rect width="22.39" height="23.634" x="68.415" y="13.683" fill="#D6D9DD" rx="3"/><rect width="24.878" height="4.976" x="97.024" y="19.902" fill="#D6D9DD" rx="2.488"/><rect width="24.878" height="4.976" x="97.024" y="49.756" fill="#D6D9DD" rx="2.488"/><rect width="24.878" height="4.976" x="97.024" y="79.61" fill="#D6D9DD" rx="2.488"/><rect width="36.073" height="2.488" x="97.024" y="28.61" fill="#D6D9DD" rx="1.244"/><rect width="36.073" height="2.488" x="97.024" y="58.463" fill="#D6D9DD" rx="1.244"/><rect width="36.073" height="2.488" x="97.024" y="88.317" fill="#D6D9DD" rx="1.244"/><rect width="22.39" height="24.878" x="68.415" y="43.537" fill="#D6D9DD" rx="3"/><rect width="22.39" height="23.634" x="68.415" y="74.634" fill="#D6D9DD" rx="3"/></g><g><path fill="#000" d="M0 0h145.54v110.71H0z" opacity=".1"/><rect width="51.001" height="23.635" x="47.269" y="43.538" fill="url(#a)" rx="11.817"/><text fill="#FFF" font-family="OpenSans-Bold, Open Sans" font-size="14" font-weight="bold">
                        <tspan x="59.824" y="60.855">PRO</tspan>
                    </text></g></g></svg>