<svg xmlns="http://www.w3.org/2000/svg" width="17" height="18"><path fill="#535F6A" fill-rule="nonzero" d="M4.821 0C5.705 0 6.43.723 6.43 1.607v.964h3.857v-.964c0-.884.723-1.607 1.607-1.607h.643c.884 0 1.607.723 1.607 1.607v.964h1.286c.703 0 1.285.583 1.285 1.286v12.857c0 .703-.582 1.286-1.285 1.286H1.286A1.295 1.295 0 0 1 0 16.714V3.857c0-.703.583-1.286 1.286-1.286H2.57v-.964C2.571.723 3.295 0 4.18 0h.642ZM4.18 13.821H1.286v2.893h2.893v-2.893Zm3.857 0H4.82v2.893h3.215v-2.893Zm3.857 0H8.679v2.893h3.214v-2.893Zm3.536 0h-2.893v2.893h2.893v-2.893ZM4.179 9.964H1.286v3.215h2.893V9.964Zm3.857 0H4.82v3.215h3.215V9.964Zm3.857 0H8.679v3.215h3.214V9.964Zm3.536 0h-2.893v3.215h2.893V9.964ZM4.179 6.43H1.286V9.32h2.893V6.43Zm3.857 0H4.82V9.32h3.215V6.43Zm3.857 0H8.679V9.32h3.214V6.43Zm3.536 0h-2.893V9.32h2.893V6.43ZM4.82 1.286H4.18a.332.332 0 0 0-.315.258l-.007.063V4.5c0 .15.116.283.259.315l.063.006h.642c.15 0 .284-.115.315-.258l.007-.063V1.607a.33.33 0 0 0-.322-.321Zm7.715 0h-.643a.33.33 0 0 0-.322.321V4.5c0 .17.151.321.322.321h.643a.33.33 0 0 0 .321-.321V1.607a.33.33 0 0 0-.321-.321Z"/></svg>