<svg xmlns="http://www.w3.org/2000/svg" width="18" height="15"><path fill="#535F6A" fill-rule="nonzero" d="M18 4.56v7.976c0 .884-.723 1.607-1.607 1.607H1.607A1.612 1.612 0 0 1 0 12.536V4.56c.301.332.643.623 1.015.874C2.682 6.57 4.369 7.704 6.007 8.9c.843.622 1.888 1.386 2.983 1.386l.238-.01c.87-.078 1.702-.607 2.417-1.122l.348-.254c1.638-1.186 3.325-2.33 5.003-3.466A5.917 5.917 0 0 0 18 4.56ZM16.393 0C17.267 0 18 .723 18 1.607c0 1.125-.834 2.14-1.718 2.752l-3.138 2.173c-.522.363-1.044.727-1.563 1.092l-.776.558c-.523.367-1.12.736-1.629.806L8.99 9c-.814 0-1.919-.924-2.571-1.376-1.557-1.095-3.134-2.18-4.691-3.265C1.015 3.877 0 2.742 0 1.83 0 .843.532 0 1.607 0h14.786Z"/></svg>