<svg xmlns="http://www.w3.org/2000/svg" xmlns:xlink="http://www.w3.org/1999/xlink" width="147" height="133"><defs><path id="reuse-0" fill="#535F6A" d="M0 13.703h124.576v1.246H0z" mask="url(#b)" opacity=".7"/></defs><defs><rect id="a" width="124.576" height="14.949" x="0" y="0" rx="2"/><rect id="c" width="124.576" height="14.949" x="0" y="0" rx="2"/><rect id="e" width="124.576" height="33.636" x="0" y="0" rx="2"/></defs><g fill="none" fill-rule="evenodd"><path fill="#F2F3F7" d="M0 0h147v132.051H0z"/><g transform="translate(11.212 12.458)"><rect width="124.576" height="14.949" fill="#D6D9DD" rx="2"/><mask id="b" fill="#fff"><use xlink:href="#a"/></mask><use xlink:href="#a" fill="#D6D9DD"/><use xlink:href="#reuse-0" mask="url(#b)" opacity=".7"/><rect width="27.867" height="4.077" x="6.635" y="5.436" fill="#FFF" rx="1.5"/></g><g transform="translate(11.212 34.881)"><rect width="124.576" height="14.949" fill="#D6D9DD" rx="2"/><mask id="d" fill="#fff"><use xlink:href="#c"/></mask><use xlink:href="#c" fill="#D6D9DD"/><use xlink:href="#reuse-0" mask="url(#d)" opacity=".7"/><rect width="27.867" height="4.077" x="6.635" y="5.436" fill="#FFF" rx="1.5"/></g><g transform="translate(11.212 57.305)"><rect width="124.576" height="14.949" fill="#D6D9DD" rx="2"/><mask id="f" fill="#fff"><use xlink:href="#e"/></mask><use xlink:href="#e" fill="#D6D9DD"/><path fill="#535F6A" d="M0 32.39h124.576v1.246H0z" mask="url(#f)" opacity=".7"/><rect width="34.508" height="4.077" x="6.635" y="5.436" fill="#FFF" rx="1.5"/></g><rect width="46.093" height="16.195" x="12.458" y="103.398" fill="#D6D9DD" rx="6.5"/></g></svg>