<?xml version="1.0" encoding="UTF-8"?>
<svg width="22px" height="18px" viewBox="0 0 22 18" version="1.1" xmlns="http://www.w3.org/2000/svg" xmlns:xlink="http://www.w3.org/1999/xlink">
    <!-- Generator: Sketch 58 (84663) - https://sketch.com -->
    <title>Number</title>
    <desc>Created with Sketch.</desc>
    <g id="Page-1" stroke="none" stroke-width="1" fill="none" fill-rule="evenodd">
        <g id="Number" transform="translate(0.896484, 0.666992)" fill="#535F6A" fill-rule="nonzero">
            <path d="M5.04492188,0 C6.54492937,0 7.7592727,0.625482026 8.68798828,1.87646484 C9.61670386,3.12744766 10.0810547,4.76659143 10.0810547,6.79394531 C10.0810547,8.87403384 9.61670386,10.5380797 8.68798828,11.7861328 C7.7592727,13.0341859 6.52442177,13.6582031 4.98339844,13.6582031 C3.50682855,13.6582031 2.30713352,13.025397 1.38427734,11.7597656 C0.461421167,10.4941343 0,8.85059604 0,6.82910156 C0,4.78416946 0.462885996,3.13477189 1.38867188,1.88085938 C2.31445775,0.626946855 3.53319557,0 5.04492188,0 Z M5.04492188,1.62597656 C3.52733616,1.62597656 2.76855469,3.35740456 2.76855469,6.8203125 C2.76855469,10.2949392 3.51561753,12.0322266 5.00976562,12.0322266 C6.55078896,12.0322266 7.32128906,10.2978689 7.32128906,6.82910156 C7.32128906,3.36033422 6.56250759,1.62597656 5.04492188,1.62597656 Z" id="0"></path>
            <polygon id="1" points="12.6347656 17.3330078 12.6347656 15.8125 15.2363281 15.8125 15.2363281 6.21484375 12.6347656 6.86523438 12.6347656 5.30078125 17.8466797 4 17.8466797 15.8125 20.4482422 15.8125 20.4482422 17.3330078"></polygon>
        </g>
    </g>
</svg>