<svg xmlns="http://www.w3.org/2000/svg" width="22" height="18"><g fill="#535F6A" fill-rule="nonzero"><path d="M5.941.667c1.5 0 2.715.625 3.643 1.876.93 1.251 1.394 2.89 1.394 4.918 0 2.08-.465 3.744-1.394 4.992-.928 1.248-2.163 1.872-3.704 1.872-1.477 0-2.676-.633-3.6-1.898C1.359 11.16.897 9.517.897 7.497c0-2.046.463-3.695 1.39-4.95C3.21 1.295 4.43.668 5.94.668Zm0 1.626c-1.517 0-2.276 1.731-2.276 5.194 0 3.475.747 5.212 2.241 5.212 1.541 0 2.312-1.734 2.312-5.203 0-3.469-.759-5.203-2.277-5.203ZM13.531 18v-1.52h2.601V6.882l-2.6.65V5.968l5.211-1.301V16.48h2.601V18z"/></g></svg>