<svg xmlns="http://www.w3.org/2000/svg" width="17" height="16"><path fill="#535F6A" fill-rule="nonzero" d="M8.89 0c.04.07.08.14.11.21l2.06 4.822c.501 1.186.977 2.38 1.464 3.568l.745 1.776c.362.836.659 1.69 1.02 2.524l.377.815c.073.146.167.304.26.378.332.26 1.256.321 1.728.502.03.19.06.382.06.572l-.01.262c-1.275 0-2.551-.161-3.827-.161-1.316 0-2.631.11-3.947.15 0-.26.01-.522.04-.783l1.556-.333c.264-.062.563-.172.563-.45 0-.362-1.295-3.345-1.456-3.757l-4.52-.02-.145.342c-.374.916-1.13 2.924-1.13 3.254 0 .773 1.476.803 2.048.884.01.19.01.381.01.582 0 .09-.01.181-.02.272-1.165 0-2.34-.201-3.505-.201-.141 0-.342.06-.483.08-.632.11-1.255.14-1.888.14l.02-.793c.944-.291 1.969-.09 2.39-1.175l2.381-6.188L7.604 0H8.89ZM7.282 4.33 5.575 8.85c.994.01 1.989.04 2.983.04.19 0 .382-.01.573-.02-.523-1.527-1.135-3.084-1.849-4.54Z"/></svg>