<svg xmlns="http://www.w3.org/2000/svg" width="17" height="17"><path fill="#535F6A" fill-rule="nonzero" d="M8.143 0a8.145 8.145 0 0 1 8.143 8.143 8.145 8.145 0 0 1-8.143 8.143A8.145 8.145 0 0 1 0 8.143 8.145 8.145 0 0 1 8.143 0Zm0 2.375a5.774 5.774 0 0 0-5.768 5.768 5.774 5.774 0 0 0 5.768 5.768 5.774 5.774 0 0 0 5.768-5.768 5.774 5.774 0 0 0-5.768-5.768ZM9.16 4.071c.19 0 .339.149.339.34v4.75c0 .19-.148.339-.34.339H5.769a.335.335 0 0 1-.34-.34v-.678c0-.19.149-.34.34-.34h2.375V4.412c0-.191.148-.34.34-.34Z"/></svg>