<?xml version="1.0" encoding="UTF-8"?>
<svg width="17px" height="17px" viewBox="0 0 17 17" version="1.1" xmlns="http://www.w3.org/2000/svg" xmlns:xlink="http://www.w3.org/1999/xlink">
    <!-- Generator: Sketch 58 (84663) - https://sketch.com -->
    <title>Time</title>
    <desc>Created with Sketch.</desc>
    <g id="Page-1" stroke="none" stroke-width="1" fill="none" fill-rule="evenodd">
        <path d="M8.14286685,0 C12.6384079,0 16.2857337,3.64732578 16.2857337,8.14286685 C16.2857337,12.6384079 12.6384079,16.2857337 8.14286685,16.2857337 C3.64732578,16.2857337 0,12.6384079 0,8.14286685 C0,3.64732578 3.64732578,0 8.14286685,0 Z M8.14286685,2.37500283 C4.96205949,2.37500283 2.37500283,4.96205949 2.37500283,8.14286685 C2.37500283,11.3236742 4.96205949,13.9107309 8.14286685,13.9107309 C11.3236742,13.9107309 13.9107309,11.3236742 13.9107309,8.14286685 C13.9107309,4.96205949 11.3236742,2.37500283 8.14286685,2.37500283 Z M9.16072521,4.07143342 C9.35157365,4.07143342 9.50001132,4.2198711 9.50001132,4.41071954 L9.50001132,4.41071954 L9.50001132,9.16072521 C9.50001132,9.35157365 9.35157365,9.50001132 9.16072521,9.50001132 L9.16072521,9.50001132 L5.76786402,9.50001132 C5.57701558,9.50001132 5.4285779,9.35157365 5.4285779,9.16072521 L5.4285779,9.16072521 L5.4285779,8.48215297 C5.4285779,8.29130453 5.57701558,8.14286685 5.76786402,8.14286685 L5.76786402,8.14286685 L8.14286685,8.14286685 L8.14286685,4.41071954 C8.14286685,4.2198711 8.29130453,4.07143342 8.48215297,4.07143342 L8.48215297,4.07143342 Z" id="Time" fill="#535F6A" fill-rule="nonzero"></path>
    </g>
</svg>