<svg xmlns="http://www.w3.org/2000/svg" xmlns:xlink="http://www.w3.org/1999/xlink" id="Layer_1" data-name="Layer 1" width="219.57px" height="60px" viewBox="0 0 219.57 60"><defs><linearGradient id="linear-gradient" x1="-1087.29" x2="-1086.32" y1="8414.89" y2="8414.89" gradientTransform="matrix(15.63 0 0 5.23 17030.57 -43882.76)" gradientUnits="userSpaceOnUse"><stop offset="0" stop-color="#65ffff"/><stop offset="1" stop-color="#4e1fde" stop-opacity=".3"/></linearGradient><linearGradient xlink:href="#linear-gradient" id="linear-gradient-2" x1="-1119.4" x2="-1118.43" y1="7728.29" y2="7728.29" gradientTransform="matrix(27.26 0 0 9.83 30533.27 -75829.84)"/><linearGradient id="linear-gradient-3" x1="-1138.79" x2="-1137.82" y1="7117.14" y2="7117.14" gradientTransform="matrix(49.44 0 0 47.68 56319.05 -339225.65)" gradientUnits="userSpaceOnUse"><stop offset="0" stop-color="#aa0fd0"/><stop offset=".53" stop-color="#4321e0"/><stop offset="1" stop-color="#65a8ff"/></linearGradient><linearGradient id="linear-gradient-4" x1="-1114.26" x2="-1114.23" y1="7140.89" y2="7140.13" gradientTransform="matrix(24.7 0 0 41.51 27549.15 -296290.04)" gradientUnits="userSpaceOnUse"><stop offset="0"/><stop offset="1" stop-color="#fff" stop-opacity="0"/></linearGradient></defs><g id="Layer_2" data-name="Layer 2"><g id="Layer_1-2" data-name="Layer 1-2"><g id="Page-1"><g id="PDF---Qubely"><g id="Group-2"><path id="Path" d="M100.36 110.18v24.49a8.51 8.51 0 0 1-8.52 8.52v-3.69q-3.09 4.62-9.84 4.62a11.92 11.92 0 0 1-8.94-3.64c-2.36-2.41-3.54-5.76-3.54-10v-20.32a8.51 8.51 0 0 1 8.48 8.52v10.72a6.76 6.76 0 0 0 1.78 5 6.52 6.52 0 0 0 4.75 1.75 7 7 0 0 0 5.29-2c1.32-1.36 2-3.41 2-6.13v-9.32a8.52 8.52 0 0 1 8.52-8.52Z" class="cls-1" transform="translate(-15.22 -95)"/><path id="Shape" d="M127.36 109.26a15.07 15.07 0 0 1 11.39 5 18.61 18.61 0 0 1 0 24.77 15 15 0 0 1-11.39 5.05q-6.93 0-10.7-4.82v3.9a8.52 8.52 0 0 1-8.51-8.53V97a8.51 8.51 0 0 1 8.53 8.51v8.58q3.75-4.82 10.68-4.83Zm-8.14 24.13a8.82 8.82 0 0 0 6.56 2.61 8.92 8.92 0 0 0 6.57-2.61 9.9 9.9 0 0 0 0-13.4 9.55 9.55 0 0 0-13.13 0 10 10 0 0 0 0 13.4Z" class="cls-1" transform="translate(-15.22 -95)"/><path id="Shape-2" d="M156.67 130.19q1.71 6.21 9.31 6.21a10.84 10.84 0 0 0 3.53-.53 12.15 12.15 0 0 1 10 .76l.73.42q-4.89 7.08-14.39 7.07-8.19 0-13.14-5a17.42 17.42 0 0 1 12.44-29.93 15.75 15.75 0 0 1 12 5 17.4 17.4 0 0 1 4.72 12.41 20.53 20.53 0 0 1-.33 3.5Zm-.1-6.6h16.79a8 8 0 0 0-3-5 8.63 8.63 0 0 0-5.14-1.67 9 9 0 0 0-5.68 1.75 8.27 8.27 0 0 0-2.93 4.92Z" class="cls-1" transform="translate(-15.22 -95)"/><path id="Path-2" d="M187.83 134.68V95a8.51 8.51 0 0 1 8.53 8.51v39.69a8.52 8.52 0 0 1-8.53-8.51Z" class="cls-1" transform="translate(-15.22 -95)"/><path id="Path-3" d="m234.78 110.18-12 33.1q-2.55 7.07-6.86 10.27l-.4.29a6.49 6.49 0 0 1-10.19-5.33 8.57 8.57 0 0 0 5.45-1.46 9.91 9.91 0 0 0 3.2-4.9l-13.53-32a13.62 13.62 0 0 1 12.68 8.69l5.24 13.5 4.45-13.53a12.62 12.62 0 0 1 11.96-8.63Z" class="cls-1" transform="translate(-15.22 -95)"/><g id="Group"><path id="Path-4" fill="none" d="m33.4 45.02-.03-.03"/><path id="Path-5" d="M42.1 124.6a6 6 0 0 0-5.6 2.71s11.14 6 15.17-1c-2.51 2.69-5.45-1.56-9.57-1.71Z" class="cls-3" transform="translate(-15.22 -95)"/><path id="Path-6" fill="url(#linear-gradient)" d="M42.1 124.6a6 6 0 0 0-5.6 2.71s11.14 6 15.17-1c-2.51 2.69-5.45-1.56-9.57-1.71Z" transform="translate(-15.22 -95)"/><path id="Path-7" d="M39.92 135.09c1.84 1.55 6.66 7.62 6.66 7.62a23.62 23.62 0 0 1-7.94 1.35 23 23 0 0 1-16.85-6.92 22.75 22.75 0 0 1-1.67-1.87h.1a33.06 33.06 0 0 0 10.5 1.53c4.89-.23 5.83-2.24 7.65-2.27a2.13 2.13 0 0 1 1.6.56Z" class="cls-3" transform="translate(-15.22 -95)"/><path id="Path-8" fill="url(#linear-gradient-2)" d="M39.92 135.09c1.84 1.55 6.66 7.62 6.66 7.62a23.62 23.62 0 0 1-7.94 1.35 23 23 0 0 1-16.85-6.92 22.75 22.75 0 0 1-1.67-1.87h.1a33.06 33.06 0 0 0 10.5 1.53c4.89-.23 5.83-2.24 7.65-2.27a2.13 2.13 0 0 1 1.6.56Z" transform="translate(-15.22 -95)"/><path id="Path-9" fill="url(#linear-gradient-3)" d="M58.31 135.19a24.31 24.31 0 0 0-2.09-31.72 23.43 23.43 0 0 0-17-7 24.17 24.17 0 0 0-19.1 38.76 33.29 33.29 0 0 0 10.58 1.56c4.68-.22 5.75-2 7.41-2.25a13.84 13.84 0 0 1-4.36-.95 13.18 13.18 0 0 1-4.48-3 14.76 14.76 0 0 1 0-20.21 13.43 13.43 0 0 1 9.89-4 13.46 13.46 0 0 1 9.9 4 13.89 13.89 0 0 1 4 10.15 11.62 11.62 0 0 1-1.4 5.72c-.14.24-.28.47-.44.7-4.35 5.93-14.7.37-14.7.37l6.7 7L47.7 139l.09.07.85.89.49.51a8.36 8.36 0 0 0 6 2.28 16.84 16.84 0 0 0 6.87-1.67l.17-.07.46-.53-4.2-4.39a.7.7 0 0 1-.12-.9Z" transform="translate(-15.22 -95)"/><path id="Path-10" fill="url(#linear-gradient-4)" d="M39.22 106.4v-9.89a24.14 24.14 0 0 0-19.1 38.72 33.29 33.29 0 0 0 10.58 1.56c4.68-.22 5.75-2 7.41-2.25a13.84 13.84 0 0 1-4.36-.95 13.18 13.18 0 0 1-4.48-3 14.76 14.76 0 0 1 0-20.21 13.44 13.44 0 0 1 9.95-3.98Z" opacity=".3" style="isolation:isolate" transform="translate(-15.22 -95)"/></g></g></g></g></g></g></svg>