<svg width="20" height="20" viewBox="0 0 20 20" fill="none" xmlns="http://www.w3.org/2000/svg">
<rect width="20" height="20" fill="white"/>
<path d="M15.8262 11.2427C15.8262 11.5556 15.8051 11.8706 15.7628 12.1813C15.7734 12.1073 15.7839 12.0312 15.7924 11.9572C15.7099 12.5597 15.5472 13.1495 15.3125 13.7097C15.34 13.6421 15.3696 13.5744 15.3971 13.5068C15.1645 14.0543 14.8623 14.568 14.5008 15.0394C14.5452 14.9823 14.5896 14.9252 14.6339 14.8682C14.2725 15.3353 13.8518 15.7539 13.3867 16.1154C13.4438 16.071 13.5009 16.0266 13.5579 15.9822C13.0865 16.3458 12.5728 16.646 12.0253 16.8785C12.093 16.851 12.1606 16.8214 12.2283 16.794C11.6681 17.0307 11.0783 17.1914 10.4758 17.2738C10.5498 17.2633 10.6259 17.2527 10.6999 17.2442C10.0784 17.3267 9.44632 17.3267 8.82482 17.2442C8.89881 17.2548 8.97491 17.2654 9.0489 17.2738C8.44643 17.1914 7.85664 17.0286 7.29644 16.794C7.36409 16.8214 7.43173 16.851 7.49938 16.8785C6.95187 16.646 6.43818 16.3437 5.96677 15.9822C6.02385 16.0266 6.08092 16.071 6.138 16.1154C5.67082 15.7539 5.25226 15.3332 4.89077 14.8682C4.93516 14.9252 4.97956 14.9823 5.02395 15.0394C4.66035 14.568 4.36017 14.0543 4.12764 13.5068C4.15512 13.5744 4.18471 13.6421 4.21219 13.7097C3.97543 13.1495 3.81477 12.5597 3.73233 11.9572C3.7429 12.0312 3.75347 12.1073 3.76192 12.1813C3.67948 11.5619 3.67948 10.9362 3.75981 10.3168C3.74924 10.3908 3.73867 10.4669 3.73021 10.5409C3.81266 9.9342 3.97543 9.34018 4.21219 8.77576C4.18471 8.84341 4.15512 8.91105 4.12764 8.9787C4.36228 8.42696 4.66669 7.90904 5.0324 7.43552C4.98801 7.4926 4.94362 7.54967 4.89923 7.60675C5.22266 7.19241 5.58837 6.81402 5.96043 6.44408C6.40436 6.00015 6.85885 5.57102 7.31969 5.14612C8.14413 4.3851 8.98337 3.64099 9.83106 2.90533C10.0086 2.75102 10.1862 2.59881 10.3659 2.44661C9.96635 2.44661 9.56893 2.44661 9.1694 2.44661C9.67252 2.87574 10.1714 3.31121 10.6661 3.7488C11.6004 4.57535 12.5263 5.41247 13.4142 6.28765C13.8391 6.70832 14.264 7.13534 14.6318 7.60675C14.5874 7.54967 14.543 7.4926 14.4987 7.43552C14.8644 7.90904 15.1688 8.42696 15.4034 8.9787C15.3759 8.91105 15.3463 8.84341 15.3189 8.77576C15.5556 9.34018 15.7184 9.9342 15.8008 10.5409C15.7903 10.4669 15.7797 10.3908 15.7712 10.3168C15.8051 10.6233 15.8262 10.932 15.8262 11.2427C15.8283 11.6845 16.2152 12.1095 16.6718 12.0883C17.1284 12.0672 17.5195 11.7163 17.5174 11.2427C17.5131 9.93632 17.1834 8.64258 16.5555 7.49682C16.1158 6.69564 15.5133 6.00649 14.8728 5.35962C14.2809 4.75926 13.6636 4.18427 13.04 3.61562C12.4587 3.08502 11.871 2.56076 11.277 2.04284C10.9768 1.78071 10.6745 1.51647 10.3701 1.25857C10.3659 1.25434 10.3617 1.25223 10.3574 1.248C10.1904 1.10637 9.98749 0.990098 9.75919 1.00067C9.52454 1.01124 9.34063 1.0958 9.16094 1.248C8.78889 1.56509 8.42106 1.88641 8.05323 2.20773C7.27741 2.88842 6.51005 3.57545 5.75749 4.28151C5.08103 4.9157 4.38765 5.55622 3.80209 6.27708C3.53573 6.60262 3.28629 6.94297 3.07278 7.30445C2.85927 7.66594 2.68592 8.04645 2.52949 8.43541C2.22931 9.17952 2.07077 9.97437 2.0158 10.7734C1.9249 12.1496 2.22931 13.5364 2.84658 14.7646C3.43215 15.9294 4.33058 16.9166 5.39812 17.6564C6.49526 18.4175 7.78688 18.8466 9.11021 18.9692C10.4652 19.096 11.8245 18.8255 13.0569 18.261C14.2471 17.7177 15.2491 16.8447 16.0291 15.8025C16.4245 15.274 16.7225 14.699 16.972 14.0902C17.2278 13.4645 17.3736 12.8176 17.4582 12.1496C17.4962 11.8473 17.5174 11.545 17.5174 11.2406C17.5174 10.7988 17.1284 10.3739 16.6718 10.395C16.2131 10.4183 15.8262 10.7692 15.8262 11.2427Z" fill="black"/>
<path d="M16.6719 11.2427C16.6719 15.0605 13.5771 18.1553 9.75928 18.1553V1.84833C9.75928 1.84833 13.8286 5.31097 15.097 6.85204C16.08 8.0443 16.6719 9.5748 16.6719 11.2427Z" fill="black"/>
</svg>
