<?xml version="1.0" encoding="UTF-8"?>
<svg width="118px" height="96px" viewBox="0 0 118 96" version="1.1" xmlns="http://www.w3.org/2000/svg" xmlns:xlink="http://www.w3.org/1999/xlink">
    <!-- Generator: Sketch 62 (91390) - https://sketch.com -->
    <title>Group 17</title>
    <desc>Created with Sketch.</desc>
    <g id="Page-2" stroke="none" stroke-width="1" fill="none" fill-rule="evenodd">
        <g id="Group-17" fill="#F2F3F7">
            <rect id="Rectangle-Copy-58" x="0" y="0" width="118" height="96"></rect>
            <rect id="Rectangle-Copy-58" stroke="#D6D9DD" x="9.5" y="20.5" width="33" height="11"></rect>
            <rect id="Rectangle-Copy-59" stroke="#D6D9DD" x="9.5" y="31.5" width="33" height="11"></rect>
            <rect id="Rectangle-Copy-60" stroke="#D6D9DD" x="9.5" y="42.5" width="33" height="11"></rect>
            <rect id="Rectangle-Copy-72" stroke="#D6D9DD" x="9.5" y="53.5" width="33" height="11"></rect>
            <rect id="Rectangle-Copy-75" stroke="#D6D9DD" x="9.5" y="64.5" width="33" height="11"></rect>
            <rect id="Rectangle-Copy-66" stroke="#D6D9DD" x="42.5" y="20.5" width="33" height="11"></rect>
            <rect id="Rectangle-Copy-68" stroke="#D6D9DD" x="42.5" y="31.5" width="33" height="11"></rect>
            <rect id="Rectangle-Copy-70" stroke="#D6D9DD" x="42.5" y="42.5" width="33" height="11"></rect>
            <rect id="Rectangle-Copy-73" stroke="#D6D9DD" x="42.5" y="53.5" width="33" height="11"></rect>
            <rect id="Rectangle-Copy-76" stroke="#D6D9DD" x="42.5" y="64.5" width="33" height="11"></rect>
            <rect id="Rectangle-Copy-67" stroke="#D6D9DD" x="75.5" y="20.5" width="33" height="11"></rect>
            <rect id="Rectangle-Copy-69" stroke="#D6D9DD" x="75.5" y="31.5" width="33" height="11"></rect>
            <rect id="Rectangle-Copy-71" stroke="#D6D9DD" x="75.5" y="42.5" width="33" height="11"></rect>
            <rect id="Rectangle-Copy-74" stroke="#D6D9DD" x="75.5" y="53.5" width="33" height="11"></rect>
            <rect id="Rectangle-Copy-77" stroke="#D6D9DD" x="75.5" y="64.5" width="33" height="11"></rect>
        </g>
    </g>
</svg>