<svg width="20" height="20" viewBox="0 0 20 20" fill="none" xmlns="http://www.w3.org/2000/svg">
<rect width="20" height="20" fill="white"/>
<path d="M4.35 11.8852H9L9.7 13.9508C9.83333 14.3607 9.9 14.6885 9.9 14.8852C9.9 15.3607 9.55 15.5574 8.7 15.5902V16H13V15.5902C12.0333 15.5574 11.7167 15.2459 11.25 13.9016L7.71667 4L6.68333 4.11475L3.13333 13.3607C2.5 15.0164 1.95 15.5902 1 15.5902V16H4.9V15.5902C3.93333 15.5574 3.5 15.2951 3.5 14.7049C3.5 14.3934 3.61667 13.8852 3.81667 13.3607L4.35 11.8852ZM8.78333 11.2787H4.58333L6.75 5.54098L8.78333 11.2787Z" fill="black" stroke="black" stroke-width="0.5"/>
<path d="M14.675 13.9426H17L17.35 14.9754C17.4167 15.1803 17.45 15.3443 17.45 15.4426C17.45 15.6803 17.275 15.7787 16.85 15.7951V16H19V15.7951C18.5167 15.7787 18.3583 15.623 18.125 14.9508L16.3583 10L15.8417 10.0574L14.0667 14.6803C13.75 15.5082 13.475 15.7951 13 15.7951V16H14.95V15.7951C14.4667 15.7787 14.25 15.6475 14.25 15.3525C14.25 15.1967 14.3083 14.9426 14.4083 14.6803L14.675 13.9426ZM16.8917 13.6393H14.7917L15.875 10.7705L16.8917 13.6393Z" fill="black" stroke="black" stroke-width="0.5"/>
</svg>
