<svg height="120" viewBox="0 0 105 120" width="105" xmlns="http://www.w3.org/2000/svg"><g fill="none" fill-rule="evenodd"><path d="m0 0h105v120h-105z" fill="#fff"/><g fill-rule="nonzero"><g transform="translate(21.837351 90.192322)"><path d="m2.2029232 10.5983902v-.5435072c.47662977-.10015849.85346518-.31446824 1.13050623-.64292922s.41556158-.72541271.41556158-1.19085518c0-.32698807-.08341021-.60095104-.25023063-.82188893-.16682042-.22093788-.47811924-.46838831-.93389645-.74235128-.08043127-.04713342-.20107818-.11930646-.36194073-.21651912v-2.32868528c.38428275.02945838.86240198.16643987 1.4343577.41094446v-.71141998c-.5213138-.19737118-.99943304-.29605676-1.4343577-.29605676v-.54792595h-.4379036v.54792595c-.47365083.03535006-.85420991.19663471-1.14167723.48385396-.28746733.28721924-.43120099.64882091-.43120099 1.084805 0 .38885067.11096536.72320333.3328961 1.00305798.22193073.27985465.63525811.60242396 1.23998212.96770793v2.34636031c-.50344019 0-1.09178005-.15465652-1.7650196-.46396956v.7511888c.65238699.24450459 1.24072686.36675687 1.7650196.36675687v.5435072zm-.4379036-4.44527018c-.31278828-.19737118-.52429274-.3719121-.63451337-.52362278-.11022064-.15171068-.16533095-.33950788-.16533095-.5633916 0-.45365912.26661477-.76297216.79984432-.92793911zm.4379036 3.19476177v-2.03704727c.31874616.21799204.52727168.39400589.62557657.52804154s.14745733.30563074.14745733.51478526c0 .48017167-.25767796.81157849-.7730339.99422047z" fill="#acacac"/><path d="m12.1808695 10.054883v-.98096418h-1.9839714v-9.07391882l-3.31108745.81526079v1.00747674l1.98397141-.4904821v7.74166339h-1.98397141v.98096418zm4.899605.2452411c1.2913688 0 2.3157504-.49600558 3.0731449-1.48801667s1.1360917-2.33199935 1.1360917-4.01996477c0-1.48470256-.310554-2.65456865-.9316622-3.50959825-.6211082-.85502961-1.4701049-1.28254441-2.5469903-1.28254441-.9383649 0-1.7169843.33030213-2.3358582.9909064-.618874.66060427-.928311 1.4924354-.928311 2.49549338 0 .87491401.2904463 1.61616061.8713388 2.22373978.5808925.60757918 1.2891346.91136877 2.1247261.91136877.8534652 0 1.6153281-.40873508 2.2855887-1.22620525 0 1.23283338-.2312399 2.19501786-.6937197 2.88655343s-1.1048129 1.03730336-1.9269993 1.03730336c-.5898293 0-1.304774-.14360962-2.1448339-.43082887v1.10689879c.8266547.20326281 1.4991495.30489431 2.0174844.30489431zm.7037737-4.61981115c-.5942978 0-1.0623631-.2187285-1.404196-.65618551s-.5127494-1.03619867-.5127494-1.79622498c0-.69374495.1664481-1.24277559.4993442-1.64709191.3328961-.40431633.7875562-.60647449 1.3639803-.60647449.6211082 0 1.1226865.25518325 1.5047351.76554976.3820485.51036651.5730728 1.18312236.5730728 2.01826756 0 .53025091-.1977269.98317357-.5931806 1.35876797-.3954538.3755944-.8724559.5633916-1.4310064.5633916zm8.1101533 4.61981115c1.0768854 0 1.923648-.2629161 2.5402877-.78874827.6166398-.52583216.9249597-1.25050842.9249597-2.17402876 0-1.36539612-.7998444-2.23147261-2.399533-2.5982295 1.3807368-.4904821 2.0711053-1.31237102 2.0711053-2.46566676 0-1.51563387-1.0143277-2.27345081-3.0429832-2.27345081-.7372867 0-1.4969154.13035335-2.2788861.39106005v1.14003947c.795376-.36675688 1.5237258-.55013532 2.1850496-.55013532 1.2064691 0 1.8097037.50152899 1.8097037 1.50458697 0 1.27702096-.9160229 1.91553144-2.7480685 1.91553144l-.4624799.00662814v.88154215h.5228033c1.9526926 0 2.9290389.68932619 2.9290389 2.06797858 0 .57885725-.1977269 1.05055963-.5931807 1.41510713-.3954537.36454751-.9082031.54682126-1.5382481.54682126-.5451452 0-1.2913687-.18558782-2.2386704-.55676346v1.21957711c.9338965.21210038 1.7069304.31815058 2.3191017.31815058zm8.338042 0c1.1528482 0 2.0543488-.2706489 2.7045016-.81194675.6501527-.54129781.9752291-1.28917254.9752291-2.24362419 0-1.02515178-.3574723-1.82715629-1.0724169-2.40601354-.7149447-.57885725-1.7091646-.86828588-2.9826597-.86828588v-2.58497322h3.8607011v-1.14003947h-5.020252v4.77225825c.254699-.0309313.4982271-.04639695.7305841-.04639695 2.0509974 0 3.0764962.73572315 3.0764962 2.20716944 0 .66723241-.1865559 1.19085519-.5596676 1.57086834-.3731118.38001316-.8858612.57001974-1.5382481.57001974-.5942978 0-1.2198744-.13035335-1.8767298-.39106005v1.16655198c.6345134.1369815 1.2020007.2054723 1.702462.2054723zm8.3045289-.2452411v-1.63714969h-1.6555437v1.63714969zm5.650297.2452411c1.0679485 0 1.9202966-.46949303 2.5570442-1.40847903s.9551214-2.19501786.9551214-3.76809558c0-1.5333089-.3183738-2.77056104-.9551214-3.71175642-.6367476-.94119538-1.4756904-1.41179307-2.5168286-1.41179307-1.0411381 0-1.880081.47059769-2.5168286 1.41179307s-.9551213 2.18507565-.9551213 3.73164083c0 1.5333089.3161395 2.77608449.9484187 3.72832676s1.460051 1.42836344 2.4833156 1.42836344zm.0134052-.98096423c-1.3583948 0-2.0375923-1.39190866-2.0375923-4.17572597 0-2.7749798.6881343-4.1624697 2.0644027-4.1624697 1.3807369 0 2.0711053 1.37423362 2.0711053 4.12270088 0 2.81032986-.6993052 4.21549479-2.0979157 4.21549479zm8.6664697.98096423c1.0679485 0 1.9202966-.46949303 2.5570442-1.40847903s.9551213-2.19501786.9551213-3.76809558c0-1.5333089-.3183737-2.77056104-.9551213-3.71175642-.6367476-.94119538-1.4756905-1.41179307-2.5168286-1.41179307-1.0411382 0-1.880081.47059769-2.5168286 1.41179307s-.9551214 2.18507565-.9551214 3.73164083c0 1.5333089.3161396 2.77608449.9484188 3.72832676s1.460051 1.42836344 2.4833156 1.42836344zm.0134052-.98096423c-1.3583949 0-2.0375923-1.39190866-2.0375923-4.17572597 0-2.7749798.6881342-4.1624697 2.0644027-4.1624697 1.3807368 0 2.0711053 1.37423362 2.0711053 4.12270088 0 2.81032986-.6993053 4.21549479-2.0979157 4.21549479z" fill="#000"/></g><g transform="translate(21.100958 5)"><path d="m24.9429161 12.0603097c-13.7092932 0-24.82287822 11.0407189-24.82287822 24.6601273 0 13.6195282 11.11355402 24.660278 24.82287822 24.660278 13.7093243 0 24.8228782-11.0407498 24.8228782-24.660278 0-13.6194084-11.113585-24.6601273-24.8228782-24.6601273z" fill="#1738bb"/><path d="m24.828525.06956892c20.4691471 0 37.0627306 16.40916408 37.0627306 36.65079308 0 20.0393534-16.263363 36.322524-36.4498314 36.6461835l-.6128992.0049102v-12.0242918c13.7536917 0 24.9033413-11.0258456 24.9033413-24.6268019 0-13.464779-10.9277526-24.4057294-24.4915198-24.623202l-.4118215-.0032992z" fill="#f67900"/></g></g><text fill="#304254" font-family="OpenSans-SemiBold, Open Sans" font-size="6" font-weight="500"><tspan x="46.22168" y="111">Title</tspan></text></g></svg>