<svg height="120" viewBox="0 0 105 120" width="105" xmlns="http://www.w3.org/2000/svg" xmlns:xlink="http://www.w3.org/1999/xlink"><defs><path id="a" d="m90.6469436 63.0953659c0 22.696379-18.5012216 41.0955051-41.323402 41.0955051-22.8223201 0-41.3235416-18.3991261-41.3235416-41.0955051s18.5012215-41.0953659 41.3235416-41.0953659c22.8221804 0 41.323402 18.3989869 41.323402 41.0953659"/><filter id="b" height="323.9%" width="322.6%" x="-111.3%" y="-103.4%"><feMorphology in="SourceAlpha" operator="dilate" radius="18.5" result="shadowSpreadOuter1"/><feOffset dx="0" dy="7" in="shadowSpreadOuter1" result="shadowOffsetOuter1"/><feGaussianBlur in="shadowOffsetOuter1" result="shadowBlurOuter1" stdDeviation="11"/><feColorMatrix in="shadowBlurOuter1" type="matrix" values="0 0 0 0 0.786047173   0 0 0 0 0.793092668   0 0 0 0 0.866196784  0 0 0 1 0"/></filter><linearGradient id="c" x1="3.689221%" x2="100%" y1=".55031%" y2="99.44969%"><stop offset="0" stop-color="#887afa"/><stop offset="1" stop-color="#da3a3a"/></linearGradient></defs><g fill="none" fill-rule="evenodd"><path d="m0 0h105v120h-105z" fill="#fff"/><path d="m0 0h105v120h-105z" fill="#fff"/><use fill="#000" filter="url(#b)" xlink:href="#a"/><use fill="#fff" fill-rule="evenodd" xlink:href="#a"/><path d="m48.8775405 16.1810853c26.1482657 0 47.3456875 21.0804475 47.3456875 47.0844185 0 .2321786-.1892623.4203966-.4227293.4203966s-.4227294-.188218-.4227294-.4203966c0-25.5396137-20.8188971-46.2436253-46.5002288-46.2436253-.233467 0-.4227294-.188218-.4227294-.4203966s.1892624-.4203966.4227294-.4203966z" fill="url(#c)" fill-rule="nonzero"/><g transform="translate(28 54)"><path d="m4.36837648 13.6851923c1.21447062 0 2.19038452-.3354214 2.92774168-1.0062642.73735717-.6708427 1.10603575-1.5734312 1.10603575-2.70776529 0-.87819416-.24940022-1.59477619-.74820065-2.14974611-.49880044-.55496992-1.19123458-.93308129-2.07730244-1.13433412.77453484-.23174568 1.3895155-.62510348 1.84494199-1.1800734.45542648-.55496991.68313972-1.18617196.68313972-1.89360614 0-1.10993984-.34389347-1.98965864-1.0316804-2.6391564-.68778694-.64949776-1.61722874-.97424664-2.78832541-.97424664-.74355345 0-1.42204596.15551355-2.03547755.46654065-.61343159.31102709-1.09364319.74707488-1.4406348 1.30814337s-.52048741 1.19531983-.52048741 1.90275401h.50189857c0-.95137701.32840277-1.71979689.98520832-2.30525966.65680554-.58546277 1.49330316-.87819416 2.50949287-.87819416 1.04097482 0 1.8542364.27748496 2.43978473.83245488.58554834.55496992.87832251 1.30509409.87832251 2.25037252 0 .82940559-.3268537 1.51244549-.98056111 2.0491197-.6537074.5366742-1.51034293.81415916-2.56990658.83245488h-1.13391901v.51227992h1.05956366c1.28262969.00609857 2.25699452.2683371 2.92309447.7867156.66609996.51837849.99914994 1.26850267.99914994 2.25037249 0 .994067-.311363 1.7731594-.93408901 2.3372772s-1.48865595.8461766-2.59778984.8461766c-1.11533017 0-2.03857569-.3216996-2.76973658-.9650987-.73116088-.6433992-1.09674133-1.4529845-1.09674133-2.42875575h-.50189857c0 .75012415.17659394 1.41181905.52978183 1.98508475.35318788.5732656.87677343 1.0337077 1.57075665 1.3813262.69398321.3476185 1.44992921.5214278 2.267838.5214278zm6.29232102 2.1497461c.6320204-.6647442.9604232-1.4819527.9852083-2.4516254v-1.3355869h-.5018986l-.0092944 1.5276919c-.0433739.6769413-.3160102 1.3325376-.8179088 1.966789zm5.7625392-2.3327033 5.9577219-13.00825089v-.31102709h-8.6438087v.49398421h8.0675548l-5.892661 12.82529377zm12.7240583.1829572c1.2268632 0 2.1686975-.3765868 2.8255031-1.1297602.6568055-.7531735.9852083-1.8524408.9852083-3.29780204 0-1.24410839-.3624823-2.24427396-1.0874469-3.0004967-.7249646-.75622275-1.6946823-1.13433412-2.9091529-1.13433412-.5080948 0-1.0270332.0823307-1.556815.24699211-.5297818.1646614-.955776.37811137-1.2779825.6403499l.5483707-5.34234778h6.1436103v-.48483635h-6.5990368l-.6320204 6.34861191.3810711.14636569c.3841693-.36591423.8179088-.63425133 1.3012185-.8050113.4833098-.17075998 1.0502693-.25613997 1.7008785-.25613997 1.0595637 0 1.9038067.3323721 2.5327289.99711628.6289223.66474419.9433835 1.5520862.9433835 2.66202604 0 1.28679833-.2710872 2.26104503-.8132616 2.92273993s-1.3709267.9925423-2.4862568.9925423c-1.0471711 0-1.8681781-.2713863-2.4630208-.8141591-.5948428-.5427728-.9418344-1.335587-1.0409748-2.37844253h-.511193c.0929442 1.15262983.4957023 2.05521823 1.2082743 2.70776533.7125721.652547 1.6482102.9788206 2.8069143.9788206zm10.0379715 0c1.2144706 0 2.1903845-.3354214 2.9277416-1.0062642.7373572-.6708427 1.1060358-1.5734312 1.1060358-2.70776529 0-.87819416-.2494002-1.59477619-.7482007-2.14974611-.4988004-.55496992-1.1912345-.93308129-2.0773024-1.13433412.7745348-.23174568 1.3895155-.62510348 1.844942-1.1800734.4554265-.55496991.6831397-1.18617196.6831397-1.89360614 0-1.10993984-.3438935-1.98965864-1.0316804-2.6391564s-1.6172287-.97424664-2.7883254-.97424664c-.7435534 0-1.422046.15551355-2.0354776.46654065-.6134315.31102709-1.0936431.74707488-1.4406348 1.30814337-.3469916.56106849-.5204874 1.19531983-.5204874 1.90275401h.5018986c0-.95137701.3284028-1.71979689.9852083-2.30525966.6568056-.58546277 1.4933032-.87819416 2.5094929-.87819416 1.0409748 0 1.8542364.27748496 2.4397847.83245488.5855484.55496992.8783225 1.30509409.8783225 2.25037252 0 .82940559-.3268537 1.51244549-.9805611 2.0491197-.6537074.5366742-1.5103429.81415916-2.5699066.83245488h-1.133919v.51227992h1.0595637c1.2826297.00609857 2.2569945.2683371 2.9230945.7867156.6660999.51837849.9991499 1.26850267.9991499 2.25037249 0 .994067-.311363 1.7731594-.934089 2.3372772s-1.488656.8461766-2.5977898.8461766c-1.1153302 0-2.0385757-.3216996-2.7697366-.9650987-.7311609-.6433992-1.0967413-1.4529845-1.0967413-2.42875575h-.5018986c0 .75012415.1765939 1.41181905.5297818 1.98508475.3531879.5732656.8767734 1.0337077 1.5707567 1.3813262.6939832.3476185 1.4499292.5214278 2.267838.5214278z" fill="#304254" fill-rule="nonzero"/><text fill="#849cb4" font-family="IBMPlexSerif-Light, IBM Plex Serif" font-size="7" font-weight="300"><tspan x="14.188368" y="26.362636">Title</tspan></text></g></g></svg>