<svg height="120" viewBox="0 0 105 120" width="105" xmlns="http://www.w3.org/2000/svg"><g fill="none" fill-rule="evenodd"><path d="m0 0h105v120h-105z" fill="#fff"/><g fill-rule="nonzero" transform="translate(20.581633 9)"><path d="m63.9957341 31.929382c-.2811903 17.1076742-14.4277549 30.8906183-31.8376695 30.8906183-17.5858355 0-31.84201522-14.0627773-31.84201522-31.4100395 0-17.3472557 14.25617302-31.4099608 31.84201522-31.4099608 17.4099212 0 31.5564793 13.7828733 31.8376695 30.8905397l.0042659.5194211zm-16.4323662-.7707534c-.1360597-8.2778825-6.9811692-14.9470156-15.4053033-14.9470156-8.5092981 0-15.4074473 6.8045356-15.4074473 15.1983478 0 8.3938356 6.898173 15.1984265 15.4074473 15.1984265 8.4241105 0 15.2692431-6.6691873 15.4053033-14.9470937l.0020642-.2513328z" fill="#5dd8d7"/><path d="m32.1580247 0c17.4099613 0 31.5565192 13.7829049 31.8377094 30.8905789l.0042659.5194212h-16.4345679c0-8.3098816-6.760876-15.0621369-15.1526183-15.196351l-.2547891-.0020361z" fill="#1738bb"/><path d="m17.2426312 91.0955804c1.6024305 0 2.9246238-.552871 3.9665798-1.658613 1.0419561-1.105742 1.5629341-2.5157487 1.5629341-4.2300199 0-1.4916386-.4645544-2.7142627-1.3936632-3.6678725-.9291088-.9536097-2.1234086-1.4304146-3.5828993-1.4304146-1.6099537 0-2.9453125.6790295-4.0060764 2.0370885 0-4.4749157 1.421875-6.7123736 4.265625-6.7123736 1.0005787 0 2.287037.2968435 3.859375.8905305v-1.9146406c-1.4895834-.4155809-2.7309028-.6233713-3.7239584-.6233713-2.1666666 0-3.8462095.7903458-5.0386284 2.3710374-1.192419 1.5806917-1.7886285 3.7995968-1.7886285 6.6567155 0 2.5973806.5190972 4.6270481 1.5572917 6.0890023 1.0381944 1.4619542 2.4788773 2.1929313 4.3220486 2.1929313zm.1579861-1.6474814c-1.0607639 0-1.9127604-.4174361-2.5559896-1.2523085-.6432292-.8348723-.9648437-1.9424696-.9648437-3.3227919 0-.8756883.3385416-1.6252182 1.015625-2.2485895.6770833-.6233714 1.4858217-.935057 2.4262152-.935057 1.0081019 0 1.7961516.3562122 2.3641493 1.0686366s.8519966 1.6920079.8519966 2.9387506c0 1.1428475-.2839989 2.053786-.8519966 2.7328155s-1.3297164 1.0185442-2.2851562 1.0185442zm17.8185764 1.2356111v-4.6641535h2.234375v-1.7921926h-2.234375v-10.0184681h-2.0876736l-7.515625 10.1520477v1.658613h7.515625v4.6641535zm-1.9409722-6.4563461h-5.484375l5.484375-7.3246134zm7.7864583 6.8682164 13.1467014-17.2985549h-1.7378472l-13.1579862 17.2985549zm1.6137153-8.6492774c1.120949 0 2.0011574-.3691991 2.640625-1.1075973s.9592014-1.7495214.9592014-3.0333695c0-1.2541638-.3197338-2.2504448-.9592014-2.988843s-1.5008681-1.1075973-2.5842014-1.1075973c-1.0908565 0-1.9560185.3691991-2.5954861 1.1075973s-.9592014 1.7383897-.9592014 2.9999746c0 1.2541638.317853 2.2560106.953559 3.0055404.635706.7495299 1.483941 1.1242948 2.5447049 1.1242948zm.0338541-1.1020315c-.5642361 0-1.015625-.2745802-1.3541666-.8237407-.3385417-.5491605-.5078125-1.2838482-.5078125-2.204063s.1692708-1.6530472.5078125-2.1984972c.3385416-.5454499.7974537-.8181749 1.3767361-.8181749.5717592 0 1.0269097.272725 1.3654514.8181749.3385416.54545.5078125 1.2745718.5078125 2.1873656 0 2.0259569-.6319445 3.0389353-1.8958334 3.0389353zm8.046007 9.3394386c1.120949 0 2.0011574-.3673438 2.640625-1.1020315s.9592014-1.7476661.9592014-3.0389353c0-1.2541638-.3216146-2.2504448-.9648438-2.988843s-1.5065104-1.1075973-2.5898437-1.1075973c-1.0833334 0-1.9447338.3710544-2.5842014 1.1131631-.6394676.7421088-.9592014 1.7439556-.9592014 3.0055404 0 1.2541638.3159722 2.2541554.9479167 2.9999747.6319444.7458192 1.4820601 1.1187289 2.5503472 1.1187289zm.0225694-1.1020315c-.5642361 0-1.0137442-.2745802-1.3485243-.8237407s-.5021701-1.2801376-.5021701-2.1929314c0-.9276359.1692708-1.6641788.5078125-2.2096288.3385416-.5454499.7936921-.8181749 1.3654514-.8181749.5717592 0 1.0287905.272725 1.3710937.8181749.3423033.54545.5134549 1.2745718.5134549 2.1873656 0 2.0259569-.635706 3.0389353-1.9071181 3.0389353z" fill="#000"/></g><text fill="#304254" font-family="OpenSans-SemiBold, Open Sans" font-size="6" font-weight="500"><tspan x="46.22168" y="111">Title</tspan></text></g></svg>