<svg height="120" viewBox="0 0 105 120" width="105" xmlns="http://www.w3.org/2000/svg" xmlns:xlink="http://www.w3.org/1999/xlink"><defs><path id="a" d="m40.7967818 0c-22.3675751 0-40.5000785 18.1323918-40.5000785 40.4999215 0 22.3675524 18.1325261 40.5000785 40.5000785 40.5000785 22.3674233 0 40.4999215-18.132554 40.4999215-40.5000785 0-22.3675018-18.1324755-40.4999215-40.4999215-40.4999215zm.1557694 10.5923077c16.603512 0 30.0633829 13.4598294 30.0633829 30.0633829 0 16.6035906-13.4599081 30.0635402-30.0633829 30.0635402-16.6036114 0-30.0635402-13.4599288-30.0635402-30.0635402 0-16.6035742 13.4598916-30.0633829 30.0635402-30.0633829z"/><filter id="b" height="107.4%" width="107.4%" x="-3.7%" y="-3.7%"><feGaussianBlur in="SourceAlpha" result="shadowBlurInner1" stdDeviation="2"/><feOffset dx="0" dy="2" in="shadowBlurInner1" result="shadowOffsetInner1"/><feComposite in="shadowOffsetInner1" in2="SourceAlpha" k2="-1" k3="1" operator="arithmetic" result="shadowInnerInner1"/><feColorMatrix in="shadowInnerInner1" type="matrix" values="0 0 0 0 0.780392157   0 0 0 0 0.831372549   0 0 0 0 0.890196078  0 0 0 1 0"/></filter><linearGradient id="c" x1="40.624023%" x2="53.053897%" y1="-20.309903%" y2="110.226894%"><stop offset="0" stop-color="#efcfb4"/><stop offset="1" stop-color="#f88d24"/></linearGradient><path id="d" d="m40.7967033 2c20.7107398 0 37.5 17.0130791 37.5 37.999921 0 20.9868685-16.7892865 38.000079-37.5 38.000079s-37.5-17.0132105-37.5-38.000079c0-1.3991214 1.11928812-2.5333333 2.5-2.5333333 1.38071187 0 2.5 1.1342119 2.5 2.5333333 0 18.1886303 14.5507146 32.9334123 32.5 32.9334123s32.5-14.744782 32.5-32.9334123c0-18.1885966-14.5506815-32.93325433-32.5-32.93325433-1.3807119 0-2.5-1.13421197-2.5-2.53333334 0-1.39912136 1.1192881-2.53333333 2.5-2.53333333z"/><filter id="e" height="118.4%" width="118.7%" x="-9.3%" y="-6.6%"><feOffset dx="0" dy="2" in="SourceAlpha" result="shadowOffsetOuter1"/><feGaussianBlur in="shadowOffsetOuter1" result="shadowBlurOuter1" stdDeviation="2"/><feColorMatrix in="shadowBlurOuter1" type="matrix" values="0 0 0 0 1   0 0 0 0 0.551913515   0 0 0 0 0.0066882622  0 0 0 0.5 0"/></filter></defs><g fill="none" fill-rule="evenodd"><path d="m0 0h105v120h-105z" fill="#fff"/><path d="m0 0h105v120h-105z" fill="#fff"/><g transform="translate(12 11)"><g fill-rule="nonzero"><use fill="#eff4f8" xlink:href="#a"/><use fill="#000" filter="url(#b)" xlink:href="#a"/></g><use fill="#000" filter="url(#e)" xlink:href="#d"/><use fill="url(#c)" fill-rule="evenodd" xlink:href="#d"/><g fill-rule="nonzero"><path d="m28.5158814 46.8263193 4.9460113-11.1850367v-1.4589179h-9.1651894v2.1102205h6.3464948l-4.9460113 10.5337341zm10.9911362.1736807c.9572925 0 1.7653773-.1939434 2.4242546-.5818303.6588772-.3878869 1.1522965-.9031396 1.4802578-1.5457582.3279614-.6426186.491942-1.3460254.491942-2.1102205 0-.8915609-.1551168-1.6557559-.4653505-2.2925851s-.7608112-1.1231352-1.3517325-1.4589179c-.5909213-.3357826-1.3029814-.503674-2.1361805-.503674-.3781896 0-.7386516.0492096-1.0813859.1476286-.3427344.0984191-.6204674.2084169-.8331991.3299933l.3102337-2.6486306h5.1232877v-2.1536406h-7.3126511l-.7534247 6.4348698 2.1273167.512358c.2068225-.2084168.4358045-.3734135.686946-.49499.2511416-.1215764.5835348-.1823647.9971797-.1823647.6736503 0 1.1774107.1896014 1.5112812.5688043.3338706.3792028.5008058.9045869.5008058 1.5761523 0 .6889334-.1388665 1.2432643-.4165995 1.6629926-.277733.4197284-.7150147.6295926-1.3118453.6295926-.4963739 0-.8996776-.1432866-1.2099113-.4298598-.3102337-.2865731-.4889874-.6816967-.5362611-1.1853707h-2.6591459c.0118185.7526163.2260274 1.4111556.642627 1.9756179.4165995.5644623.9587698.9972167 1.6265108 1.2982632.6677411.3010465 1.3827559.4515698 2.1450444.4515698zm8.8195004-7.1209085c.5968305 0 1.1065001-.1157871 1.5290088-.3473614.4225088-.2315742.740129-.5441995.9528606-.9378757.2127317-.3936763.3190975-.8307727.3190975-1.3112893v-.6686706c0-.486306-.1078431-.9277444-.3235294-1.3243153-.2156863-.396571-.5347838-.7106436-.9572925-.9422178-.4225087-.2315743-.935133-.3473614-1.5378727-.3473614-.5909213 0-1.0991136.1157871-1.5245769.3473614-.4254634.2315742-.7475155.5456468-.9661564.9422178-.2186408.3965709-.3279613.8380093-.3279613 1.3243153v.6686706c0 .4805166.1093205.917613.3279613 1.3112893.2186409.3936762.5421703.7063015.9705883.9378757.4284179.2315743.9410421.3473614 1.5378727.3473614zm.5229653 6.000668 6.3021757-9.8824315-1.2941177-.6686707-6.3021756 9.8824315zm-.5229653-7.503006c-.3427344 0-.6071717-.1056557-.7933119-.3169673-.1861402-.2113115-.2792103-.4703852-.2792103-.7772211v-.6686706c0-.3126253.0915928-.576041.2747784-.7902472s.443191-.3213093.7800161-.3213093c.3427344 0 .6056944.1071031.78888.3213093s.2747784.4776219.2747784.7902472v.6686706c0 .3068359-.0901155.5659096-.2703465.7772211-.180231.2113116-.4387591.3169673-.7755842.3169673zm6.1603545 8.6232465c.5968305 0 1.1079775-.1157871 1.5334408-.3473614.4254633-.2315742.7445608-.5441995.9572925-.9378757.2127317-.3936763.3190975-.8336674.3190975-1.3199733v-.6686707c0-.4863059-.1078431-.926297-.3235294-1.3199733-.2156863-.3936762-.5362611-.7063015-.9617244-.9378757-.4254634-.2315743-.9395649-.3473614-1.5423046-.3473614-.5909213 0-1.0991136.1157871-1.524577.3473614-.4254633.2315742-.7475154.5456468-.9661563.9422177-.2186409.396571-.3279613.8351147-.3279613 1.3156313v.6686707c0 .4863059.1093204.926297.3279613 1.3199733.2186409.3936762.5421703.7063015.9705882.9378757.428418.2315743.9410422.3473614 1.5378727.3473614zm0-1.502338c-.3131883 0-.570239-.1085504-.7711523-.3256513-.2009132-.2171009-.3013698-.4761746-.3013698-.7772211v-.6686707c0-.3126252.0915928-.5745936.2747784-.7859051.1831856-.2113116.4431909-.3169673.7800161-.3169673.3427343 0 .6056943.1056557.7888799.3169673.1831856.2113115.2747784.4732799.2747784.7859051v.6686707c0 .3357827-.0768198.6035404-.2304593.8032732s-.4254633.2995992-.8154714.2995992z" fill="#304254"/><path d="m33.7883156 98.8756477v-.5595855h-.9100652v-6.0621762h1.526561v1.2124352h.8904939v-1.8238342h-5.998602v1.8238342h.8904939v-1.2124352h1.5265611v6.0621762h-.9100653v.5595855zm3.4641193-6.3937824c.2087605 0 .3718546-.0639033.4892824-.1917099.1174277-.1278065.1761416-.2918825.1761416-.4922279v-.0621762c0-.2003454-.0587139-.3644214-.1761416-.492228-.1174278-.1278065-.2805219-.1917098-.4892824-.1917098s-.3718546.0639033-.4892824.1917098c-.1174278.1278066-.1761417.2918826-.1761417.492228v.0621762c0 .2003454.0587139.3644214.1761417.4922279.1174278.1278066.2805219.1917099.4892824.1917099zm1.2134203 6.3937824v-.5595855h-.665424v-4.9533679l-1.7614166.3626943v.4559586l.665424.134715v4h-.665424v.5595855zm2.2996272.0829015c.2739982 0 .5333178-.0224525.777959-.0673575s.4224138-.0949914.5333178-.1502591v-.4559585h-1.2232059v-4.1968912h1.2232059v-.6010363h-1.2232059v-1.4404145h-.5675676l-.3033551.9119171c-.0587139.1727116-.1337372.3039724-.2250699.3937824s-.2576887.134715-.499068.134715h-.166356v.6010363h.665424v3.8341969c0 .3592401.0750233.6217617.2250699.7875648s.4109972.2487046.7828518.2487046zm4.2665424-.0829015v-.5595855h-.665424v-7.3160622l-1.7614166.3626943v.4559585l.665424.1347151v6.3626943h-.665424v.5595855zm3.0922647.1243523c.2935694 0 .55452-.0431779.7828518-.1295337s.4273066-.1986183.5969245-.3367875c.1696179-.1381693.3115098-.2936097.4256757-.4663213s.2006058-.3488774.2593197-.5284974l-.4207829-.26943c-.110904.2625215-.2821528.4818652-.5137465.658031-.2315936.1761658-.5365797.2642487-.914958.2642487-.4305685 0-.7730662-.1468048-1.0274931-.4404145-.2544268-.2936096-.3816402-.7098445-.3816402-1.2487046v-.3316062h3.3662628v-.2797928c0-.3799654-.0521901-.7253886-.1565704-1.0362694-.1043802-.3108808-.2527959-.5768567-.4452469-.7979275-.1924511-.2210708-.4256757-.3920552-.6996738-.5129533-.2739982-.1208981-.583877-.1813472-.9296366-.1813472-.3392358 0-.6507456.0673575-.9345293.2020725-.2837838.1347151-.528425.3246978-.7339236.5699482-.2054986.2452505-.3653309.5405872-.4794968.8860104-.1141658.3454231-.1712488.7322971-.1712488 1.1606218 0 .4214162.0538211.8048359.1614632 1.150259.1076421.3454232.2625815.6424871.4648183.8911917.2022367.2487047.4501398.4404145.7437092.5751296.2935694.134715.6295433.2020725 1.0079217.2020725zm1.0372787-3.3782383h-2.2311277v-.1347151c0-.4974093.0978565-.8791019.2935694-1.1450777.195713-.2659758.4762349-.3989637.8415657-.3989637.3718546 0 .6474837.1364421.8268872.4093264.1794036.2728843.2691054.6580311.2691054 1.1554404z" fill="#798999"/></g></g></g></svg>