<svg height="120" viewBox="0 0 105 120" width="105" xmlns="http://www.w3.org/2000/svg" xmlns:xlink="http://www.w3.org/1999/xlink"><defs><ellipse id="a" cx="36.5" cy="45" rx="36.5" ry="37"/><filter id="b" height="221.6%" width="216.4%" x="-58.2%" y="-30.4%"><feMorphology in="SourceAlpha" operator="erode" radius="5" result="shadowSpreadOuter1"/><feOffset dx="0" dy="25" in="shadowSpreadOuter1" result="shadowOffsetOuter1"/><feGaussianBlur in="shadowOffsetOuter1" result="shadowBlurOuter1" stdDeviation="15"/><feColorMatrix in="shadowBlurOuter1" type="matrix" values="0 0 0 0 0.768627451   0 0 0 0 0.682352941   0 0 0 0 0.890196078  0 0 0 1 0"/></filter><linearGradient id="c" x1="50%" x2="50%" y1="0%" y2="100%"><stop offset="0" stop-color="#702dfe"/><stop offset="1" stop-color="#ef8877"/></linearGradient></defs><g fill="none" fill-rule="evenodd"><path d="m0 0h105v120h-105z" fill="#fff"/><path d="m0 0h105v120h-105z" fill="#fff"/><g transform="translate(12 16)"><use fill="#000" filter="url(#b)" xlink:href="#a"/><use fill="#e8ecf0" fill-rule="evenodd" xlink:href="#a"/><g fill-rule="nonzero"><path d="m35.1884817 0c25.2981277 0 45.8115183 20.1441557 45.8115183 44.999909 0 24.8557822-20.5134202 45.000091-45.8115183 45.000091-2.3132346 0-4.1884817-1.8473065-4.1884817-4.1260745 0-2.2516398 1.8308641-4.0820299 4.1060548-4.1252915l.0824269-.000783c20.6775176 0 37.4345549-16.455517 37.4345549-36.747942 0-20.0894608-16.4235319-36.4182688-36.8154172-36.74283601l-.6191377-.00492399c-2.3132346 0-4.1884817-1.84730648-4.1884817-4.1260745s1.8752471-4.1260745 4.1884817-4.1260745z" fill="url(#c)"/><path d="m25.8967021 55c.7956755 0 1.4859635-.1506346 2.070864-.4519038s1.0341146-.7250056 1.3476424-1.2712091.4702916-1.1646627.4702916-1.8553774c0-1.1364952-.310893-2.0207081-.9326792-2.6526386-.6217861-.6319306-1.4806941-.9478958-2.5767239-.9478958-.6112474 0-1.1882438.1347139-1.7309893.4041416l.2845462-2.2999332h4.5764513v-1.7708751h-6.4497138l-.6639411 5.4375418 1.817934.4188376.2213137-.1910487c.3372399-.2645291.7772327-.3967936 1.3199782-.3967936.5901699 0 1.0459708.1616566 1.3674026.4849699s.4821477.7886885.4821477 1.3961256c0 .6319305-.1396384 1.1205745-.4189152 1.4659319-.2792769.3453574-.6771146.5180361-1.1935133.5180361-.4637049 0-.8391478-.1236919-1.1263287-.3710755-.2871808-.2473837-.4544835-.5939657-.5019078-1.0397462h-2.2605615c.0210775.6074371.2041882 1.1487419.5493322 1.6239145s.8154357.8437987 1.4108749 1.1058784c.5954393.2620797 1.2409376.3931196 1.936495.3931196zm8.7181793-.1469606 4.4499864-9.50835v-1.1903808h-8.1253748v1.7194389h5.7225403l-4.4578905 8.9792919zm8.3862088-5.8784235c.7429818 0 1.3436904-.2008461 1.8021259-.6025384.4584356-.4016923.6876533-.9331997.6876533-1.5945224v-.5290581c0-.6907148-.2292177-1.238143-.6876533-1.6422846-.4584355-.4041416-1.0644135-.6062124-1.817934-.6062124-.7429817 0-1.3436904.2045202-1.8021259.6135605-.4584356.4090403-.6876533.9417724-.6876533 1.5981963v.5217101c0 .6858161.2305351 1.230795.6916053 1.6349366s1.0657309.6062124 1.813982.6062124zm.4505315 5.0774883 5.6197874-8.3620574-1.1144726-.5584503-5.6197874 8.3620575zm-.4505315-6.2972612c-.2950849 0-.5335241-.089401-.7153175-.2682031-.1817934-.178802-.2726901-.4151636-.2726901-.7090848v-.5364061c0-.3184146.0895793-.567023.2687381-.745825.1791587-.1788021.4136458-.2682031.7034614-.2682031.3056237 0 .5453802.0906257.7192695.2718771.1738894.1812514.2608341.4188377.2608341.7127588v.5437542c0 .3037186-.0869447.5462035-.2608341.7274549-.1738893.1812514-.4083764.2718771-.7034614.2718771zm5.5091306 7.245157c.7535205 0 1.3568638-.2020708 1.8100299-.6062124.4531662-.4041416.6797493-.9344244.6797493-1.5908484v-.5290581c0-.7005121-.2305351-1.2503897-.6916053-1.6496326-.4610703-.3992429-1.0657309-.5988644-1.8139821-.5988644-.7377123 0-1.338421.2020708-1.8021259.6062124s-.6955573.9368738-.6955573 1.5981964v.5437542c0 .67112.2292177 1.2099755.6876533 1.6165665.4584355.4065909 1.0670482.6098864 1.8258381.6098864zm0-1.2197729c-.2845462 0-.5216681-.0955244-.7113655-.2865731-.1896975-.1910488-.2845462-.421287-.2845462-.6907148v-.5511022c0-.3086172.0895793-.5523269.2687381-.7311289.1791587-.1788021.4162805-.2682031.7113654-.2682031.295085 0 .5322068.089401.7113655.2682031.1791588.178802.2687381.4151636.2687381.7090848v.5584503c0 .6613226-.3214318.9919839-.9642954.9919839z" fill="#304254"/></g></g><text fill="#798999" font-family="IBMPlexSerif-Medium, IBM Plex Serif" font-size="7" font-weight="400"><tspan x="40.3385" y="54">Goal</tspan></text></g></svg>