<svg height="120" viewBox="0 0 105 120" width="105" xmlns="http://www.w3.org/2000/svg" xmlns:xlink="http://www.w3.org/1999/xlink"><defs><path id="a" d="m75.382096 37.7205245c0 20.8325027-16.8749236 37.720652-37.6909843 37.720652-20.8161881 0-37.6911117-16.8881493-37.6911117-37.720652s16.8749236-37.7205245 37.6911117-37.7205245c20.8160607 0 37.6909843 16.8880218 37.6909843 37.7205245"/><filter id="b" height="343.9%" width="344.1%" x="-122%" y="-112.7%"><feMorphology in="SourceAlpha" operator="dilate" radius="18.5" result="shadowSpreadOuter1"/><feOffset dx="0" dy="7" in="shadowSpreadOuter1" result="shadowOffsetOuter1"/><feGaussianBlur in="shadowOffsetOuter1" result="shadowBlurOuter1" stdDeviation="11"/><feColorMatrix in="shadowBlurOuter1" type="matrix" values="0 0 0 0 0.758803216   0 0 0 0 0.758803216   0 0 0 0 0.758803216  0 0 0 1 0"/></filter><linearGradient id="c" x1="0%" x2="64.072719%" y1="35.149119%" y2="58.616622%"><stop offset="0" stop-color="#fa8d70"/><stop offset="1" stop-color="#ff582c"/></linearGradient><mask id="d" fill="#fff"><use fill="#fff" fill-rule="evenodd" xlink:href="#a"/></mask></defs><g fill="none" fill-rule="evenodd"><path d="m0 0h105v120h-105z" fill="#fff"/><path d="m0 0h105v120h-105z" fill="#fff"/><g transform="translate(14 13)"><g transform="translate(.37837)"><use fill="#000" filter="url(#b)" xlink:href="#a"/><use fill="#f6f6f6" fill-rule="evenodd" xlink:href="#a"/><path d="m37.691048-5.50639818.1474171 40.75157278-39.97119226 62.0170467 188.56861916-83.7643503z" fill="url(#c)" mask="url(#d)"/></g><path d="m26.9870527 44.6971779c.7003119 0 1.3347825-.1900464 1.9034118-.5701392.5686293-.3800929 1.0085688-.9038086 1.3198185-1.5711472s.4668746-1.4043125.4668746-2.2109217c0-1.247633-.342674-2.2515424-1.0280219-3.0117281-.685348-.7601857-1.6026368-1.1402785-2.7518666-1.1402785-.7841099 0-1.5053712.175539-2.1637841.5266172-.6584129.3510781-1.1612009.8254688-1.5083641 1.423172.0778125-1.8975627.6224995-3.3715106 1.6340611-4.4218435s2.4331349-1.5754993 4.2647198-1.5754993v-.4700385c-2.0710078 0-3.6541915.620915-4.7495511 1.8627451-1.0953596 1.24183-1.6430394 2.9885163-1.6430394 5.2400586v1.5580905c.0119711.8530328.2005166 1.6132185.5656365 2.2805571s.8709007 1.1808992 1.5173424 1.5406817c.6464417.3597826 1.3706959.5396738 2.1727625.5396738zm0-.461334c-1.1133163 0-2.0201304-.368487-2.7204423-1.1054609s-1.0504678-1.7031641-1.0504678-2.8985706v-1.1141653c.1795671-.7021563.6180102-1.2868029 1.3153293-1.7539399s1.4649687-.7007056 2.3029487-.7007056c1.0414895 0 1.8615128.3322186 2.46007.9966557.5985571.6644371.8978357 1.5595413.8978357 2.6853125 0 1.0909535-.3022714 2.0121709-.9068141 2.7636522-.6045427.7514812-1.3706959 1.1272219-2.2984595 1.1272219zm10.172479.461334c1.1851432 0 2.09495-.3583318 2.7294206-1.0749954s.9517059-1.7626443.9517059-3.1379421c0-1.1838006-.3501559-2.1354835-1.0504678-2.8550485-.7003119-.7195651-1.6370538-1.0793477-2.8102259-1.0793477-.4908169 0-.9921085.0783398-1.5038748.2350193-.5117664.1566795-.9232745.3597825-1.2345242.6093091l.5297231-5.0833791h5.9346943v-.4613341h-6.3746338l-.6105283 6.040865.3681126.1392706c.3711055-.3481766.7900955-.6035062 1.2569701-.7659886.4668746-.1624825 1.0145544-.2437237 1.6430394-.2437237 1.0235327 0 1.8390669.3162605 2.4466024.9487814s.9113033 1.4768493.9113033 2.5329852c0 1.2244212-.2618688 2.1514415-.7856063 2.781061-.5237375.6296194-1.3243077.9444292-2.4017106.9444292-1.0115616 0-1.8046499-.2582311-2.3792648-.7746931-.5746148-.516462-.9098068-1.2708448-1.005576-2.2631483h-.4938096c.0897835 1.0967565.4788457 1.9555923 1.1671864 2.5765073.6883408.620915 1.5921621.9313725 2.711464.9313725zm8.0356299-7.1376214c.6943263 0 1.2704375-.2495266 1.7283338-.7485798.4578962-.4990532.6868443-1.1170667.6868443-1.8540407v-.6267179c0-.7717916-.2304445-1.4086647-.6913335-1.9106194s-1.0414895-.752932-1.7418013-.752932c-.6943264 0-1.2749268.2495266-1.7418014.7485798s-.7003119 1.1228697-.7003119 1.8714495v.6180135c0 .7833975.2349337 1.4217214.7048011 1.9149716.4698674.4932503 1.054957.7398754 1.7552689.7398754zm0-.4787429c-.5985572 0-1.0759065-.203103-1.432048-.6093091s-.5342123-.9110623-.5342123-1.5145685v-.6093091c0-.6673386.1825599-1.2012095.5476798-1.6016126.3651199-.4004032.8319945-.6006047 1.4006238-.6006047.5806004 0 1.0489714.2002015 1.4051129.6006047.3561415.4004031.5342123.9139637.5342123 1.5406817v.626718c0 .6441268-.1765744 1.1663918-.5297231 1.5667949-.3531488.4004032-.8170306.6006047-1.3916454.6006047zm.3052641 6.3019975 6.3836122-9.9056258-.4040261-.2698369-6.3836122 9.9056258zm6.4733957 1.3230713c.6883408 0 1.264452-.2480759 1.7283338-.7442276.4638818-.4961518.6958227-1.1185175.6958227-1.8670974v-.6180135c0-.7892004-.2319409-1.4318765-.6958227-1.9280282-.4638818-.4961518-1.0459786-.7442276-1.7462905-.7442276-.6943263 0-1.2734303.2480758-1.7373121.7442276-.4638818.4961517-.6958227 1.1185175-.6958227 1.8670973v.6354224c0 .7833974.2349336 1.4217213.704801 1.9149716.4698674.4932502 1.0519642.7398754 1.7462905.7398754zm0-.4787429c-.5925716 0-1.0669281-.2002016-1.4230696-.6006048-.3561415-.4004031-.5342123-.9110622-.5342123-1.5319773v-.6441268c0-.6615356.175078-1.1881528.5252339-1.5798515.350156-.3916988.8215197-.5875481 1.4140913-.5875481.5985572 0 1.0729137.1914971 1.4230697.5744914.3501559.3829944.5252339.9023579.5252339 1.5580906v.6354224c0 .6441268-.175078 1.1678425-.5252339 1.5711471-.350156.4033046-.8185269.604957-1.405113.604957z" fill="#000" fill-rule="nonzero"/></g><text fill="#383838" font-family="Barlow-Bold, Barlow" font-size="13" font-weight="bold"><tspan x="39.474" y="108">Title</tspan></text></g></svg>