<svg height="120" viewBox="0 0 105 120" width="105" xmlns="http://www.w3.org/2000/svg" xmlns:xlink="http://www.w3.org/1999/xlink"><linearGradient id="a" x1="32.489089%" x2="68.01964%" y1="-17.123226%" y2="98.253415%"><stop offset="0" stop-color="#e390f7"/><stop offset="1" stop-color="#c8d7ff"/></linearGradient><mask id="b" fill="#fff"><path d="m0 60.6422475 34.2767261-21.0755164v-39.5667311h46.7232739v81h-81z" fill="#fff" fill-rule="evenodd"/></mask><g fill="none" fill-rule="evenodd"><path d="m0 0h105v120h-105z" fill="#fff"/><g transform="translate(12 10)"><circle cx="41.594595" cy="39.405405" r="27.148649" stroke="#f6f6f6" stroke-width="7"/><circle cx="41.594595" cy="39.405405" mask="url(#b)" r="27.148649" stroke="url(#a)" stroke-width="7"/><g fill="#000" fill-rule="nonzero"><path d="m31.3755279 45.4142736c.9235642 0 1.7031778-.1909839 2.3388408-.5729518s1.1116976-.8893581 1.4281039-1.5221706c.3164062-.6328125.4746093-1.3254857.4746093-2.0780194 0-.8779561-.1496516-1.6304899-.4489548-2.2576014s-.7340055-1.1059966-1.3041068-1.4366554c-.5701014-.3306588-1.2570735-.4959882-2.0609164-.4959882-.3648649 0-.7126267.0484586-1.0432855.1453759-.3306588.0969172-.5986064.2052365-.8038429.3249577l.2993032-2.6082136h4.9427787v-2.1207771h-7.0550042l-.7268792 6.3366765 2.0523649.5045397c.1995354-.2052364.4204497-.3677153.6627428-.4874366.242293-.1197213.5629751-.1795819.962046-.1795819.6499155 0 1.1359269.1867082 1.4580342.5601245.3221073.3734164.4831609.8907834.4831609 1.552101 0 .6784206-.1339738 1.2242926-.4019214 1.6376161-.2679477.4133235-.6898227.6199852-1.265625.6199852-.4788852 0-.8679794-.1411001-1.1672826-.4233002-.2993032-.2822002-.4717588-.6712944-.5173669-1.1672825h-2.5654561c.011402.7411317.2180637 1.389622.6199852 1.9454708.4019214.5558488.9249894.9819996 1.569204 1.2784523.6442145.2964527 1.3340371.444679 2.0694679.444679zm9.7572846 0c.855152 0 1.6205131-.1453758 2.2960832-.4361275s1.2071896-.7126267 1.5948585-1.265625.5815034-1.2086149.5815034-1.9668496c0-.6955237-.1767314-1.2912796-.5301943-1.7872678-.3534628-.4959882-.8694045-.866554-1.5478251-1.1116976.5929054-.2736487 1.0561127-.6499156 1.389622-1.1288007s.500264-.9948269.500264-1.5478252c0-.7639358-.1781567-1.4124261-.5344701-1.9454708-.3563133-.5330448-.8565772-.9349662-1.5007918-1.2057644-.6442145-.2707981-1.3938978-.4061972-2.2490498-.4061972-.7525338 0-1.4423564.1396748-2.0694679.4190245s-1.1245249.6769954-1.4922403 1.1929371-.5515731 1.1102724-.5515731 1.782992h2.5825592c0-.2622467.0726879-.4931377.2180637-.6926732.1453759-.1995355.3406356-.3534628.5857792-.4617821.2451436-.1083192.5102407-.1624789.7952914-.1624789.5358952 0 .9420924.1411001 1.2185916.4233003s.4147487.6484903.4147487 1.0988703c0 .5187923-.1510768.9264147-.4532305 1.2228674-.3021538.2964527-.7439823.4446791-1.3254857.4446791h-1.3340371v2.0096073h1.3340371c1.3169341 0 1.9754012.6043074 1.9754012 1.8129223 0 .3192567-.0726879.6014569-.2180638.8466005-.1453758.2451435-.3563133.4375527-.6328125.5772276-.2764991.1396748-.6028821.2095122-.979149.2095122-.3306588 0-.629962-.0655616-.8979097-.1966849-.2679476-.1311234-.4788851-.3135558-.6328125-.5472973-.1539273-.2337416-.230891-.4931377-.230891-.7781884h-2.5825591c0 .7867399.2023859 1.450908.6071579 1.9925042.404772.5415963.933541.944943 1.586307 1.2100402.6527661.2650971 1.3468645.3976456 2.0822952.3976456zm8.8251689-7.0122466c.5758024 0 1.0675148-.1140202 1.4751373-.3420608.4076224-.2280405.7140519-.5358953.9192884-.9235642s.3078547-.8180954.3078547-1.2912795v-.6584671c0-.4788851-.1040435-.9135874-.3121305-1.3041068-.208087-.3905195-.5159417-.6997994-.9235642-.92784-.4076224-.2280405-.9021853-.3420608-1.4836887-.3420608-.5701014 0-1.0603885.1140203-1.4708615.3420608-.410473.2280406-.7211782.5373205-.9321157.92784-.2109375.3905194-.3164063.8252217-.3164063 1.3041068v.6584671c0 .4731841.1054688.9036106.3164063 1.2912795s.523068.6955237.9363915.9235642c.4133234.2280406.9078864.3420608 1.4836887.3420608zm.5045397 5.9091005 6.0801309-9.73163-1.2485219-.6584671-6.0801309 9.7316301zm-.5045397-7.3885135c-.3306588 0-.5857791-.1040435-.765361-.3121305-.179582-.208087-.2693729-.4632073-.2693729-.765361v-.6584671c0-.3078547.0883657-.5672508.2650971-.7781883s.427576-.3164063.7525338-.3164063c.3306588 0 .5843539.1054688.7610853.3164063s.2650971.4703336.2650971.7781883v.6584671c0 .3021537-.0869404.557274-.2608214.765361-.1738809.208087-.4233002.3121305-.748258.3121305zm5.9433066 8.4916596c.5758024 0 1.06894-.1140202 1.479413-.3420608.410473-.2280405.7183277-.5358952.9235642-.9235642.2052365-.3876689.3078547-.8209459.3078547-1.299831v-.6584671c0-.4788851-.1040435-.9121622-.3121305-1.2998311s-.5173669-.6955236-.9278399-.9235642c-.410473-.2280405-.9064612-.3420608-1.4879645-.3420608-.5701014 0-1.0603885.1140203-1.4708615.3420608-.410473.2280406-.7211782.5373206-.9321157.92784s-.3164063.8223712-.3164063 1.2955553v.6584671c0 .4788851.1054688.9121621.3164063 1.299831.2109375.387669.523068.6955237.9363914.9235642.4133235.2280406.9078864.3420608 1.4836888.3420608zm0-1.479413c-.3021537 0-.5501478-.106894-.7439823-.320682-.1938344-.213788-.2907516-.4689083-.2907516-.765361v-.6584671c0-.3078547.0883657-.5658256.2650971-.7739126s.427576-.3121305.7525338-.3121305c.3306588 0 .5843539.1040435.7610853.3121305s.2650971.4660579.2650971.7739126v.6584671c0 .3306588-.0741132.5943306-.2223395.7910156-.1482264.196685-.410473.2950274-.7867399.2950274z"/><path d="m30.516 92v-1.056h-1.52v-8.96h2.08v1.824h1.856v-2.976h-10.464v2.976h1.856v-1.824h2.08v8.96h-1.52v1.056zm5.616-9.488c.448 0 .7973333-.1226667 1.048-.368s.376-.576.376-.992v-.08c0-.416-.1253333-.7466667-.376-.992s-.6-.368-1.048-.368-.7973333.1226667-1.048.368-.376.576-.376.992v.08c0 .416.1253333.7466667.376.992s.6.368 1.048.368zm2.192 9.488v-1.056h-.96v-7.52l-3.392.688v.912l.96.208v5.712h-.96v1.056zm3.728.16c.5546667 0 1.0506667-.032 1.488-.096s.7413333-.1333333.912-.208v-.944h-1.84v-6.176h1.84v-1.12h-1.84v-2.32h-1.2l-.672 1.392c-.1493333.3093333-.3066667.5413333-.472.696s-.424.232-.776.232h-.432v1.12h1.12v5.744c0 .5546667.152.9733333.456 1.256s.776.424 1.416.424zm7.44-.16v-1.056h-.96v-11.104l-3.392.688v.912l.96.208v9.296h-.96v1.056zm5.136.192c.5226667 0 .9866667-.0746667 1.392-.224s.752-.3386667 1.04-.568.5226667-.4826667.704-.76.32-.5493333.416-.816l-.88-.528c-.1493333.3733333-.4.6906667-.752.952s-.816.392-1.392.392c-.6186667 0-1.1146667-.1813333-1.488-.544s-.56-.9013333-.56-1.616v-.64h5.264v-.544c0-.5866667-.0906667-1.12-.272-1.6s-.44-.888-.776-1.224-.744-.5946667-1.224-.776-1.0186667-.272-1.616-.272-1.1386667.1013333-1.624.304-.9013333.4906667-1.248.864-.6133333.832-.8 1.376-.28 1.152-.28 1.824c0 .64.0906667 1.2293333.272 1.768s.4453333 1.0026667.792 1.392.7733333.6933333 1.28.912 1.0906667.328 1.752.328zm1.232-5.36h-2.752v-.224c0-.768.1226667-1.3066667.368-1.616s.5813333-.464 1.008-.464.7626667.1546667 1.008.464.368.848.368 1.616z"/></g></g></g></svg>