<svg height="120" viewBox="0 0 105 120" width="105" xmlns="http://www.w3.org/2000/svg" xmlns:xlink="http://www.w3.org/1999/xlink"><defs><linearGradient id="a" x1="50%" x2="50%" y1="0%" y2="100%"><stop offset="0" stop-color="#83a4f5"/><stop offset="1" stop-color="#1e40c9"/></linearGradient><path id="b" d="m27.2612137 0c19.5405806 0 35.4183961 15.7238611 35.7339983 35.2407633l.004788.59257h-16.6226913c0-10.4796051-8.3882692-18.9948421-18.7999759-19.1640988l-.3161191-.0025678z"/><filter id="c" height="139.1%" width="139.2%" x="-19.6%" y="-14%"><feOffset dx="0" dy="2" in="SourceAlpha" result="shadowOffsetOuter1"/><feGaussianBlur in="shadowOffsetOuter1" result="shadowBlurOuter1" stdDeviation="2"/><feColorMatrix in="shadowBlurOuter1" type="matrix" values="0 0 0 0 0   0 0 0 0 0   0 0 0 0 0  0 0 0 0.5 0"/></filter></defs><g fill="none" fill-rule="evenodd"><path d="m0 0h105v120h-105z" fill="#fff"/><g transform="translate(21 10)"><g fill-rule="nonzero"><path d="m27.1780173 8.5c-15.0100063 0-27.1780173 12.2002509-27.1780173 27.25s12.168011 27.25 27.1780173 27.25c15.0100212 0 27.1781832-12.2002659 27.1781832-27.25s-12.168162-27.25-27.1781832-27.25zm0 13.3333333c7.6656753 0 13.8800302 6.2307506 13.8800302 13.9166667s-6.2143549 13.9166667-13.8800302 13.9166667c-7.6656271 0-13.8798643-6.2307022-13.8798643-13.9166667s6.2142372-13.9166667 13.8798643-13.9166667z" fill="#d7eefc"/><use fill="#000" filter="url(#c)" xlink:href="#b"/><use fill="url(#a)" xlink:href="#b"/></g><path d="m17.9177719 87.9822647c.841733 0 1.6184792-.133015 2.3302387-.3990451.7117595-.26603 1.2811671-.6680309 1.7082228-1.2060027s.6405836-1.1912233.6405836-1.9597544c0-.9222374-.3373121-1.6819009-1.0119364-2.2789905-.6746242-.5970896-1.5999115-.9606639-2.775862-1.090723 1.0645446-.319236 1.8381963-.7389723 2.3209549-1.2592088.4827586-.5202364.7241379-1.0877671.7241379-1.702592 0-1.0522965-.3527851-1.8296954-1.0583554-2.3321965s-1.6030062-.7537517-2.6923077-.7537517c-.7922193 0-1.4761273.1389268-2.0517242.4167804-.5755968.2778535-1.0088417.6148249-1.2997347 1.010914s-.4363395.771487-.4363395 1.1261937c0 .2601183.0742705.4758982.2228116.6473397.1485412.1714416.3527852.2571624.6127321.2571624.2723254 0 .4765694-.0827649.6127321-.2482947s.2042441-.3369714.2042441-.5143247c0-.2837653-.0990274-.5261482-.2970823-.7271487.1114059-.319236.3713528-.611869.7798409-.877899.408488-.2660301.872679-.3990451 1.3925729-.3990451.8045977 0 1.3740053.2246476 1.7082228.6739427.3342175.4492952.5013263 1.0700319.5013263 1.8622101 0 .3665303-.086649.7448841-.259947 1.1350614-.1732979.3901774-.4518125.7182811-.8355437.9843111s-.8788683.399045-1.4854112.399045h-.7612732v.79809c.4208665-.0236471.6931919-.0354706.8169762-.0354706 1.1883289 0 2.0114942.2778535 2.469496.8335607.4580017.5557071.6870026 1.2887676.6870026 2.1991814 0 .8631196-.2599469 1.5281947-.7798408 1.9952251-.5198939.4670305-1.2254642.7005457-2.1167109.7005457-.5570292 0-1.045977-.0945884-1.4668435-.2837653s-.6870026-.4729423-.7984085-.8512961c.1361627-.2837653.2042441-.5202364.2042441-.7094133s-.0649868-.3694862-.1949603-.5409277c-.1299734-.1714416-.3373121-.2571624-.6220159-.2571624s-.5075154.0916326-.668435.2748977c-.1609195.1832651-.2413793.4167804-.2413793.7005457 0 .3783538.1485411.7507958.4456233 1.1173261.2970823.3665302.739611.6739427 1.3275862.9222373.5879753.2482947 1.3028294.3724421 2.1445624.3724421zm14.5013262-.2837654.1114059-2.4829468h-.5570292c0 .4965894-.1609195.827649-.4827586.9931787-.3218391.1655298-.8231654.2482947-1.5039788.2482947-.4703802 0-.841733-.0059118-1.1140584-.0177353l-3.2864721-.0886767c.086649-.4020009.393015-.8926785.9190981-1.4720327.5260832-.5793543 1.2223696-1.2119145 2.0888595-1.8976808 1.2749779-.9931787 2.2002652-1.8799454 2.775862-2.6603001s.8633953-1.4838563.8633953-2.1105048c0-1.1114143-.3713528-1.9242838-1.1140584-2.4386085s-1.6710875-.771487-2.7851459-.771487c-.8045977 0-1.5008842.1389268-2.0888594.4167804-.5879753.2778535-1.0335986.6177808-1.33687 1.0197817-.3032715.4020009-.4549072.7862665-.4549072 1.1527967 0 .2837653.0804598.5172806.2413793.7005457.1609196.1832651.377542.2748977.6498674.2748977.2847038 0 .5013262-.0886767.6498674-.26603.1485411-.1773534.2228116-.3665303.2228116-.5675307 0-.2955889-.1114058-.5557072-.3342175-.7803547.1361627-.3665303.4022989-.668031.7984085-.9045021.3961097-.2364711.8479222-.3547067 1.3554377-.3547067.8169761 0 1.4018567.2630742 1.7546419.7892224.3527851.5261483.5291777 1.1793997.5291777 1.9597544 0 .5911779-.1825818 1.200091-.5477454 1.8267395-.3651635.6266484-.9438549 1.3005911-1.7360742 2.0218281-.0123784.0118235-.259947.2305593-.7427056.6562073-.6931919.614825-1.2254642 1.1261938-1.596817 1.5341065-.3713528.4079126-.683908.877899-.9376658 1.409959-.2537577.5320601-.3806366 1.1350614-.3806366 1.8090041zm5.1061008-5.941337c.6189213 0 1.188329-.1625739 1.7082229-.4877216.5198938-.3251478.9345711-.7567076 1.2440318-1.2946794.3094606-.5379719.464191-1.1084584.464191-1.7114598 0-.5557071-.1237843-1.0848113-.3713528-1.5873124-.2475685-.5025012-.6220159-.9074579-1.1233422-1.2148704s-1.1047745-.4611187-1.8103448-.4611187c-.7179487 0-1.3399647.1625739-1.8660478.4877217s-.9252873.7537517-1.1976127 1.2858117c-.2723254.5320601-.4084881 1.0877672-.4084881 1.6671214 0 .5793543.1299735 1.1232379.3899205 1.6316508.2599469.5084129.6436781.9163256 1.1511936 1.2237381.5075155.3074124 1.1140583.4611186 1.8196286.4611186zm-.9655172 6.2428377 10.5278515-12.2905866-.8355438-.7094134-10.4721486 12.3792633zm1.0212202-6.952251c-.6560566 0-1.1233422-.3015007-1.4018568-.9045021-.2785146-.6030013-.4177719-1.2710323-.4177719-2.0040927 0-.5911778.1423519-1.1587085.4270557-1.7025921s.7365164-.8158254 1.3554377-.8158254c.6312997 0 1.0893015.3015007 1.3740053.904502.2847038.6030014.4270557 1.2769441.4270557 2.0218281 0 .6621192-.1392573 1.2444293-.4177719 1.7469305-.2785146.5025011-.7272325.7537517-1.3461538.7537517zm7.9840848 6.9345157c.7055703 0 1.3183024-.1655298 1.8381963-.4965894s.9160036-.7626194 1.1883289-1.2946794c.2723254-.53206.4084881-1.0818554.4084881-1.6493861 0-.5793542-.1299735-1.1232378-.3899204-1.6316507-.259947-.5084129-.6436782-.9163256-1.1511937-1.2237381-.5075154-.3074125-1.1140583-.4611187-1.8196286-.4611187-.6189213 0-1.1914235.1625739-1.7175066.4877217s-.943855.7537517-1.2533157 1.2858117c-.3094606.5320601-.464191 1.0995908-.464191 1.7025921 0 .5557072.1268789 1.0848113.3806366 1.5873124.2537578.5025012.6343944.9104139 1.1419099 1.2237381.5075154.3133242 1.1202475.4699864 1.8381962.4699864zm.0928382-.6384721c-.6189213 0-1.0800176-.3074124-1.3832891-.9222373-.3032714-.614825-.4549072-1.2828559-.4549072-2.0040928 0-.6621192.1392573-1.2444293.4177719-1.7469304.2785146-.5025012.7272326-.7537517 1.3461539-.7537517.6560566 0 1.1233422.3015006 1.4018567.904502.2785146.6030014.4177719 1.2710323.4177719 2.0040928 0 .6030013-.1361627 1.1734879-.408488 1.7114597-.2723254.5379718-.7179488.8069577-1.3368701.8069577z" fill="#2e51d1" fill-rule="nonzero"/><text fill="#161b2e" font-family="Luxia-Regular, Luxia" font-size="7"><tspan x="25" y="98">Title</tspan></text></g></g></svg>