<svg xmlns="http://www.w3.org/2000/svg" width="113" height="79"><g fill="none" fill-rule="evenodd"><g fill="#D8D8D8" transform="translate(36.8 37)"><ellipse cx="1" cy="1.125" rx="1" ry="1.125"/><ellipse cx="1" cy="7.875" rx="1" ry="1.125"/></g><g fill="#D8D8D8" transform="translate(73 37)"><ellipse cx="1" cy="1.125" rx="1" ry="1.125"/><ellipse cx="1" cy="7.875" rx="1" ry="1.125"/></g><path fill="#F2F3F7" d="M34 39.5C34 46.403 28.403 52 21.5 52 14.596 52 9 46.403 9 39.5 9 32.596 14.596 27 21.5 27 28.403 27 34 32.596 34 39.5"/><path stroke="#D6D9DD" d="M21.5 27C28.403 27 34 32.596 34 39.5 34 46.403 28.403 52 21.5 52 14.596 52 9 46.403 9 39.5"/><g fill="#D6D9DD" transform="translate(14 36)"><rect width="11.733" height="3" x="2.133" rx="1.5"/><rect width="16" height="1" y="6" rx=".5"/></g><g><path fill="#F2F3F7" d="M69 39.5C69 46.403 63.403 52 56.5 52 49.596 52 44 46.403 44 39.5 44 32.596 49.596 27 56.5 27 63.403 27 69 32.596 69 39.5"/><path stroke="#D6D9DD" d="M56.5 27C63.403 27 69 32.596 69 39.5 69 46.403 63.403 52 56.5 52"/><g fill="#D6D9DD" transform="translate(49 36)"><rect width="11.733" height="3" x="2.133" rx="1.5"/><rect width="16" height="1" y="6" rx=".5"/></g></g><g><path fill="#F2F3F7" d="M104 39.5c0 6.903-5.597 12.5-12.5 12.5C84.596 52 79 46.403 79 39.5 79 32.596 84.596 27 91.5 27c6.903 0 12.5 5.596 12.5 12.5"/><path stroke="#D6D9DD" d="M91.5 27c6.903 0 12.5 5.596 12.5 12.5"/><g fill="#D6D9DD" transform="translate(84 36)"><rect width="11.733" height="3" x="2.133" rx="1.5"/><rect width="16" height="1" y="6" rx=".5"/></g></g><rect width="112" height="78" x=".5" y=".5" stroke="#FFF" stroke-opacity=".099" rx="3"/></g></svg>