<?xml version="1.0" encoding="UTF-8"?>
<svg width="113px" height="79px" viewBox="0 0 113 79" version="1.1" xmlns="http://www.w3.org/2000/svg" xmlns:xlink="http://www.w3.org/1999/xlink">
    <!-- Generator: Sketch 62 (91390) - https://sketch.com -->
    <title>layout2</title>
    <desc>Created with Sketch.</desc>
    <g id="Page-1" stroke="none" stroke-width="1" fill="none" fill-rule="evenodd">
        <g id="Desktop-HD" transform="translate(-1576.000000, -100.000000)">
            <g id="layout2" transform="translate(1576.000000, 100.000000)">
                <g id="Group-56" transform="translate(9.000000, 27.000000)">
                    <g id="Group-26" transform="translate(27.800000, 10.000000)" fill="#D8D8D8">
                        <ellipse id="Oval" cx="1" cy="1.125" rx="1" ry="1.125"></ellipse>
                        <ellipse id="Oval" cx="1" cy="7.875" rx="1" ry="1.125"></ellipse>
                    </g>
                    <g id="Group-26" transform="translate(64.000000, 10.000000)" fill="#D8D8D8">
                        <ellipse id="Oval" cx="1" cy="1.125" rx="1" ry="1.125"></ellipse>
                        <ellipse id="Oval" cx="1" cy="7.875" rx="1" ry="1.125"></ellipse>
                    </g>
                    <g id="Group-44">
                        <g id="Group-5">
                            <path d="M25,12.5 C25,19.4034185 19.4033696,25 12.4998908,25 C5.59641201,25 0,19.4034185 0,12.5 C0,5.59636313 5.59641201,0 12.4998908,0 C19.4033696,0 25,5.59636313 25,12.5" id="Fill-1" fill="#F2F3F7"></path>
                            <path d="M12.4998908,0 C19.4033696,0 25,5.59641201 25,12.5001092 C25,19.4033696 19.4033696,25 12.4998908,25 C5.59641201,25 0,19.4033696 0,12.5001092" id="Stroke-3" stroke="#D6D9DD"></path>
                        </g>
                        <g id="Group-32" transform="translate(5.000000, 9.000000)" fill="#D6D9DD">
                            <rect id="Rectangle-Copy-8" x="2.13333333" y="0" width="11.7333333" height="3" rx="1.5"></rect>
                            <rect id="Rectangle" x="0" y="6" width="16" height="1" rx="0.5"></rect>
                        </g>
                    </g>
                    <g id="Group-44" transform="translate(35.000000, 0.000000)">
                        <g id="Group-5">
                            <path d="M25,12.5 C25,19.4034185 19.4033696,25 12.4998908,25 C5.59641201,25 0,19.4034185 0,12.5 C0,5.59636313 5.59641201,0 12.4998908,0 C19.4033696,0 25,5.59636313 25,12.5" id="Fill-1" fill="#F2F3F7"></path>
                            <path d="M12.4998908,0 C19.4033696,0 25,5.59641201 25,12.5001092 C25,19.4033696 19.4033696,25 12.4998908,25" id="Stroke-3" stroke="#D6D9DD"></path>
                        </g>
                        <g id="Group-32" transform="translate(5.000000, 9.000000)" fill="#D6D9DD">
                            <rect id="Rectangle-Copy-8" x="2.13333333" y="0" width="11.7333333" height="3" rx="1.5"></rect>
                            <rect id="Rectangle" x="0" y="6" width="16" height="1" rx="0.5"></rect>
                        </g>
                    </g>
                    <g id="Group-44" transform="translate(70.000000, 0.000000)">
                        <g id="Group-5">
                            <path d="M25,12.5 C25,19.4034185 19.4033696,25 12.4998908,25 C5.59641201,25 0,19.4034185 0,12.5 C0,5.59636313 5.59641201,0 12.4998908,0 C19.4033696,0 25,5.59636313 25,12.5" id="Fill-1" fill="#F2F3F7"></path>
                            <path d="M12.4998908,0 C19.4033696,0 25,5.59641201 25,12.5001092" id="Stroke-3" stroke="#D6D9DD"></path>
                        </g>
                        <g id="Group-32" transform="translate(5.000000, 9.000000)" fill="#D6D9DD">
                            <rect id="Rectangle-Copy-8" x="2.13333333" y="0" width="11.7333333" height="3" rx="1.5"></rect>
                            <rect id="Rectangle" x="0" y="6" width="16" height="1" rx="0.5"></rect>
                        </g>
                    </g>
                </g>
                <rect id="Rectangle" stroke-opacity="0.0989128059" stroke="#FFFFFF" x="0.5" y="0.5" width="112" height="78" rx="3"></rect>
            </g>
        </g>
    </g>
</svg>