<svg xmlns="http://www.w3.org/2000/svg" width="113" height="79"><g fill="none" fill-rule="evenodd"><g transform="translate(7 25)"><rect width="28" height="29" x="35" fill="#F2F3F7" rx="2" transform="matrix(-1 0 0 1 98 0)"/><rect width="29" height="29" x="70" fill="#F2F3F7" rx="2" transform="matrix(-1 0 0 1 169 0)"/><rect width="28" height="29" fill="#F2F3F7" rx="2" transform="matrix(-1 0 0 1 28 0)"/><g fill="#D8D8D8" transform="translate(31 11)"><ellipse cx="1" cy="1.125" rx="1" ry="1.125"/><ellipse cx="1" cy="7.875" rx="1" ry="1.125"/></g><g fill="#D8D8D8" transform="translate(65 11)"><ellipse cx="1" cy="1.125" rx="1" ry="1.125"/><ellipse cx="1" cy="7.875" rx="1" ry="1.125"/></g><g fill="#D6D9DD" transform="translate(6 11)"><rect width="12.467" height="3.429" x="2.267" rx="1.714"/><rect width="17" height="1.143" y="6.857" rx=".571"/></g><g fill="#D6D9DD" transform="translate(41 11)"><rect width="12.467" height="3.429" x="2.267" rx="1.714"/><rect width="17" height="1.143" y="6.857" rx=".571"/></g><g fill="#D6D9DD" transform="translate(76 11)"><rect width="12.467" height="3.429" x="2.267" rx="1.714"/><rect width="17" height="1.143" y="6.857" rx=".571"/></g></g><rect width="112" height="78" x=".5" y=".5" stroke="#FFF" stroke-opacity=".01" rx="3"/></g></svg>