<svg xmlns="http://www.w3.org/2000/svg" xml:space="preserve" id="Layer_1" x="0" y="0" version="1.0" viewBox="0 0 59.4 44.6"><linearGradient id="SVGID_1_" x1="22.595" x2="57.556" y1="16.713" y2="37.327" gradientUnits="userSpaceOnUse"><stop offset=".001" stop-color="#00d1ff"/><stop offset="1" stop-color="#0a00d1"/></linearGradient><path fill="url(#SVGID_1_)" d="M46.4 7.1H13.2c-1.5 0-2.7 1.2-2.8 2.7V32c0 .6.2 1.2.6 1.7.5.6 1.3 1.1 2.1 1.1h33.2c1.5 0 2.8-1.2 2.8-2.7V9.9c0-1.5-1.2-2.8-2.7-2.8zm-.1 13.8-5.7-7.6-.1-.1c-.5-.6-1.3-.7-1.9-.3l-.3.3-7.4 9.8-5.6-7.1c-.5-.6-1.4-.7-2-.1-.1 0-.1.1-.1.1L18.3 22l-.9 1.2-4.2 5.2V9.9h33.2v11z"/><linearGradient id="SVGID_2_" x1="24.998" x2="52.95" y1="35.803" y2="24.424" gradientUnits="userSpaceOnUse"><stop offset=".001" stop-color="#00eaff"/><stop offset="1" stop-color="#0a00d1"/></linearGradient><path fill="url(#SVGID_2_)" d="M49.1 23.9V32c0 1.5-1.3 2.7-2.8 2.7H13.1c-.9 0-1.7-.4-2.1-1.1 28.3 1.2 36.1-6.4 38.1-9.7z"/><linearGradient id="SVGID_3_" x1="19.666" x2="34.838" y1="26.246" y2="12.229" gradientUnits="userSpaceOnUse"><stop offset=".001" stop-color="#00d1ff"/><stop offset="1" stop-color="#0a00d1"/></linearGradient><path fill="url(#SVGID_3_)" d="M30.9 23c-.3-.3-5.7-4.4-6.8-4.8-.7-.2-4.1 2.6-6.8 5l.9-1.2 4.9-6.1c0-.1.1-.1.1-.1.6-.5 1.5-.5 2 .1l5.7 7.1z"/><g><circle cx="26.3" cy="39" r=".9" class="st3"/><circle cx="33.2" cy="39" r=".9" class="st3"/><linearGradient id="SVGID_4_" x1="27.98" x2="30.994" y1="37.41" y2="40.159" gradientUnits="userSpaceOnUse"><stop offset=".001" stop-color="#00d1ff"/><stop offset="1" stop-color="#0a00d1"/></linearGradient><circle cx="29.8" cy="39" r=".9" fill="url(#SVGID_4_)"/></g><g><path d="M3.3 24.1c-.2 0-.3 0-.4-.2L.5 22.1.4 22c-.3-.3-.3-.5-.3-.7 0-.2.1-.4.3-.7l.1-.1 2.4-1.8c.3-.2.8-.2 1 .1.2.3.2.8-.1 1l-1.9 1.5 1.9 1.5c.3.2.4.7.1 1-.1.2-.3.3-.6.3z" class="st3"/><linearGradient id="SVGID_5_" x1="51.97" x2="60.172" y1="18.148" y2="24.442" gradientUnits="userSpaceOnUse"><stop offset=".001" stop-color="#00eaff"/><stop offset="1" stop-color="#0a00d1"/></linearGradient><path fill="url(#SVGID_5_)" d="M59.3 21.3c0 .2-.1.5-.3.7l-.1.1-.2.2-.1.1-.7.5h-.1l-1.3 1c-.1.1-.3.2-.4.2H56c-.2 0-.3-.1-.5-.3-.1-.2-.2-.3-.1-.5 0-.2.1-.4.3-.5l1.6-1.3c.1-.1.1-.1.2-.1l.1-.1-1.9-1.5-.2-.2c-.2-.2-.2-.6 0-.8.2-.3.7-.4 1-.1l2.4 1.8s.1 0 .1.1c.2.2.2.3.3.5v.2z"/><linearGradient id="SVGID_6_" x1="54.336" x2="58.751" y1="17.766" y2="21.375" gradientUnits="userSpaceOnUse"><stop offset=".001" stop-color="#00d1ff"/><stop offset="1" stop-color="#0a00d1"/></linearGradient><path fill="url(#SVGID_6_)" d="M59 20.6c.2.2.2.3.3.5-.9-1.2-3-1.4-3.8-1.4-.2-.2-.2-.6 0-.8.2-.3.7-.4 1-.1l2.5 1.8z"/><linearGradient id="SVGID_7_" x1="60.28" x2="42.891" y1="22.743" y2="26.442" gradientUnits="userSpaceOnUse"><stop offset=".001" stop-color="#00d1ff"/><stop offset="1" stop-color="#0a00d1"/></linearGradient><path fill="url(#SVGID_7_)" d="m57.8 22.9-1.3 1c-.1.1-.3.2-.4.2H56c-.2 0-.3-.1-.5-.3-.1-.2-.2-.3-.1-.5 1 .3 1.9 0 2.4-.4z"/><linearGradient id="SVGID_8_" x1="58.765" x2="58.07" y1="22.239" y2="22.649" gradientUnits="userSpaceOnUse"><stop offset=".001" stop-color="#00d1ff"/><stop offset="1" stop-color="#0a00d1"/></linearGradient><path fill="url(#SVGID_8_)" d="m58.7 22.3-.1.1.1-.1z"/></g></svg>