<svg xmlns="http://www.w3.org/2000/svg" width="147" height="71"><g fill="none" fill-rule="evenodd" transform="translate(0 .541)"><path fill="#F2F3F7" d="M0 0h146.73v70.23H0z"/><rect width="109.107" height="25.082" x="18.811" y="11.287" fill="#D6D9DD" rx="2"/><path fill="#D6D9DD" d="M18.811 40.131h9.287a2 2 0 0 1 2 2v14.812a2 2 0 0 1-2 2h-9.287V40.13Z"/><rect width="18.811" height="18.811" x="32.607" y="40.131" fill="#D6D9DD" rx="2"/><rect width="18.811" height="18.811" x="53.926" y="40.131" fill="#D6D9DD" rx="2"/><rect width="18.811" height="18.811" x="75.246" y="40.131" fill="#D6D9DD" rx="2"/><rect width="18.811" height="18.811" x="96.566" y="40.131" fill="#D6D9DD" rx="2"/><path fill="#D6D9DD" d="M119.885 40.131h8.033v18.812h-8.033a2 2 0 0 1-2-2V42.13a2 2 0 0 1 2-2Z"/></g></svg>