<svg xmlns="http://www.w3.org/2000/svg" xmlns:xlink="http://www.w3.org/1999/xlink" viewBox="0 0 32 20">
  <defs>
    <linearGradient id="linear-gradient" x1="-807.58" x2="-808.58" y1="1149.33" y2="1149.33" gradientTransform="matrix(31.7 0 0 14.3 25635.14 -16417.17)" gradientUnits="userSpaceOnUse">
      <stop offset="0" stop-color="#00d1ff"/>
      <stop offset="1" stop-color="#0a00d1"/>
    </linearGradient>
    <linearGradient id="linear-gradient-2" x1="-808.58" x2="-807.58" y1="1160.69" y2="1160.69" gradientTransform="matrix(31.7 0 0 13.25 25635.14 -15360.23)" xlink:href="#linear-gradient"/>
    <clipPath id="clip-path" transform="translate(-3 -9)">
      <path fill="none" d="M0 0h38v38H0z"/>
    </clipPath>
    <style>
      .cls-6{fill:#fff}
    </style>
  </defs>
  <g id="Layer_2" data-name="Layer 2">
    <g id="Layer_1-2" clip-path="url(#clip-path)" data-name="Layer 1">
      <path id="Path" fill="#0a00d1" d="M33.69 26.92H4.31A1.51 1.51 0 013 25.26v2A1.56 1.56 0 004.31 29h29.38A1.56 1.56 0 0035 27.31v-2.08a1.53 1.53 0 01-1.3 1.69z" transform="translate(-3 -9)"/>
      <path fill="url(#linear-gradient)" d="M33.16 27.57H4.81A2.12 2.12 0 013 25.25V11.34A2.12 2.12 0 014.8 9h28.36A2.11 2.11 0 0135 11.32v13.91a2.11 2.11 0 01-1.8 2.34z" transform="translate(-3 -9)"/>
      <path fill="url(#linear-gradient-2)" d="M33.16 10.36H4.81A2.1 2.1 0 003 12.64v12.59a2.12 2.12 0 001.8 2.34h28.36A2.11 2.11 0 0035 25.25V12.64a2.09 2.09 0 00-1.84-2.28z" transform="translate(-3 -9)"/>
      <path d="M10.33 15.12A2.3 2.3 0 008 17.36v3.28a2.33 2.33 0 004.66 0v-3.28a2.29 2.29 0 00-2.33-2.24zm.78 5.52a.78.78 0 01-1.56 0v-3.28a.78.78 0 011.56 0zM16.16 15.12a2.3 2.3 0 00-2.33 2.24v3.28a2.34 2.34 0 004.67 0v-3.28a2.3 2.3 0 00-2.34-2.24zm.78 5.52a.76.76 0 01-.78.74.75.75 0 01-.77-.74v-3.28a.75.75 0 01.77-.74.76.76 0 01.78.74zM24.42 15.12a2.3 2.3 0 00-2.34 2.24v3.28a2.34 2.34 0 004.67 0v-3.28a2.3 2.3 0 00-2.33-2.24zm.77 5.52a.75.75 0 01-.77.74.76.76 0 01-.78-.74v-3.28a.76.76 0 01.78-.74.75.75 0 01.77.74z" class="cls-6" transform="translate(-3 -9)"/>
      <ellipse cx="17.29" cy="8.3" class="cls-6" rx=".78" ry=".83"/>
      <ellipse cx="17.29" cy="11.88" class="cls-6" rx=".78" ry=".83"/>
      <path d="M29.22 15.53a.76.76 0 00-.77.75v5.44a.76.76 0 00.77.75.77.77 0 00.78-.75v-5.44a.77.77 0 00-.78-.75z" class="cls-6" transform="translate(-3 -9)"/>
    </g>
  </g>
</svg>