<svg version="1.1" id="Layer_1" xmlns="http://www.w3.org/2000/svg" x="0" y="0" viewBox="0 0 59.4 44.6" style="enable-background:new 0 0 59.4 44.6" xml:space="preserve"><style>.st3{fill:#00eaff}</style><linearGradient id="SVGID_1_" gradientUnits="userSpaceOnUse" x1="22.599" y1="29.293" x2="57.56" y2="8.679" gradientTransform="matrix(1 0 0 -1 0 46)"><stop offset=".001" style="stop-color:#00d1ff"/><stop offset="1" style="stop-color:#0a00d1"/></linearGradient><path d="M46.4 7.1H13.2c-1.5 0-2.7 1.2-2.8 2.7V32c0 .6.2 1.2.6 1.7.5.6 1.3 1.1 2.1 1.1h33.2c1.5 0 2.8-1.2 2.8-2.7V9.9c0-1.5-1.2-2.8-2.7-2.8zm-.1 13.8-5.7-7.6-.1-.1c-.5-.6-1.3-.7-1.9-.3l-.3.3-7.4 9.8-5.6-7.1c-.5-.6-1.4-.7-2-.1-.1 0-.1.1-.1.1L18.3 22l-.9 1.2-4.2 5.2V9.9h33.2v11h-.1z" style="fill:url(#SVGID_1_)"/><linearGradient id="SVGID_2_" gradientUnits="userSpaceOnUse" x1="24.979" y1="10.243" x2="52.931" y2="21.622" gradientTransform="matrix(1 0 0 -1 0 46)"><stop offset=".001" style="stop-color:#00eaff"/><stop offset="1" style="stop-color:#0a00d1"/></linearGradient><path d="M49.1 23.9V32c0 1.5-1.3 2.7-2.8 2.7H13.1c-.9 0-1.7-.4-2.1-1.1 28.3 1.2 36.1-6.4 38.1-9.7z" style="fill:url(#SVGID_2_)"/><linearGradient id="SVGID_3_" gradientUnits="userSpaceOnUse" x1="19.456" y1="19.56" x2="35.02" y2="33.94" gradientTransform="matrix(1 0 0 -1 0 46)"><stop offset=".001" style="stop-color:#00d1ff"/><stop offset="1" style="stop-color:#0a00d1"/></linearGradient><path d="M30.9 23c-.3-.3-5.7-4.4-6.8-4.8-.7-.2-4.2 2.9-6.9 5.3l1-1.5c1.5-1.9 3.1-3.8 4.5-5.7.6-.8 1.7-1.3 2.5-.4l5.7 7.1z" style="fill:url(#SVGID_3_)"/><g><circle class="st3" cx="26.3" cy="39" r=".9"/><circle class="st3" cx="33.2" cy="39" r=".9"/><linearGradient id="SVGID_4_" gradientUnits="userSpaceOnUse" x1="28.015" y1="8.628" x2="31.029" y2="5.879" gradientTransform="matrix(1 0 0 -1 0 46)"><stop offset=".001" style="stop-color:#00d1ff"/><stop offset="1" style="stop-color:#0a00d1"/></linearGradient><circle cx="29.8" cy="39" r=".9" style="fill:url(#SVGID_4_)"/></g><g><path class="st3" d="M3.3 24.1c-.2 0-.3 0-.4-.2L.5 22.1.4 22c-.3-.3-.3-.5-.3-.7s.1-.4.3-.7l.1-.1 2.4-1.8c.3-.2.8-.2 1 .1.2.3.2.8-.1 1l-1.9 1.5 1.9 1.5c.3.2.4.7.1 1-.1.2-.3.3-.6.3z"/></g><g><linearGradient id="SVGID_5_" gradientUnits="userSpaceOnUse" x1="58.165" y1="17.838" x2="57.001" y2="21.662"><stop offset=".001" style="stop-color:#00eaff"/><stop offset="1" style="stop-color:#0a00d1"/></linearGradient><path d="M56.2 18.5c.2 0 .3 0 .4.2l2.4 1.8.1.1c.3.3.3.5.3.7s-.1.4-.3.7l-.1.1-2.4 1.8c-.3.2-.8.2-1-.1-.2-.3-.2-.8.1-1l1.9-1.5-1.9-1.5c-.3-.2-.4-.7-.1-1 .1-.2.3-.3.6-.3z" style="fill:url(#SVGID_5_)"/></g></svg>