<?xml version="1.0" encoding="utf-8"?>
<!-- Generator: Adobe Illustrator 23.0.2, SVG Export Plug-In . SVG Version: 6.00 Build 0)  -->
<svg version="1.1" id="Layer_1" xmlns="http://www.w3.org/2000/svg" xmlns:xlink="http://www.w3.org/1999/xlink" x="0px" y="0px"
	 viewBox="0 0 59.4 44.6" style="enable-background:new 0 0 59.4 44.6;" xml:space="preserve">
<style type="text/css">
	.st0{fill:url(#SVGID_1_);}
	.st1{fill:url(#SVGID_2_);}
	.st2{fill:url(#SVGID_3_);}
	.st3{fill:#00EAFF;}
	.st4{fill:url(#SVGID_4_);}
	.st5{fill:url(#SVGID_5_);}
</style>
<title>Image</title>
<g>
	
		<linearGradient id="SVGID_1_" gradientUnits="userSpaceOnUse" x1="22.5988" y1="29.2926" x2="57.5598" y2="8.6788" gradientTransform="matrix(1 0 0 -1 0 46)">
		<stop  offset="6.751216e-04" style="stop-color:#00D1FF"/>
		<stop  offset="1" style="stop-color:#0A00D1"/>
	</linearGradient>
	<path class="st0" d="M46.4,7.1H13.2c-1.5,0-2.7,1.2-2.8,2.7V32c0,0.6,0.2,1.2,0.6,1.7c0.5,0.6,1.3,1.1,2.1,1.1h33.2
		c1.5,0,2.8-1.2,2.8-2.7V9.9C49.1,8.4,47.9,7.1,46.4,7.1z M46.3,20.9l-5.7-7.6l-0.1-0.1c-0.5-0.6-1.3-0.7-1.9-0.3
		c-0.1,0.1-0.2,0.2-0.3,0.3L30.9,23l0,0l-5.6-7.1c-0.5-0.6-1.4-0.7-2-0.1c-0.1,0-0.1,0.1-0.1,0.1L18.3,22l-0.9,1.2l-4.2,5.2V9.9
		h33.2v11H46.3z"/>
	
		<linearGradient id="SVGID_2_" gradientUnits="userSpaceOnUse" x1="24.9787" y1="10.2431" x2="52.931" y2="21.6219" gradientTransform="matrix(1 0 0 -1 0 46)">
		<stop  offset="6.751216e-04" style="stop-color:#00EAFF"/>
		<stop  offset="1" style="stop-color:#0A00D1"/>
	</linearGradient>
	<path class="st1" d="M49.1,23.9V32c0,1.5-1.3,2.7-2.8,2.7H13.1c-0.9,0-1.7-0.4-2.1-1.1C39.3,34.8,47.1,27.2,49.1,23.9z"/>
	
		<linearGradient id="SVGID_3_" gradientUnits="userSpaceOnUse" x1="19.4559" y1="19.5598" x2="35.0198" y2="33.9395" gradientTransform="matrix(1 0 0 -1 0 46)">
		<stop  offset="6.751216e-04" style="stop-color:#00D1FF"/>
		<stop  offset="1" style="stop-color:#0A00D1"/>
	</linearGradient>
	<path class="st2" d="M30.9,23c-0.3-0.3-5.7-4.4-6.8-4.8c-0.7-0.2-4.2,2.9-6.9,5.3c0,0,1-1.5,1-1.5c1.5-1.9,3.1-3.8,4.5-5.7
		c0.6-0.8,1.7-1.3,2.5-0.4L30.9,23z"/>
</g>
<g>
	<circle class="st3" cx="26.3" cy="39" r="0.9"/>
	<circle class="st3" cx="33.2" cy="39" r="0.9"/>
	
		<linearGradient id="SVGID_4_" gradientUnits="userSpaceOnUse" x1="28.0147" y1="8.6277" x2="31.0292" y2="5.8792" gradientTransform="matrix(1 0 0 -1 0 46)">
		<stop  offset="6.751216e-04" style="stop-color:#00D1FF"/>
		<stop  offset="1" style="stop-color:#0A00D1"/>
	</linearGradient>
	<circle class="st4" cx="29.8" cy="39" r="0.9"/>
</g>
<g>
	<path class="st3" d="M3.3,24.1c-0.2,0-0.3,0-0.4-0.2l-2.4-1.8c0,0,0,0-0.1-0.1c-0.3-0.3-0.3-0.5-0.3-0.7s0.1-0.4,0.3-0.7
		c0,0,0,0,0.1-0.1l2.4-1.8c0.3-0.2,0.8-0.2,1,0.1c0.2,0.3,0.2,0.8-0.1,1l-1.9,1.5l1.9,1.5c0.3,0.2,0.4,0.7,0.1,1
		C3.8,24,3.6,24.1,3.3,24.1z"/>
</g>
<g>
	<linearGradient id="SVGID_5_" gradientUnits="userSpaceOnUse" x1="58.1652" y1="17.8379" x2="57.0013" y2="21.6622">
		<stop  offset="6.751216e-04" style="stop-color:#00EAFF"/>
		<stop  offset="1" style="stop-color:#0A00D1"/>
	</linearGradient>
	<path class="st5" d="M56.2,18.5c0.2,0,0.3,0,0.4,0.2l2.4,1.8c0,0,0,0,0.1,0.1c0.3,0.3,0.3,0.5,0.3,0.7s-0.1,0.4-0.3,0.7
		c0,0,0,0-0.1,0.1l-2.4,1.8c-0.3,0.2-0.8,0.2-1-0.1c-0.2-0.3-0.2-0.8,0.1-1l1.9-1.5l-1.9-1.5c-0.3-0.2-0.4-0.7-0.1-1
		C55.7,18.6,55.9,18.5,56.2,18.5z"/>
</g>
</svg>
