<svg xmlns="http://www.w3.org/2000/svg" xmlns:xlink="http://www.w3.org/1999/xlink" data-name="Layer 1" viewBox="0 0 38 38"><defs><linearGradient id="a" x1="1.56" x2="36.56" y1="18.64" y2="18.64" gradientUnits="userSpaceOnUse"><stop offset="0" stop-color="#00d1ff"/><stop offset="1" stop-color="#0a00d1"/></linearGradient><linearGradient xlink:href="#a" id="b" x1="1.57" x2="8.45" y1="22.26" y2="22.26" gradientTransform="matrix(1 0 0 -1 0 40)"/><linearGradient xlink:href="#a" id="c" x1="1.54" x2="8.43" y1="26.93" y2="26.93" gradientTransform="matrix(1 0 0 -1 0 40)"/><linearGradient xlink:href="#a" id="d" x1="9.45" x2="29.73" y1="18.64" y2="18.64" gradientTransform="matrix(1 0 0 -1 0 40)"/><linearGradient xlink:href="#a" id="e" x1="3688.71" x2="3697.03" y1="32.86" y2="32.86" gradientTransform="rotate(180 1849.305 20)"/><linearGradient xlink:href="#a" id="f" x1="18.36" x2="36.56" y1="23.05" y2="23.05" gradientTransform="matrix(1 0 0 -1 0 40)"/></defs><path fill="url(#a)" d="M36.56 7.6v22.07a1 1 0 0 1-1 1h-25a1 1 0 0 1-1.05-1v-18.4a1 1 0 0 0-1-1h-5.9a1 1 0 0 1-1-1.05V7.6a1 1 0 0 1 1-1h32.91a1 1 0 0 1 1.04 1z"/><path fill="url(#b)" d="M2.28 15.91h5.49a.71.71 0 0 1 .71.71v2.25a.71.71 0 0 1-.71.71H2.28a.71.71 0 0 1-.71-.71v-2.25a.71.71 0 0 1 .71-.71z"/><path fill="url(#c)" d="M2.28 11.23h5.49a.71.71 0 0 1 .71.71v2.25a.71.71 0 0 1-.71.71H2.28a.71.71 0 0 1-.71-.71v-2.25a.71.71 0 0 1 .71-.71z"/><path fill="url(#d)" d="M29.24 30.72a.49.49 0 0 0 .1-1C10 25.73 9.45 12 9.45 12v17.7a1 1 0 0 0 1 1z"/><path fill="url(#e)" d="M1.57 7.72a1.17 1.17 0 0 1 1.16-1.17H9.9a47.94 47.94 0 0 0-8.33 1.17z"/><path fill="url(#f)" d="M18.67 7.66A36 36 0 0 1 35.42 27a.59.59 0 0 0 1.14-.2V7.65a1.1 1.1 0 0 0-1.1-1.1H19a.59.59 0 0 0-.33 1.11z"/><path fill="#fff" d="M33.3 13.44H12.78c-.36 0-.67-.41-.67-.91s.31-.92.67-.92H33.3c.37 0 .67.42.67.92s-.3.91-.67.91zm-2.79 4.25H12.78c-.36 0-.67-.41-.67-.91s.31-.92.67-.92h17.73c.37 0 .67.42.67.92s-.3.91-.67.91zM27 22.36H12.9a.87.87 0 0 1-.79-.92.86.86 0 0 1 .79-.91H27a.86.86 0 0 1 .78.91.87.87 0 0 1-.78.92zm-2.2 4.19h-12c-.36 0-.67-.41-.67-.91s.31-.92.67-.92h12c.37 0 .67.42.67.92s-.3.91-.67.91z"/></svg>