<?xml version="1.0" encoding="utf-8"?>
<!-- Generator: Adobe Illustrator 25.1.0, SVG Export Plug-In . SVG Version: 6.00 Build 0)  -->
<svg version="1.1" id="Layer_1" xmlns="http://www.w3.org/2000/svg" xmlns:xlink="http://www.w3.org/1999/xlink" x="0px" y="0px"
	 viewBox="0 0 67.1 45" style="enable-background:new 0 0 67.1 45;" xml:space="preserve">
<style type="text/css">
	.st0{fill:url(#SVGID_1_);}
	.st1{fill:url(#SVGID_2_);}
	.st2{fill:#0A00D1;}
	.st3{fill:url(#SVGID_3_);}
	.st4{fill:url(#SVGID_4_);}
	.st5{fill:url(#SVGID_5_);}
	.st6{fill:#00EAFF;}
	.st7{fill:url(#SVGID_6_);}
</style>
<g>
	<g>
		<linearGradient id="SVGID_1_" gradientUnits="userSpaceOnUse" x1="0.1" y1="22.9976" x2="5.4744" y2="22.9976">
			<stop  offset="6.751216e-04" style="stop-color:#00D1FF"/>
			<stop  offset="1" style="stop-color:#0A00D1"/>
		</linearGradient>
		<path class="st0" d="M4.5,26.9c-0.2,0-0.4-0.1-0.6-0.2l-3.3-2.6L0.5,24c-0.4-0.4-0.4-0.7-0.4-1s0.1-0.6,0.4-1l0.1-0.1l3.3-2.6
			C4.3,19,5,19,5.3,19.5C5.6,20,5.5,20.7,5.1,21l-2.6,2l2.6,2c0.4,0.3,0.5,1,0.2,1.4C5.1,26.7,4.8,26.9,4.5,26.9z"/>
	</g>
	<g>
		<linearGradient id="SVGID_2_" gradientUnits="userSpaceOnUse" x1="61.5953" y1="23.1024" x2="67" y2="23.1024">
			<stop  offset="6.751216e-04" style="stop-color:#00D1FF"/>
			<stop  offset="1" style="stop-color:#0A00D1"/>
		</linearGradient>
		<path class="st1" d="M62.6,19.2c0.2,0,0.4,0.1,0.6,0.2l3.3,2.6l0.1,0.1c0.4,0.4,0.4,0.7,0.4,1s-0.1,0.6-0.4,1l-0.1,0.1l-3.3,2.6
			c-0.4,0.3-1.1,0.3-1.4-0.2c-0.3-0.4-0.3-1.1,0.2-1.4l2.6-2L62,21c-0.4-0.3-0.5-1-0.2-1.4C62.1,19.3,62.3,19.2,62.6,19.2z"/>
	</g>
	<g>
		<g>
			<path class="st2" d="M30.4,20.9H19.1c-0.9,0-1.7-0.8-1.7-1.7v-11c0-0.9,0.8-1.7,1.7-1.7h11.2c0.9,0,1.7,0.8,1.7,1.7v11
				C32,20.1,31.3,20.9,30.4,20.9z"/>
			
				<linearGradient id="SVGID_3_" gradientUnits="userSpaceOnUse" x1="17.3983" y1="33.2567" x2="32.0225" y2="33.2567" gradientTransform="matrix(1 0 0 -1 0 46)">
				<stop  offset="6.751216e-04" style="stop-color:#00D1FF"/>
				<stop  offset="1" style="stop-color:#0A00D1"/>
			</linearGradient>
			<path class="st3" d="M30.4,19.9H19.1c-0.9,0-1.7-0.8-1.7-1.7V7.3c0-0.9,0.8-1.7,1.7-1.7h11.2c0.9,0,1.7,0.8,1.7,1.7v11
				C32,19.1,31.3,19.9,30.4,19.9z"/>
		</g>
		<g>
			<path class="st2" d="M48.6,20.9H37.3c-0.9,0-1.7-0.8-1.7-1.7v-11c0-0.9,0.8-1.7,1.7-1.7h11.2c0.9,0,1.7,0.8,1.7,1.7v11
				C50.2,20.1,49.5,20.9,48.6,20.9z"/>
			
				<linearGradient id="SVGID_4_" gradientUnits="userSpaceOnUse" x1="35.6021" y1="33.2567" x2="50.2263" y2="33.2567" gradientTransform="matrix(1 0 0 -1 0 46)">
				<stop  offset="6.751216e-04" style="stop-color:#00D1FF"/>
				<stop  offset="1" style="stop-color:#0A00D1"/>
			</linearGradient>
			<path class="st4" d="M48.6,19.9H37.3c-0.9,0-1.7-0.8-1.7-1.7V7.3c0-0.9,0.8-1.7,1.7-1.7h11.2c0.9,0,1.7,0.8,1.7,1.7v11
				C50.2,19.1,49.5,19.9,48.6,19.9z"/>
		</g>
		<g>
			<path class="st2" d="M30.4,39.4H19.1c-0.9,0-1.7-0.8-1.7-1.7v-11c0-0.9,0.8-1.7,1.7-1.7h11.2c0.9,0,1.7,0.8,1.7,1.7v11
				C32,38.7,31.3,39.4,30.4,39.4z"/>
			
				<linearGradient id="SVGID_5_" gradientUnits="userSpaceOnUse" x1="17.3983" y1="14.695" x2="32.0225" y2="14.695" gradientTransform="matrix(1 0 0 -1 0 46)">
				<stop  offset="6.751216e-04" style="stop-color:#00D1FF"/>
				<stop  offset="1" style="stop-color:#0A00D1"/>
			</linearGradient>
			<path class="st5" d="M30.4,38.4H19.1c-0.9,0-1.7-0.8-1.7-1.7V25.9c0-0.9,0.8-1.7,1.7-1.7h11.2c0.9,0,1.7,0.8,1.7,1.7v11
				C32,37.7,31.3,38.4,30.4,38.4z"/>
		</g>
		<path class="st6" d="M49.8,45H17.6c-3.6,0-6.4-2.8-6.4-6.4V6.4C11.2,2.8,14,0,17.6,0h32.2c3.6,0,6.4,2.8,6.4,6.4v32.2
			C56.2,42.2,53.4,45,49.8,45z M17.6,2.6c-2.1,0-3.8,1.7-3.8,3.7v32.2c0,2.1,1.7,3.8,3.8,3.8h32.2c2.1,0,3.8-1.7,3.8-3.8V6.4
			c0-2.1-1.7-3.7-3.8-3.7H17.6z"/>
		<path class="st2" d="M49.8,32.3l-6.9-6.9c-0.3-0.3-0.6-0.4-1-0.4L37,25.3c-0.6,0-1.2,0.5-1.2,1.2l-0.3,4.9c0,0.4,0.1,0.7,0.4,1
			l6.9,6.9c0.5,0.5,1.3,0.5,1.8,0l5.2-5.2C50.3,33.5,50.3,32.8,49.8,32.3z M40,29.4c-0.5,0.5-1.3,0.5-1.8,0c-0.5-0.5-0.5-1.3,0-1.8
			c0.5-0.5,1.3-0.5,1.8,0C40.5,28.1,40.5,28.9,40,29.4z"/>
		<linearGradient id="SVGID_6_" gradientUnits="userSpaceOnUse" x1="35.5852" y1="31.2738" x2="50.1653" y2="31.2738">
			<stop  offset="6.751216e-04" style="stop-color:#00D1FF"/>
			<stop  offset="1" style="stop-color:#0A00D1"/>
		</linearGradient>
		<path class="st7" d="M49.8,31.3l-6.9-6.9c-0.3-0.3-0.6-0.4-1-0.4L37,24.3c-0.6,0-1.2,0.5-1.2,1.2l-0.3,4.9c0,0.4,0.1,0.7,0.4,1
			l6.9,6.9c0.5,0.5,1.3,0.5,1.8,0l5.2-5.2C50.3,32.5,50.3,31.8,49.8,31.3z M40,28.4c-0.5,0.5-1.3,0.5-1.8,0c-0.5-0.5-0.5-1.3,0-1.8
			c0.5-0.5,1.3-0.5,1.8,0C40.5,27.1,40.5,27.9,40,28.4z"/>
	</g>
</g>
</svg>
