<?xml version="1.0" encoding="utf-8"?>
<!-- Generator: Adobe Illustrator 23.0.2, SVG Export Plug-In . SVG Version: 6.00 Build 0)  -->
<svg version="1.1" id="Layer_1" xmlns="http://www.w3.org/2000/svg" xmlns:xlink="http://www.w3.org/1999/xlink" x="0px" y="0px"
	 viewBox="0 0 59.4 44.6" style="enable-background:new 0 0 59.4 44.6;" xml:space="preserve">
<style type="text/css">
	.st0{fill:url(#SVGID_1_);}
	.st1{fill:url(#SVGID_2_);}
	.st2{fill:url(#SVGID_3_);}
	.st3{fill:url(#SVGID_4_);}
	.st4{fill:url(#SVGID_5_);}
	.st5{fill:url(#SVGID_6_);}
	.st6{fill:url(#SVGID_7_);}
	.st7{fill:url(#SVGID_8_);}
	.st8{fill:url(#SVGID_9_);}
</style>
<title>Image</title>
<g>
	<g>
		<linearGradient id="SVGID_1_" gradientUnits="userSpaceOnUse" x1="0.56" y1="22.4186" x2="45.2227" y2="22.4186">
			<stop  offset="6.751216e-04" style="stop-color:#00D1FF"/>
			<stop  offset="1" style="stop-color:#0A00D1"/>
		</linearGradient>
		<path class="st0" d="M38.9,0.1h-32c-3.5,0-6.3,2.8-6.3,6.3v32c0,3.5,2.8,6.3,6.3,6.3h32c0.8,0,1.5-0.1,2.1-0.4
			c1.2-0.4,2.2-0.2,2.9-1.2c-1.2,0-2.3-0.2-3.4-0.5c-0.5,0.3-1.1-0.6-1.7-0.6h-32c-2.1,0-3.7-1.7-3.7-3.7v-32c0-2,1.7-3.7,3.7-3.7
			h32c2,0,3.7,1.7,3.7,3.7v9.8c0.5,0,0.9-0.1,1.4-0.1c0.4,0,0.8,0,1.2,0.1V6.4C45.2,2.9,42.4,0.1,38.9,0.1z"/>
		<linearGradient id="SVGID_2_" gradientUnits="userSpaceOnUse" x1="15.242" y1="31.7234" x2="31.1046" y2="31.7234">
			<stop  offset="6.751216e-04" style="stop-color:#00D1FF"/>
			<stop  offset="1" style="stop-color:#0A00D1"/>
		</linearGradient>
		<path class="st1" d="M31.1,33.6h-14c-0.9,0-1.9-0.7-1.9-1.9c0-0.9,0.7-1.9,1.9-1.9h13.4C30.5,31.2,30.7,32.4,31.1,33.6z"/>
		
			<linearGradient id="SVGID_3_" gradientUnits="userSpaceOnUse" x1="15.2376" y1="33.0724" x2="37.755" y2="33.0724" gradientTransform="matrix(1 0 0 -1 0 46)">
			<stop  offset="6.751216e-04" style="stop-color:#00D1FF"/>
			<stop  offset="1" style="stop-color:#0A00D1"/>
		</linearGradient>
		<path class="st2" d="M35.9,14.8H17.1c-0.9,0-1.9-0.7-1.9-1.9c0-0.9,0.7-1.9,1.9-1.9h18.8c0.9,0,1.9,0.7,1.9,1.9S37,14.8,35.9,14.8
			z"/>
		<linearGradient id="SVGID_4_" gradientUnits="userSpaceOnUse" x1="15.2384" y1="22.4137" x2="34.4458" y2="22.4137">
			<stop  offset="6.751216e-04" style="stop-color:#00D1FF"/>
			<stop  offset="1" style="stop-color:#0A00D1"/>
		</linearGradient>
		<path class="st3" d="M34.5,20.6c-1.1,1.1-2.1,2.3-2.7,3.7H17.1c-0.9,0-1.9-0.7-1.9-1.9c0-0.9,0.7-1.9,1.9-1.9H34.5z"/>
		
			<linearGradient id="SVGID_5_" gradientUnits="userSpaceOnUse" x1="8.0208" y1="33.0724" x2="13.0063" y2="33.0724" gradientTransform="matrix(1 0 0 -1 0 46)">
			<stop  offset="6.751216e-04" style="stop-color:#00D1FF"/>
			<stop  offset="1" style="stop-color:#0A00D1"/>
		</linearGradient>
		<circle class="st4" cx="10.4" cy="12.9" r="2.4"/>
		
			<linearGradient id="SVGID_6_" gradientUnits="userSpaceOnUse" x1="8.0208" y1="23.5815" x2="13.0063" y2="23.5815" gradientTransform="matrix(1 0 0 -1 0 46)">
			<stop  offset="6.751216e-04" style="stop-color:#00D1FF"/>
			<stop  offset="1" style="stop-color:#0A00D1"/>
		</linearGradient>
		<circle class="st5" cx="10.4" cy="22.4" r="2.4"/>
		
			<linearGradient id="SVGID_7_" gradientUnits="userSpaceOnUse" x1="8.0208" y1="14.0907" x2="13.0063" y2="14.0907" gradientTransform="matrix(1 0 0 -1 0 46)">
			<stop  offset="6.751216e-04" style="stop-color:#00D1FF"/>
			<stop  offset="1" style="stop-color:#0A00D1"/>
		</linearGradient>
		<circle class="st6" cx="10.4" cy="31.9" r="2.4"/>
	</g>
	<g>
		<linearGradient id="SVGID_8_" gradientUnits="userSpaceOnUse" x1="29.0151" y1="29.6887" x2="58.9987" y2="29.6887">
			<stop  offset="6.751216e-04" style="stop-color:#00D1FF"/>
			<stop  offset="1" style="stop-color:#0A00D1"/>
		</linearGradient>
		<path class="st7" d="M32.1,20.6c-0.9,1.1-1.6,2.4-2.1,3.7c-0.7,1.7-1,3.5-1,5.4v0.2h2.5c0-0.1,0-0.1,0-0.2c0-1.9,0.4-3.8,1.2-5.4
			c0.7-1.4,1.6-2.7,2.7-3.7c1.9-1.8,4.4-3,7.2-3.3v-2.5C38.4,15.2,34.6,17.3,32.1,20.6z M45.2,14.8c-0.4,0-0.8-0.1-1.2-0.1
			c-0.5,0-0.9,0-1.4,0.1c-4.3,0.4-8,2.6-10.5,5.8c-0.9,1.1-1.6,2.4-2.1,3.7c-0.7,1.7-1,3.5-1,5.4v0.2c0,1.3,0.2,2.5,0.5,3.7
			c0.9,3.5,3.2,6.6,6.1,8.6c1.6,1.1,3.4,1.9,5.4,2.2c1,0.2,1.9,0.3,3,0.3c8.3,0,15-6.7,15-15C59,21.8,52.9,15.4,45.2,14.8z M44,42.2
			L44,42.2c-1.2,0-2.3-0.2-3.4-0.5c-4-1.1-7.2-4.2-8.5-8.1c-0.4-1.2-0.6-2.4-0.6-3.7c0-0.1,0-0.1,0-0.2c0-1.9,0.4-3.8,1.2-5.4
			c0.7-1.4,1.6-2.7,2.7-3.7c1.9-1.8,4.4-3,7.2-3.3c0.5,0,0.9-0.1,1.4-0.1c0.4,0,0.8,0,1.2,0.1c6.3,0.6,11.3,6,11.3,12.4
			C56.5,36.6,50.9,42.2,44,42.2z M32.1,20.6c-0.9,1.1-1.6,2.4-2.1,3.7c-0.7,1.7-1,3.5-1,5.4v0.2h2.5c0-0.1,0-0.1,0-0.2
			c0-1.9,0.4-3.8,1.2-5.4c0.7-1.4,1.6-2.7,2.7-3.7c1.9-1.8,4.4-3,7.2-3.3v-2.5C38.4,15.2,34.6,17.3,32.1,20.6z"/>
	</g>
	<g>
		<linearGradient id="SVGID_9_" gradientUnits="userSpaceOnUse" x1="41.3113" y1="27.4386" x2="51.3228" y2="34.9197">
			<stop  offset="6.751216e-04" style="stop-color:#00D1FF"/>
			<stop  offset="1" style="stop-color:#0A00D1"/>
		</linearGradient>
		<path class="st8" d="M49.7,33.2c0,1.3-0.4,2.4-1.3,3.3c-0.9,0.8-2,1.3-3.4,1.5v2h-1.5v-2c-1.3-0.1-2.4-0.5-3.3-1.1
			c-0.9-0.6-1.6-1.5-2-2.6l2.7-1.6c0.5,1.2,1.3,1.9,2.6,2.1v-4h0l0,0c-0.5-0.2-1-0.4-1.3-0.5c-0.3-0.2-0.7-0.4-1.2-0.7
			c-0.5-0.3-0.8-0.6-1.1-0.9c-0.3-0.3-0.5-0.7-0.7-1.2c-0.2-0.5-0.3-1-0.3-1.6c0-1.3,0.4-2.4,1.3-3.2c0.9-0.8,2-1.3,3.3-1.4v-2h1.5
			v2c2.1,0.2,3.6,1.3,4.4,3.2l-2.7,1.6c-0.4-0.9-0.9-1.5-1.7-1.7v3.8c1.4,0.6,2.4,1,2.9,1.4C49.1,30.6,49.7,31.7,49.7,33.2z
			 M42.1,26c0,0.3,0.1,0.6,0.3,0.9c0.2,0.3,0.6,0.5,1.1,0.8v-3.2c-0.5,0.1-0.8,0.3-1.1,0.6C42.3,25.3,42.1,25.6,42.1,26z M45.1,34.9
			c1-0.2,1.5-0.8,1.5-1.6c0-0.4-0.1-0.7-0.4-1c-0.2-0.3-0.6-0.5-1.1-0.7V34.9z"/>
	</g>
</g>
</svg>
