<svg xmlns="http://www.w3.org/2000/svg" xml:space="preserve" id="Layer_1" x="0" y="0" version="1.1" viewBox="0 0 67.1 45"><linearGradient id="SVGID_1_" x1=".1" x2="5.474" y1="22.998" y2="22.998" gradientUnits="userSpaceOnUse"><stop offset=".001" stop-color="#00d1ff"/><stop offset="1" stop-color="#0a00d1"/></linearGradient><path fill="url(#SVGID_1_)" d="M4.5 26.9c-.2 0-.4-.1-.6-.2L.6 24.1.5 24c-.4-.4-.4-.7-.4-1s.1-.6.4-1l.1-.1 3.3-2.6c.4-.3 1.1-.3 1.4.2.3.5.2 1.2-.2 1.5l-2.6 2 2.6 2c.4.3.5 1 .2 1.4-.2.3-.5.5-.8.5z"/><linearGradient id="SVGID_2_" x1="61.595" x2="67" y1="23.102" y2="23.102" gradientUnits="userSpaceOnUse"><stop offset=".001" stop-color="#00d1ff"/><stop offset="1" stop-color="#0a00d1"/></linearGradient><path fill="url(#SVGID_2_)" d="M62.6 19.2c.2 0 .4.1.6.2l3.3 2.6.1.1c.4.4.4.7.4 1s-.1.6-.4 1l-.1.1-3.3 2.6c-.4.3-1.1.3-1.4-.2-.3-.4-.3-1.1.2-1.4l2.6-2L62 21c-.4-.3-.5-1-.2-1.4.3-.3.5-.4.8-.4z"/><g><path d="M30.4 20.9H19.1c-.9 0-1.7-.8-1.7-1.7v-11c0-.9.8-1.7 1.7-1.7h11.2c.9 0 1.7.8 1.7 1.7v11c0 .9-.7 1.7-1.6 1.7z" class="st2"/><linearGradient id="SVGID_3_" x1="17.398" x2="32.023" y1="33.257" y2="33.257" gradientTransform="matrix(1 0 0 -1 0 46)" gradientUnits="userSpaceOnUse"><stop offset=".001" stop-color="#00d1ff"/><stop offset="1" stop-color="#0a00d1"/></linearGradient><path fill="url(#SVGID_3_)" d="M30.4 19.9H19.1c-.9 0-1.7-.8-1.7-1.7V7.3c0-.9.8-1.7 1.7-1.7h11.2c.9 0 1.7.8 1.7 1.7v11c0 .8-.7 1.6-1.6 1.6z"/><path d="M48.6 20.9H37.3c-.9 0-1.7-.8-1.7-1.7v-11c0-.9.8-1.7 1.7-1.7h11.2c.9 0 1.7.8 1.7 1.7v11c0 .9-.7 1.7-1.6 1.7z" class="st2"/><linearGradient id="SVGID_4_" x1="35.602" x2="50.226" y1="33.257" y2="33.257" gradientTransform="matrix(1 0 0 -1 0 46)" gradientUnits="userSpaceOnUse"><stop offset=".001" stop-color="#00d1ff"/><stop offset="1" stop-color="#0a00d1"/></linearGradient><path fill="url(#SVGID_4_)" d="M48.6 19.9H37.3c-.9 0-1.7-.8-1.7-1.7V7.3c0-.9.8-1.7 1.7-1.7h11.2c.9 0 1.7.8 1.7 1.7v11c0 .8-.7 1.6-1.6 1.6z"/><path d="M30.4 39.4H19.1c-.9 0-1.7-.8-1.7-1.7v-11c0-.9.8-1.7 1.7-1.7h11.2c.9 0 1.7.8 1.7 1.7v11c0 1-.7 1.7-1.6 1.7z" class="st2"/><linearGradient id="SVGID_5_" x1="17.398" x2="32.023" y1="14.695" y2="14.695" gradientTransform="matrix(1 0 0 -1 0 46)" gradientUnits="userSpaceOnUse"><stop offset=".001" stop-color="#00d1ff"/><stop offset="1" stop-color="#0a00d1"/></linearGradient><path fill="url(#SVGID_5_)" d="M30.4 38.4H19.1c-.9 0-1.7-.8-1.7-1.7V25.9c0-.9.8-1.7 1.7-1.7h11.2c.9 0 1.7.8 1.7 1.7v11c0 .8-.7 1.5-1.6 1.5z"/><path fill="#00eaff" d="M49.8 45H17.6c-3.6 0-6.4-2.8-6.4-6.4V6.4C11.2 2.8 14 0 17.6 0h32.2c3.6 0 6.4 2.8 6.4 6.4v32.2c0 3.6-2.8 6.4-6.4 6.4zM17.6 2.6c-2.1 0-3.8 1.7-3.8 3.7v32.2c0 2.1 1.7 3.8 3.8 3.8h32.2c2.1 0 3.8-1.7 3.8-3.8V6.4c0-2.1-1.7-3.7-3.8-3.7H17.6z"/><path d="m49.8 32.3-6.9-6.9c-.3-.3-.6-.4-1-.4l-4.9.3c-.6 0-1.2.5-1.2 1.2l-.3 4.9c0 .4.1.7.4 1l6.9 6.9c.5.5 1.3.5 1.8 0l5.2-5.2c.5-.6.5-1.3 0-1.8zM40 29.4c-.5.5-1.3.5-1.8 0s-.5-1.3 0-1.8 1.3-.5 1.8 0 .5 1.3 0 1.8z" class="st2"/><linearGradient id="SVGID_6_" x1="35.585" x2="50.165" y1="31.274" y2="31.274" gradientUnits="userSpaceOnUse"><stop offset=".001" stop-color="#00d1ff"/><stop offset="1" stop-color="#0a00d1"/></linearGradient><path fill="url(#SVGID_6_)" d="m49.8 31.3-6.9-6.9c-.3-.3-.6-.4-1-.4l-4.9.3c-.6 0-1.2.5-1.2 1.2l-.3 4.9c0 .4.1.7.4 1l6.9 6.9c.5.5 1.3.5 1.8 0l5.2-5.2c.5-.6.5-1.3 0-1.8zM40 28.4c-.5.5-1.3.5-1.8 0s-.5-1.3 0-1.8 1.3-.5 1.8 0 .5 1.3 0 1.8z"/></g></svg>