<svg xmlns="http://www.w3.org/2000/svg" xml:space="preserve" viewBox="0 0 59.4 44.6"><linearGradient id="a" x1=".56" x2="45.223" y1="22.419" y2="22.419" gradientUnits="userSpaceOnUse"><stop offset=".001" stop-color="#00d1ff"/><stop offset="1" stop-color="#0a00d1"/></linearGradient><path fill="url(#a)" d="M38.9.1h-32C3.4.1.6 2.9.6 6.4v32c0 3.5 2.8 6.3 6.3 6.3h32c.8 0 1.5-.1 2.1-.4 1.2-.4 2.2-.2 2.9-1.2-1.2 0-2.3-.2-3.4-.5-.5.3-1.1-.6-1.7-.6h-32c-2.1 0-3.7-1.7-3.7-3.7v-32c0-2 1.7-3.7 3.7-3.7h32c2 0 3.7 1.7 3.7 3.7v9.8c.5 0 .9-.1 1.4-.1.4 0 .8 0 1.2.1V6.4c.1-3.5-2.7-6.3-6.2-6.3z"/><linearGradient id="b" x1="15.242" x2="31.105" y1="31.723" y2="31.723" gradientUnits="userSpaceOnUse"><stop offset=".001" stop-color="#00d1ff"/><stop offset="1" stop-color="#0a00d1"/></linearGradient><path fill="url(#b)" d="M31.1 33.6h-14c-.9 0-1.9-.7-1.9-1.9 0-.9.7-1.9 1.9-1.9h13.4c0 1.4.2 2.6.6 3.8z"/><linearGradient id="c" x1="15.238" x2="37.755" y1="33.072" y2="33.072" gradientTransform="matrix(1 0 0 -1 0 46)" gradientUnits="userSpaceOnUse"><stop offset=".001" stop-color="#00d1ff"/><stop offset="1" stop-color="#0a00d1"/></linearGradient><path fill="url(#c)" d="M35.9 14.8H17.1c-.9 0-1.9-.7-1.9-1.9 0-.9.7-1.9 1.9-1.9h18.8c.9 0 1.9.7 1.9 1.9s-.8 1.9-1.9 1.9z"/><linearGradient id="d" x1="15.238" x2="34.446" y1="22.414" y2="22.414" gradientUnits="userSpaceOnUse"><stop offset=".001" stop-color="#00d1ff"/><stop offset="1" stop-color="#0a00d1"/></linearGradient><path fill="url(#d)" d="M34.5 20.6c-1.1 1.1-2.1 2.3-2.7 3.7H17.1c-.9 0-1.9-.7-1.9-1.9 0-.9.7-1.9 1.9-1.9h17.4z"/><linearGradient id="e" x1="8.021" x2="13.006" y1="33.072" y2="33.072" gradientTransform="matrix(1 0 0 -1 0 46)" gradientUnits="userSpaceOnUse"><stop offset=".001" stop-color="#00d1ff"/><stop offset="1" stop-color="#0a00d1"/></linearGradient><circle cx="10.4" cy="12.9" r="2.4" fill="url(#e)"/><linearGradient id="f" x1="8.021" x2="13.006" y1="23.581" y2="23.581" gradientTransform="matrix(1 0 0 -1 0 46)" gradientUnits="userSpaceOnUse"><stop offset=".001" stop-color="#00d1ff"/><stop offset="1" stop-color="#0a00d1"/></linearGradient><circle cx="10.4" cy="22.4" r="2.4" fill="url(#f)"/><linearGradient id="g" x1="8.021" x2="13.006" y1="14.091" y2="14.091" gradientTransform="matrix(1 0 0 -1 0 46)" gradientUnits="userSpaceOnUse"><stop offset=".001" stop-color="#00d1ff"/><stop offset="1" stop-color="#0a00d1"/></linearGradient><circle cx="10.4" cy="31.9" r="2.4" fill="url(#g)"/><g><linearGradient id="h" x1="29.015" x2="58.999" y1="29.689" y2="29.689" gradientUnits="userSpaceOnUse"><stop offset=".001" stop-color="#00d1ff"/><stop offset="1" stop-color="#0a00d1"/></linearGradient><path fill="url(#h)" d="M32.1 20.6c-.9 1.1-1.6 2.4-2.1 3.7-.7 1.7-1 3.5-1 5.4v.2h2.5v-.2c0-1.9.4-3.8 1.2-5.4.7-1.4 1.6-2.7 2.7-3.7 1.9-1.8 4.4-3 7.2-3.3v-2.5c-4.2.4-8 2.5-10.5 5.8zm13.1-5.8c-.4 0-.8-.1-1.2-.1-.5 0-.9 0-1.4.1-4.3.4-8 2.6-10.5 5.8-.9 1.1-1.6 2.4-2.1 3.7-.7 1.7-1 3.5-1 5.4v.2c0 1.3.2 2.5.5 3.7.9 3.5 3.2 6.6 6.1 8.6 1.6 1.1 3.4 1.9 5.4 2.2 1 .2 1.9.3 3 .3 8.3 0 15-6.7 15-15 0-7.9-6.1-14.3-13.8-14.9zM44 42.2c-1.2 0-2.3-.2-3.4-.5-4-1.1-7.2-4.2-8.5-8.1-.4-1.2-.6-2.4-.6-3.7v-.2c0-1.9.4-3.8 1.2-5.4.7-1.4 1.6-2.7 2.7-3.7 1.9-1.8 4.4-3 7.2-3.3.5 0 .9-.1 1.4-.1.4 0 .8 0 1.2.1 6.3.6 11.3 6 11.3 12.4 0 6.9-5.6 12.5-12.5 12.5zM32.1 20.6c-.9 1.1-1.6 2.4-2.1 3.7-.7 1.7-1 3.5-1 5.4v.2h2.5v-.2c0-1.9.4-3.8 1.2-5.4.7-1.4 1.6-2.7 2.7-3.7 1.9-1.8 4.4-3 7.2-3.3v-2.5c-4.2.4-8 2.5-10.5 5.8z"/></g><g><linearGradient id="i" x1="41.311" x2="51.323" y1="27.439" y2="34.92" gradientUnits="userSpaceOnUse"><stop offset=".001" stop-color="#00d1ff"/><stop offset="1" stop-color="#0a00d1"/></linearGradient><path fill="url(#i)" d="M49.7 33.2c0 1.3-.4 2.4-1.3 3.3-.9.8-2 1.3-3.4 1.5v2h-1.5v-2c-1.3-.1-2.4-.5-3.3-1.1-.9-.6-1.6-1.5-2-2.6l2.7-1.6c.5 1.2 1.3 1.9 2.6 2.1v-4c-.5-.2-1-.4-1.3-.5-.3-.2-.7-.4-1.2-.7-.5-.3-.8-.6-1.1-.9-.3-.3-.5-.7-.7-1.2-.2-.5-.3-1-.3-1.6 0-1.3.4-2.4 1.3-3.2.9-.8 2-1.3 3.3-1.4v-2H45v2c2.1.2 3.6 1.3 4.4 3.2l-2.7 1.6c-.4-.9-.9-1.5-1.7-1.7v3.8c1.4.6 2.4 1 2.9 1.4 1.2 1 1.8 2.1 1.8 3.6zM42.1 26c0 .3.1.6.3.9.2.3.6.5 1.1.8v-3.2c-.5.1-.8.3-1.1.6-.1.2-.3.5-.3.9zm3 8.9c1-.2 1.5-.8 1.5-1.6 0-.4-.1-.7-.4-1-.2-.3-.6-.5-1.1-.7v3.3z"/></g></svg>