<svg xmlns="http://www.w3.org/2000/svg" xmlns:xlink="http://www.w3.org/1999/xlink" viewBox="0 0 61.9 47.4"><defs><style>.cls-1{fill:url(#linear-gradient);}.cls-2{clip-path:url(#clip-path);}.cls-3{fill:#00eaff;}</style><linearGradient id="linear-gradient" x1="3.69" y1="24.49" x2="57.16" y2="24.49" gradientUnits="userSpaceOnUse"><stop offset="0" stop-color="#00d1ff"/><stop offset="1" stop-color="#0a00d1"/></linearGradient><clipPath id="clip-path"><path class="cls-1" d="M53.34,1.57H7.51A3.82,3.82,0,0,0,3.69,5.39V43.58A3.82,3.82,0,0,0,7.51,47.4H53.34a3.82,3.82,0,0,0,3.82-3.82V5.39A3.82,3.82,0,0,0,53.34,1.57ZM38.06,13v7.64H22.79V13Zm0,11.46v7.64H22.79V24.49ZM7.51,13H19v7.64H7.51Zm0,11.46H19v7.64H7.51Zm0,19.09V36H19v7.63Zm15.28,0V36H38.06v7.63Zm30.55,0H41.88V36H53.34Zm0-11.45H41.88V24.49H53.34Zm0-11.46H41.88V13H53.34Z"/></clipPath></defs><title>table Icon</title><g id="Layer_2" data-name="Layer 2"><g id="Layer_1-2" data-name="Layer 1"><path class="cls-1" d="M53.34,1.57H7.51A3.82,3.82,0,0,0,3.69,5.39V43.58A3.82,3.82,0,0,0,7.51,47.4H53.34a3.82,3.82,0,0,0,3.82-3.82V5.39A3.82,3.82,0,0,0,53.34,1.57ZM38.06,13v7.64H22.79V13Zm0,11.46v7.64H22.79V24.49ZM7.51,13H19v7.64H7.51Zm0,11.46H19v7.64H7.51Zm0,19.09V36H19v7.63Zm15.28,0V36H38.06v7.63Zm30.55,0H41.88V36H53.34Zm0-11.45H41.88V24.49H53.34Zm0-11.46H41.88V13H53.34Z"/><g class="cls-2"><rect class="cls-3" width="61.9" height="5.21"/></g></g></g></svg>