<?xml version="1.0" encoding="utf-8"?>
<!-- Generator: Adobe Illustrator 23.0.2, SVG Export Plug-In . SVG Version: 6.00 Build 0)  -->
<svg version="1.1" id="Layer_1" xmlns="http://www.w3.org/2000/svg" xmlns:xlink="http://www.w3.org/1999/xlink" x="0px" y="0px"
	 viewBox="0 0 92 45" style="enable-background:new 0 0 92 45;" xml:space="preserve">
<style type="text/css">
	.st0{fill:#00EAFF;}
	.st1{fill:url(#SVGID_1_);}
	.st2{fill:url(#SVGID_2_);}
	.st3{fill:url(#SVGID_3_);}
	.st4{fill:none;}
	.st5{fill:url(#SVGID_4_);}
	.st6{fill:url(#SVGID_5_);}
	.st7{fill:url(#SVGID_6_);}
	.st8{fill:url(#SVGID_7_);}
</style>
<title>Image</title>
<g>
	<g>
		<path class="st0" d="M4.6,26.9c-0.2,0-0.4-0.1-0.6-0.2l-3.3-2.6c0,0-0.1-0.1-0.1-0.1c-0.4-0.4-0.4-0.7-0.4-1c0-0.3,0.1-0.6,0.4-1
			c0,0,0.1-0.1,0.1-0.1L4,19.4c0.4-0.3,1.1-0.3,1.4,0.2C5.7,20,5.7,20.7,5.2,21l-2.6,2l2.6,2c0.4,0.3,0.5,1,0.2,1.4
			C5.2,26.7,4.9,26.9,4.6,26.9z"/>
	</g>
	<g>
		<linearGradient id="SVGID_1_" gradientUnits="userSpaceOnUse" x1="80.4392" y1="19.3892" x2="95.2373" y2="26.9268">
			<stop  offset="6.751216e-04" style="stop-color:#00EAFF"/>
			<stop  offset="1" style="stop-color:#0A00D1"/>
		</linearGradient>
		<path class="st1" d="M87.6,19.2c0.2,0,0.4,0.1,0.6,0.2l3.3,2.6c0,0,0.1,0.1,0.1,0.1c0.4,0.4,0.4,0.7,0.4,1c0,0.3-0.1,0.6-0.4,1
			c0,0-0.1,0.1-0.1,0.1l-3.3,2.6c-0.4,0.3-1.1,0.3-1.4-0.2c-0.3-0.4-0.3-1.1,0.2-1.4l2.6-2L87,21c-0.4-0.3-0.5-1-0.2-1.4
			C87,19.3,87.3,19.2,87.6,19.2z"/>
	</g>
</g>
<g>
	<g>
		<g>
			<linearGradient id="SVGID_2_" gradientUnits="userSpaceOnUse" x1="38.5861" y1="13.6432" x2="53.6535" y2="13.6432">
				<stop  offset="6.751216e-04" style="stop-color:#00D1FF"/>
				<stop  offset="1" style="stop-color:#0A00D1"/>
			</linearGradient>
			<path class="st2" d="M46.1,6.1c4.2,0,7.5,3.4,7.5,7.5s-3.4,7.5-7.5,7.5s-7.5-3.4-7.5-7.5l0,0C38.6,9.5,42,6.1,46.1,6.1z"/>
			<linearGradient id="SVGID_3_" gradientUnits="userSpaceOnUse" x1="33.2365" y1="31.6627" x2="59.0031" y2="31.6627">
				<stop  offset="6.751216e-04" style="stop-color:#00D1FF"/>
				<stop  offset="1" style="stop-color:#0A00D1"/>
			</linearGradient>
			<path class="st3" d="M46.1,23.6c-8.4,0-12.9,4.6-12.9,8.1v6.8c0,0.7,0.6,1.2,1.2,1.2h23.3c0.7,0,1.2-0.6,1.2-1.2v-6.8
				C59,28.2,54.5,23.6,46.1,23.6z"/>
		</g>
		<g>
			<path class="st0" d="M60.3,45H31.9c-2.1,0-3.8-1.7-3.8-3.8V3.8C28,1.7,29.8,0,31.9,0h28.5c2.1,0,3.8,1.7,3.8,3.8v37.3
				C64.2,43.3,62.5,45,60.3,45z M31.9,1.9c-1,0-1.9,0.9-1.9,1.9v37.3c0,1,0.9,1.9,1.9,1.9h28.5c1,0,1.9-0.9,1.9-1.9V3.8
				c0-1-0.9-1.9-1.9-1.9H31.9z"/>
		</g>
	</g>
	<g>
		<path class="st4" d="M13.8,8v29.3c0,0.8,0.7,1.5,1.5,1.5h10.9v-2.6h-8.9c-0.5,0-1-0.4-1-1v-5.4c0-2.7,3.4-6.2,9.8-6.3v-2
			c-3.1-0.2-5.6-2.7-5.6-5.9c0-3.2,2.5-5.7,5.6-5.9V6.5H15.3C14.5,6.5,13.8,7.2,13.8,8z"/>
		<linearGradient id="SVGID_4_" gradientUnits="userSpaceOnUse" x1="20.5514" y1="15.7102" x2="32.3895" y2="15.7102">
			<stop  offset="6.751216e-04" style="stop-color:#00D1FF"/>
			<stop  offset="1" style="stop-color:#0A00D1"/>
		</linearGradient>
		<path class="st5" d="M20.6,15.7c0,3.2,2.5,5.7,5.6,5.9V9.8C23,10,20.6,12.5,20.6,15.7z"/>
		<linearGradient id="SVGID_5_" gradientUnits="userSpaceOnUse" x1="16.3484" y1="29.8778" x2="36.5925" y2="29.8778">
			<stop  offset="6.751216e-04" style="stop-color:#00D1FF"/>
			<stop  offset="1" style="stop-color:#0A00D1"/>
		</linearGradient>
		<path class="st6" d="M16.3,29.9v5.4c0,0.5,0.4,1,1,1h8.9V23.6C19.8,23.7,16.3,27.2,16.3,29.9z"/>
		<path class="st0" d="M15.3,38.8c-0.8,0-1.5-0.7-1.5-1.5V8c0-0.8,0.7-1.5,1.5-1.5h10.9V5H15.3c-1.7,0-3,1.4-3,3v29.3
			c0,1.7,1.4,3,3,3h10.9v-1.5H15.3z"/>
	</g>
	<g>
		<path class="st4" d="M78.4,8v29.3c0,0.8-0.7,1.5-1.5,1.5H66v-2.6h8.9c0.5,0,1-0.4,1-1v-5.4c0-2.7-3.4-6.2-9.8-6.3v-2
			c3.1-0.2,5.6-2.7,5.6-5.9c0-3.2-2.5-5.7-5.6-5.9V6.5h10.9C77.8,6.5,78.4,7.2,78.4,8z"/>
		
			<linearGradient id="SVGID_6_" gradientUnits="userSpaceOnUse" x1="-12.0966" y1="15.7102" x2="-0.2585" y2="15.7102" gradientTransform="matrix(-1 0 0 1 59.569 0)">
			<stop  offset="6.751216e-04" style="stop-color:#00D1FF"/>
			<stop  offset="1" style="stop-color:#0A00D1"/>
		</linearGradient>
		<path class="st7" d="M71.7,15.7c0,3.2-2.5,5.7-5.6,5.9V9.8C69.2,10,71.7,12.5,71.7,15.7z"/>
		
			<linearGradient id="SVGID_7_" gradientUnits="userSpaceOnUse" x1="-16.2997" y1="29.8778" x2="3.9445" y2="29.8778" gradientTransform="matrix(-1 0 0 1 59.569 0)">
			<stop  offset="6.751216e-04" style="stop-color:#00D1FF"/>
			<stop  offset="1" style="stop-color:#0A00D1"/>
		</linearGradient>
		<path class="st8" d="M75.9,29.9v5.4c0,0.5-0.4,1-1,1H66V23.6C72.4,23.7,75.9,27.2,75.9,29.9z"/>
		<path class="st0" d="M76.9,38.8c0.8,0,1.5-0.7,1.5-1.5V8c0-0.8-0.7-1.5-1.5-1.5H66V5h10.9c1.7,0,3,1.4,3,3v29.3c0,1.7-1.4,3-3,3
			H66v-1.5H76.9z"/>
	</g>
</g>
</svg>
