<svg width="38" height="38" fill="none" xmlns="http://www.w3.org/2000/svg"><mask id="a" style="mask-type:alpha" maskUnits="userSpaceOnUse" x="0" y="0" width="38" height="38"><path d="M0 0h38v38H0V0Z" fill="#fff"/></mask><g mask="url(#a)"><path d="M0 0h38v38H0V0Z" fill="#fff" fill-opacity=".01"/><path d="M26.5 10c-4.2 0-6.6 4.2-8.85 8.25-1.8 3.45-3.6 6.75-6.15 6.75-.9 0-1.5.6-1.5 1.5s.6 1.5 1.5 1.5c4.2 0 6.6-4.2 8.85-8.25 1.8-3.45 3.6-6.75 6.15-6.75.9 0 1.5-.6 1.5-1.5s-.6-1.5-1.5-1.5Zm3-6h-21C5.95 4 4 5.95 4 8.5v21C4 32.05 5.95 34 8.5 34h21c2.55 0 4.5-1.95 4.5-4.5v-21C34 5.95 32.05 4 29.5 4ZM31 29.5c0 .9-.6 1.5-1.5 1.5h-21c-.9 0-1.5-.6-1.5-1.5v-21C7 7.6 7.6 7 8.5 7h21c.9 0 1.5.6 1.5 1.5v21Z" fill="url(#b)"/></g><defs><linearGradient id="b" x1="4" y1="18.968" x2="34.063" y2="18.968" gradientUnits="userSpaceOnUse"><stop stop-color="#0A00D1"/><stop offset="1" stop-color="#00D1FF"/></linearGradient></defs></svg>