<svg width="60" height="44" viewBox="0 0 60 44" fill="none" xmlns="http://www.w3.org/2000/svg">
<rect width="60" height="44" fill="white"/>
<path fill-rule="evenodd" clip-rule="evenodd" d="M19.0312 16.0769C19.0312 16.5438 18.6531 16.9231 18.1875 16.9231H4.6875V41.4615C4.6875 41.9284 5.06568 42.3077 5.53125 42.3077H51.0937C51.5593 42.3077 51.9375 41.9284 51.9375 41.4615V33C51.9375 32.5331 52.3157 32.1538 52.7813 32.1538C53.2468 32.1538 53.625 32.5331 53.625 33V41.4615C53.625 42.8626 52.4908 44 51.0937 44H5.53125C4.13419 44 3 42.8626 3 41.4615V9.30769C3 7.90666 4.13419 6.76923 5.53125 6.76923H18.1875C18.6531 6.76923 19.0312 7.14849 19.0312 7.61539V16.0769ZM20.7188 27.9231C20.7188 29.3241 21.8529 30.4615 23.25 30.4615H54.4687C55.8658 30.4615 57 29.3241 57 27.9231V2.53846C57 1.13742 55.8658 0 54.4687 0H23.25C21.8529 0 20.7188 1.13742 20.7188 2.53846V27.9231ZM55.3125 10.1538V27.9231C55.3125 28.39 54.9343 28.7692 54.4687 28.7692H23.25C22.7844 28.7692 22.4062 28.39 22.4062 27.9231V10.1538H55.3125ZM49.9009 5.07672L48.809 6.16995C48.4798 6.50161 48.4798 7.0365 48.809 7.3682C49.1397 7.69836 49.6731 7.69836 50.0038 7.3682L51.0939 6.27313L52.1841 7.3682C52.5148 7.69836 53.0482 7.69836 53.3789 7.3682C53.7081 7.03654 53.7081 6.50165 53.3789 6.16995L52.287 5.07672L53.3789 3.98349C53.7081 3.65183 53.7081 3.11694 53.3789 2.78524C53.0482 2.45508 52.5148 2.45508 52.1841 2.78524L51.0939 3.88031L50.0038 2.78524C49.6731 2.45508 49.1397 2.45508 48.809 2.78524C48.4798 3.1169 48.4798 3.65179 48.809 3.98349L49.9009 5.07672ZM46.0313 4.23057H42.6563C42.1908 4.23057 41.8126 4.60983 41.8126 5.07672C41.8126 5.54361 42.1908 5.92287 42.6563 5.92287H46.0313C46.4969 5.92287 46.8751 5.54361 46.8751 5.07672C46.8751 4.60983 46.4969 4.23057 46.0313 4.23057Z" fill="url(#paint0_linear_311_18)"/>
<path d="M32.0579 24.4974V21.1128C30.1949 21.1128 28.6829 19.5966 28.6829 17.7283C28.6829 15.86 30.1949 14.3436 32.0579 14.3436H36.2766C38.5548 14.3436 40.7384 12.0575 40.7384 12.0575C40.978 11.8135 41.3426 11.7375 41.6597 11.8679C41.9769 11.9982 42.1829 12.3079 42.1829 12.6513V22.8052C42.1829 23.1485 41.9769 23.4583 41.6597 23.5886C41.3426 23.7189 40.978 23.643 40.7384 23.399C40.7384 23.399 38.5548 21.1128 36.2766 21.1128V24.4974C36.2766 24.9643 35.8985 25.3436 35.4329 25.3436H32.9016C32.4361 25.3436 32.0579 24.9643 32.0579 24.4974Z" fill="url(#paint1_linear_311_18)"/>
<path d="M45.9799 20.38L48.1721 21.6492C48.5751 21.8827 48.7137 22.4006 48.4806 22.8051C48.2478 23.2097 47.7314 23.3483 47.3283 23.1149L45.1361 21.8456C44.7327 21.6122 44.5945 21.0943 44.8272 20.6897C45.06 20.2852 45.5764 20.1465 45.9799 20.38Z" fill="url(#paint2_linear_311_18)"/>
<path d="M48.0892 18.5743H45.558C45.0924 18.5743 44.7142 18.1951 44.7142 17.7282C44.7142 17.2613 45.0924 16.882 45.558 16.882H48.0892C48.5548 16.882 48.933 17.2613 48.933 17.7282C48.933 18.1951 48.5548 18.5743 48.0892 18.5743Z" fill="url(#paint3_linear_311_18)"/>
<path d="M48.1721 13.8072L45.9799 15.0764C45.5765 15.3099 45.06 15.1712 44.8273 14.7666C44.5945 14.3621 44.7327 13.8442 45.1361 13.6108L47.3283 12.3415C47.7314 12.1081 48.2478 12.2467 48.4806 12.6513C48.7137 13.0558 48.5751 13.5737 48.1721 13.8072Z" fill="url(#paint4_linear_311_18)"/>
<defs>
<linearGradient id="paint0_linear_311_18" x1="54.9009" y1="2.68293" x2="10.0288" y2="47.7899" gradientUnits="userSpaceOnUse">
<stop offset="0.001" stop-color="#00D1FF"/>
<stop offset="1" stop-color="#0A00D1"/>
</linearGradient>
<linearGradient id="paint1_linear_311_18" x1="51.1555" y1="11.2683" x2="33.4618" y2="24.6344" gradientUnits="userSpaceOnUse">
<stop stop-color="#00D1FF"/>
<stop offset="1" stop-color="#0A00D1"/>
</linearGradient>
<linearGradient id="paint2_linear_311_18" x1="51.1555" y1="11.2683" x2="33.4618" y2="24.6344" gradientUnits="userSpaceOnUse">
<stop stop-color="#00D1FF"/>
<stop offset="1" stop-color="#0A00D1"/>
</linearGradient>
<linearGradient id="paint3_linear_311_18" x1="51.1555" y1="11.2683" x2="33.4618" y2="24.6344" gradientUnits="userSpaceOnUse">
<stop stop-color="#00D1FF"/>
<stop offset="1" stop-color="#0A00D1"/>
</linearGradient>
<linearGradient id="paint4_linear_311_18" x1="51.1555" y1="11.2683" x2="33.4618" y2="24.6344" gradientUnits="userSpaceOnUse">
<stop stop-color="#00D1FF"/>
<stop offset="1" stop-color="#0A00D1"/>
</linearGradient>
</defs>
</svg>
