<?xml version="1.0" encoding="utf-8"?>
<!-- Generator: Adobe Illustrator 23.0.2, SVG Export Plug-In . SVG Version: 6.00 Build 0)  -->
<svg version="1.0" id="Layer_1" xmlns="http://www.w3.org/2000/svg" xmlns:xlink="http://www.w3.org/1999/xlink" x="0px" y="0px"
	 viewBox="0 0 59.4 44.6" style="enable-background:new 0 0 59.4 44.6;" xml:space="preserve">
<style type="text/css">
	.st0{fill:url(#SVGID_1_);}
	.st1{fill:url(#SVGID_2_);}
	.st2{fill:url(#SVGID_3_);}
	.st3{fill:#00EAFF;}
	.st4{fill:url(#SVGID_4_);}
	.st5{fill:url(#SVGID_5_);}
	.st6{fill:url(#SVGID_6_);}
	.st7{fill:url(#SVGID_7_);}
	.st8{fill:url(#SVGID_8_);}
</style>
<title>Image</title>
<g>
	<g>
		<linearGradient id="SVGID_1_" gradientUnits="userSpaceOnUse" x1="22.5954" y1="16.7132" x2="57.5564" y2="37.327">
			<stop  offset="6.751216e-04" style="stop-color:#00D1FF"/>
			<stop  offset="1" style="stop-color:#0A00D1"/>
		</linearGradient>
		<path class="st0" d="M46.4,7.1H13.2c-1.5,0-2.7,1.2-2.8,2.7V32c0,0.6,0.2,1.2,0.6,1.7c0.5,0.6,1.3,1.1,2.1,1.1h33.2
			c1.5,0,2.8-1.2,2.8-2.7V9.9C49.1,8.4,47.9,7.1,46.4,7.1z M46.3,20.9l-5.7-7.6l-0.1-0.1c-0.5-0.6-1.3-0.7-1.9-0.3
			c-0.1,0.1-0.2,0.2-0.3,0.3L30.9,23c0,0,0,0,0,0l-5.6-7.1c-0.5-0.6-1.4-0.7-2-0.1c-0.1,0-0.1,0.1-0.1,0.1L18.3,22l-0.9,1.2
			l-4.2,5.2V9.9h33.2V20.9z"/>
		<linearGradient id="SVGID_2_" gradientUnits="userSpaceOnUse" x1="24.9976" y1="35.8032" x2="52.9499" y2="24.4244">
			<stop  offset="6.751216e-04" style="stop-color:#00EAFF"/>
			<stop  offset="1" style="stop-color:#0A00D1"/>
		</linearGradient>
		<path class="st1" d="M49.1,23.9V32c0,1.5-1.3,2.7-2.8,2.7H13.1c-0.9,0-1.7-0.4-2.1-1.1C39.3,34.8,47.1,27.2,49.1,23.9z"/>
		<linearGradient id="SVGID_3_" gradientUnits="userSpaceOnUse" x1="19.6663" y1="26.2464" x2="34.8381" y2="12.229">
			<stop  offset="6.751216e-04" style="stop-color:#00D1FF"/>
			<stop  offset="1" style="stop-color:#0A00D1"/>
		</linearGradient>
		<path class="st2" d="M30.9,23c-0.3-0.3-5.7-4.4-6.8-4.8c-0.7-0.2-4.1,2.6-6.8,5l0.9-1.2l4.9-6.1c0-0.1,0.1-0.1,0.1-0.1
			c0.6-0.5,1.5-0.5,2,0.1L30.9,23z"/>
	</g>
	<g>
		<circle class="st3" cx="26.3" cy="39" r="0.9"/>
		<circle class="st3" cx="33.2" cy="39" r="0.9"/>
		<linearGradient id="SVGID_4_" gradientUnits="userSpaceOnUse" x1="27.9799" y1="37.4105" x2="30.9944" y2="40.159">
			<stop  offset="6.751216e-04" style="stop-color:#00D1FF"/>
			<stop  offset="1" style="stop-color:#0A00D1"/>
		</linearGradient>
		<circle class="st4" cx="29.8" cy="39" r="0.9"/>
	</g>
	<g>
		<g>
			<path class="st3" d="M3.3,24.1c-0.2,0-0.3,0-0.4-0.2l-2.4-1.8c0,0,0,0-0.1-0.1c-0.3-0.3-0.3-0.5-0.3-0.7c0-0.2,0.1-0.4,0.3-0.7
				c0,0,0,0,0.1-0.1l2.4-1.8c0.3-0.2,0.8-0.2,1,0.1c0.2,0.3,0.2,0.8-0.1,1l-1.9,1.5l1.9,1.5c0.3,0.2,0.4,0.7,0.1,1
				C3.8,24,3.6,24.1,3.3,24.1z"/>
		</g>
		<g>
			<g>
				<linearGradient id="SVGID_5_" gradientUnits="userSpaceOnUse" x1="51.9701" y1="18.1481" x2="60.1724" y2="24.4415">
					<stop  offset="6.751216e-04" style="stop-color:#00EAFF"/>
					<stop  offset="1" style="stop-color:#0A00D1"/>
				</linearGradient>
				<path class="st5" d="M59.3,21.3c0,0.2-0.1,0.5-0.3,0.7c0,0,0,0-0.1,0.1l-0.2,0.2l-0.1,0.1c0,0,0,0,0,0l-0.7,0.5c0,0,0,0-0.1,0
					l-1.3,1c-0.1,0.1-0.3,0.2-0.4,0.2c0,0-0.1,0-0.1,0c-0.2,0-0.3-0.1-0.5-0.3c-0.1-0.2-0.2-0.3-0.1-0.5c0-0.2,0.1-0.4,0.3-0.5
					l1.6-1.3c0.1-0.1,0.1-0.1,0.2-0.1c0,0,0.1-0.1,0.1-0.1l-1.9-1.5c-0.1-0.1-0.1-0.1-0.2-0.2c-0.2-0.2-0.2-0.6,0-0.8
					c0.2-0.3,0.7-0.4,1-0.1l2.4,1.8c0,0,0.1,0,0.1,0.1c0.2,0.2,0.2,0.3,0.3,0.5c0,0,0,0,0,0C59.3,21.2,59.3,21.3,59.3,21.3z"/>
			</g>
			<linearGradient id="SVGID_6_" gradientUnits="userSpaceOnUse" x1="54.3363" y1="17.7663" x2="58.7507" y2="21.3754">
				<stop  offset="6.751216e-04" style="stop-color:#00D1FF"/>
				<stop  offset="1" style="stop-color:#0A00D1"/>
			</linearGradient>
			<path class="st6" d="M59,20.6c0.2,0.2,0.2,0.3,0.3,0.5c-0.9-1.2-3-1.4-3.8-1.4c-0.2-0.2-0.2-0.6,0-0.8c0.2-0.3,0.7-0.4,1-0.1
				L59,20.6C59,20.6,59,20.6,59,20.6z"/>
			<linearGradient id="SVGID_7_" gradientUnits="userSpaceOnUse" x1="60.2803" y1="22.743" x2="42.8913" y2="26.4415">
				<stop  offset="6.751216e-04" style="stop-color:#00D1FF"/>
				<stop  offset="1" style="stop-color:#0A00D1"/>
			</linearGradient>
			<path class="st7" d="M57.8,22.9l-1.3,1c-0.1,0.1-0.3,0.2-0.4,0.2c0,0-0.1,0-0.1,0c-0.2,0-0.3-0.1-0.5-0.3
				c-0.1-0.2-0.2-0.3-0.1-0.5C56.4,23.6,57.3,23.3,57.8,22.9z"/>
			<linearGradient id="SVGID_8_" gradientUnits="userSpaceOnUse" x1="58.7647" y1="22.2391" x2="58.07" y2="22.6492">
				<stop  offset="6.751216e-04" style="stop-color:#00D1FF"/>
				<stop  offset="1" style="stop-color:#0A00D1"/>
			</linearGradient>
			<path class="st8" d="M58.7,22.3l-0.1,0.1C58.7,22.3,58.7,22.3,58.7,22.3L58.7,22.3z"/>
		</g>
	</g>
</g>
</svg>
