<svg xmlns="http://www.w3.org/2000/svg" xmlns:xlink="http://www.w3.org/1999/xlink" viewBox="0 0 68.35 42.75"><defs><style>.cls-1{fill:#00eaff;}.cls-2{fill:#0a00d1;}.cls-3{fill:url(#New_Gradient_Swatch);}.cls-4{fill:#fff;}</style><linearGradient id="New_Gradient_Swatch" x1="6.33" y1="-2494.56" x2="28.89" y2="-2494.56" gradientTransform="matrix(1, 0, 0, -1, 0, -2474.18)" gradientUnits="userSpaceOnUse"><stop offset="0" stop-color="#00d1ff"/><stop offset="1" stop-color="#0a00d1"/></linearGradient></defs><title>Media Card</title><g id="Layer_2" data-name="Layer 2"><g id="Layer_1-2" data-name="Layer 1"><path id="Path" class="cls-1" d="M65.3,42.75H3a2.82,2.82,0,0,1-3-2.67V2.67A2.9,2.9,0,0,1,3,0H65.3a2.9,2.9,0,0,1,3,2.67V40.08A2.83,2.83,0,0,1,65.3,42.75Z"/><path class="cls-2" d="M26.32,36.3H8.9c-1.43,0-2.6-1.48-2.6-3.3V11.56c0-1.82,1.17-3.3,2.6-3.3H26.19c1.43,0,2.6,1.48,2.6,3.3V33C28.92,34.82,27.75,36.3,26.32,36.3Z"/><path class="cls-3" d="M26.32,34.32H8.9c-1.43,0-2.6-1.48-2.6-3.3V9.74c0-1.81,1.17-3.29,2.6-3.29H26.19c1.43,0,2.6,1.48,2.6,3.29V31.19A2.77,2.77,0,0,1,26.32,34.32Z"/><path class="cls-4" d="M60.92,13.79H34.47a1.71,1.71,0,0,1,0-3.41H60.92a1.71,1.71,0,1,1,0,3.41ZM58.78,21.7H34.47a1.71,1.71,0,0,1,0-3.41H58.78a1.71,1.71,0,1,1,0,3.41ZM50.2,30.39H34.47a1.71,1.71,0,0,1,0-3.41H50.2a1.71,1.71,0,0,1,0,3.41Z"/></g></g></svg>