<?xml version="1.0" encoding="utf-8"?>
<!-- Generator: Adobe Illustrator 23.0.2, SVG Export Plug-In . SVG Version: 6.00 Build 0)  -->
<svg version="1.1" id="Layer_1" xmlns="http://www.w3.org/2000/svg" xmlns:xlink="http://www.w3.org/1999/xlink" x="0px" y="0px"
	 viewBox="0 0 67.1 45" style="enable-background:new 0 0 67.1 45;" xml:space="preserve">
<style type="text/css">
	.st0{fill:#0A00D1;}
	.st1{fill:url(#SVGID_1_);}
	.st2{fill:url(#SVGID_2_);}
	.st3{fill:url(#SVGID_3_);}
	.st4{fill:url(#SVGID_4_);}
	.st5{fill:#00EAFF;}
	.st6{fill:url(#SVGID_5_);}
</style>
<title>Image</title>
<g>
	<g id="Layer_1-2">
		<path class="st0" d="M30.3,20.8H19c-0.9,0-1.7-0.8-1.7-1.7v-11c0-0.9,0.8-1.6,1.7-1.6h11.2c0.9,0,1.7,0.8,1.7,1.7v11
			c0,0.9-0.6,1.6-1.5,1.6C30.3,20.8,30.3,20.8,30.3,20.8z"/>
		
			<linearGradient id="SVGID_1_" gradientUnits="userSpaceOnUse" x1="17.2924" y1="3054.6807" x2="31.9224" y2="3054.6807" gradientTransform="matrix(1 0 0 1 0 -3041.97)">
			<stop  offset="0" style="stop-color:#00D1FF"/>
			<stop  offset="1" style="stop-color:#0A00D1"/>
		</linearGradient>
		<path class="st1" d="M30.3,19.8H19c-0.9,0-1.7-0.8-1.7-1.7V7.3c0-0.9,0.8-1.7,1.7-1.7h11.2c0.9,0,1.7,0.8,1.7,1.7l0,0v11
			C31.9,19.1,31.2,19.8,30.3,19.8C30.3,19.8,30.3,19.8,30.3,19.8z"/>
		<path class="st0" d="M48.5,20.8H37.2c-0.9,0-1.7-0.8-1.7-1.7v-11c0-0.9,0.8-1.7,1.7-1.7l0,0h11.2c0.9,0,1.7,0.7,1.7,1.7
			c0,0,0,0.1,0,0.1v11c0,0.9-0.6,1.6-1.5,1.6C48.6,20.8,48.5,20.8,48.5,20.8z"/>
		
			<linearGradient id="SVGID_2_" gradientUnits="userSpaceOnUse" x1="35.5124" y1="3054.6814" x2="50.1225" y2="3054.6814" gradientTransform="matrix(1 0 0 1 0 -3041.97)">
			<stop  offset="0" style="stop-color:#00D1FF"/>
			<stop  offset="1" style="stop-color:#0A00D1"/>
		</linearGradient>
		<path class="st2" d="M48.5,19.8H37.2c-0.9,0-1.7-0.8-1.7-1.7V7.3c0-0.9,0.8-1.7,1.7-1.7h11.2c0.9,0,1.7,0.7,1.7,1.6c0,0,0,0,0,0
			v11c0,0.9-0.7,1.5-1.5,1.6C48.5,19.8,48.5,19.8,48.5,19.8z"/>
		<path class="st0" d="M30.3,39.4H19c-0.9,0-1.7-0.8-1.7-1.7l0,0v-11c0-0.9,0.8-1.7,1.7-1.7h11.2c0.9,0,1.7,0.8,1.7,1.7v11
			c0,0.9-0.6,1.6-1.5,1.6C30.3,39.4,30.3,39.4,30.3,39.4z"/>
		
			<linearGradient id="SVGID_3_" gradientUnits="userSpaceOnUse" x1="17.2924" y1="3073.2405" x2="31.9224" y2="3073.2405" gradientTransform="matrix(1 0 0 1 0 -3041.97)">
			<stop  offset="0" style="stop-color:#00D1FF"/>
			<stop  offset="1" style="stop-color:#0A00D1"/>
		</linearGradient>
		<path class="st3" d="M30.3,38.4H19c-0.9,0-1.7-0.8-1.7-1.7l0,0V25.8c0-0.9,0.8-1.7,1.7-1.7l0,0h11.2c0.9,0,1.7,0.8,1.7,1.7l0,0v11
			C31.9,37.7,31.2,38.4,30.3,38.4C30.3,38.4,30.3,38.4,30.3,38.4z"/>
		<path class="st0" d="M48.5,39.4H37.2c-0.9,0-1.7-0.8-1.7-1.7v-11c0-0.9,0.8-1.7,1.7-1.7c0,0,0,0,0,0h11.2c0.9,0,1.7,0.7,1.7,1.7
			c0,0,0,0,0,0v11c0,0.9-0.6,1.6-1.5,1.6C48.6,39.4,48.5,39.4,48.5,39.4z"/>
		
			<linearGradient id="SVGID_4_" gradientUnits="userSpaceOnUse" x1="35.5124" y1="3073.2415" x2="50.1225" y2="3073.2415" gradientTransform="matrix(1 0 0 1 0 -3041.97)">
			<stop  offset="0" style="stop-color:#00D1FF"/>
			<stop  offset="1" style="stop-color:#0A00D1"/>
		</linearGradient>
		<path class="st4" d="M48.5,38.4H37.2c-0.9,0-1.7-0.8-1.7-1.7V25.8c0-0.9,0.8-1.7,1.7-1.7h11.2c0.9,0,1.7,0.7,1.7,1.6c0,0,0,0,0,0
			v11c0,0.9-0.7,1.5-1.5,1.6C48.5,38.4,48.5,38.4,48.5,38.4z"/>
		<path class="st5" d="M49.7,45H17.5c-3.5,0-6.3-2.8-6.4-6.3c0,0,0-0.1,0-0.1V6.3c0-3.5,2.8-6.3,6.3-6.4c0,0,0.1,0,0.1,0h32.2
			c3.5,0,6.3,2.8,6.4,6.3c0,0,0,0.1,0,0.1v32.2c0,3.5-2.8,6.3-6.3,6.4C49.8,45,49.8,45,49.7,45z M17.5,2.6c-2.1,0-3.7,1.7-3.7,3.8
			v32.2c0,2.1,1.7,3.7,3.7,3.8h32.2c2.1,0,3.7-1.7,3.8-3.8V6.3c0-2.1-1.7-3.7-3.8-3.8H17.5z"/>
	</g>
</g>
<g>
	<path class="st5" d="M4.5,26.9c-0.2,0-0.4-0.1-0.6-0.2l-3.3-2.6c0,0-0.1-0.1-0.1-0.1c-0.4-0.4-0.4-0.7-0.4-1c0-0.3,0.1-0.6,0.4-1
		c0,0,0.1-0.1,0.1-0.1l3.3-2.6c0.4-0.3,1.1-0.3,1.4,0.2C5.6,20,5.5,20.7,5.1,21l-2.6,2l2.6,2c0.4,0.3,0.5,1,0.2,1.4
		C5.1,26.7,4.8,26.9,4.5,26.9z"/>
</g>
<g>
	<linearGradient id="SVGID_5_" gradientUnits="userSpaceOnUse" x1="55.482" y1="19.3892" x2="70.2801" y2="26.9268">
		<stop  offset="6.751216e-04" style="stop-color:#00EAFF"/>
		<stop  offset="1" style="stop-color:#0A00D1"/>
	</linearGradient>
	<path class="st6" d="M62.6,19.2c0.2,0,0.4,0.1,0.6,0.2l3.3,2.6c0,0,0.1,0.1,0.1,0.1c0.4,0.4,0.4,0.7,0.4,1c0,0.3-0.1,0.6-0.4,1
		c0,0-0.1,0.1-0.1,0.1l-3.3,2.6c-0.4,0.3-1.1,0.3-1.4-0.2c-0.3-0.4-0.3-1.1,0.2-1.4l2.6-2L62,21c-0.4-0.3-0.5-1-0.2-1.4
		C62.1,19.3,62.3,19.2,62.6,19.2z"/>
</g>
</svg>
