<svg xmlns="http://www.w3.org/2000/svg" width="83" height="61"><g fill="none" fill-rule="evenodd"><rect width="16.6" height="3.05" x="7.545" y="4.575" fill="#D6D9DD" rx="1.525"/><path fill="#D0D1D3" d="M83 0v61H31.69V12.717H0V0h83z"/><path fill="#F2F3F7" d="M31.69 12.2H0v12.2h31.69zm0 12.2H0v12.2h31.69z"/><rect width="22.636" height="3.05" x="4.527" y="4.575" fill="#F2F3F7" rx="1.525"/><rect width="22.636" height="3.05" x="4.527" y="16.775" fill="#D6D9DD" rx="1.525"/><rect width="22.636" height="3.05" x="4.527" y="28.975" fill="#D6D9DD" rx="1.525"/><rect width="25.655" height="3.05" x="39.236" y="7.625" fill="#F2F3F7" rx="1.525"/><rect width="34.709" height="3.05" x="39.236" y="16.775" fill="#F2F3F7" rx="1.525"/><rect width="34.709" height="3.05" x="39.236" y="25.925" fill="#F2F3F7" rx="1.525"/><rect width="34.709" height="3.05" x="39.236" y="35.075" fill="#F2F3F7" rx="1.525"/><rect width="34.709" height="3.05" x="39.236" y="44.225" fill="#F2F3F7" rx="1.525"/></g></svg>