<?xml version="1.0" encoding="utf-8"?>
<!-- Generator: Adobe Illustrator 23.0.2, SVG Export Plug-In . SVG Version: 6.00 Build 0)  -->
<svg version="1.1" id="Layer_1" xmlns="http://www.w3.org/2000/svg" xmlns:xlink="http://www.w3.org/1999/xlink" x="0px" y="0px"
	 viewBox="0 0 59.4 44.6" style="enable-background:new 0 0 59.4 44.6;" xml:space="preserve">
<style type="text/css">
	.st0{fill:url(#SVGID_1_);}
	.st1{fill:url(#SVGID_2_);}
	.st2{fill:url(#SVGID_3_);}
</style>
<title>Image</title>
<linearGradient id="SVGID_1_" gradientUnits="userSpaceOnUse" x1="22.5738" y1="15.7717" x2="64.3309" y2="40.3926" gradientTransform="matrix(0.9251 0.3798 -0.3798 0.9251 11.7298 -8.1339)">
	<stop  offset="6.751216e-04" style="stop-color:#00D1FF"/>
	<stop  offset="1" style="stop-color:#0A00D1"/>
</linearGradient>
<path class="st0" d="M57.4,15.4l-5.3-2.2l-2.6-1.6v3.6l2.6,1.7l4,1.6l-4,9.7L51,30.8l-1.6-10.1l-0.9,6.4l-5.3-6.5L33,26.1
	c0,0,0,0,0,0L32,23l-4.3,5.8c0,0,0,0,0,0l-7.6-9.5c-0.1-0.1-0.2-0.2-0.3-0.3l-0.5,0.3l-1.6,0.9l-2.1,1.2l-4.9,6.2L9.4,29L7.8,31
	l32.8,13.5h7.8c0.2,0,0.4,0,0.6,0v0l3.1-7.5l7-17.2C59.8,18.1,59.1,16.2,57.4,15.4z M17.5,7.4l1.7-4l9.8,4l9,3h8.8l-9-3L20.4,0.3
	c-1.7-0.7-3.6,0.1-4.3,1.8l-2.2,5.3l-1.5,3.7H16L17.5,7.4z"/>
<linearGradient id="SVGID_2_" gradientUnits="userSpaceOnUse" x1="16.4865" y1="20.2732" x2="63.4842" y2="47.9841">
	<stop  offset="6.751216e-04" style="stop-color:#00D1FF"/>
	<stop  offset="1" style="stop-color:#0A00D1"/>
</linearGradient>
<path class="st1" d="M48.5,7.4H3.8c-2,0-3.7,1.6-3.7,3.6v29.8c0,0.9,0.3,1.7,0.8,2.3c0.7,0.9,1.7,1.4,2.9,1.4h44.6
	c0.2,0,0.4,0,0.6,0c1.7-0.3,3.1-1.8,3.1-3.6V11.1C52.1,9.1,50.5,7.4,48.5,7.4z M48.4,25.9l-4.7-6.2l-3-4l-0.1-0.2
	c-0.6-0.8-1.8-1-2.6-0.4c-0.1,0.1-0.3,0.2-0.4,0.4L32,23l-4.3,5.8c0,0,0,0,0,0l-7.6-9.5c-0.1-0.1-0.2-0.2-0.3-0.3
	c-0.7-0.5-1.7-0.5-2.4,0.1c-0.1,0.1-0.1,0.1-0.2,0.2l-1.6,2l-4.9,6.2L9.4,29L7.8,31l-4,4.9V11.1h44.6V25.9z"/>
<linearGradient id="SVGID_3_" gradientUnits="userSpaceOnUse" x1="12.5161" y1="33.09" x2="32.912" y2="14.246">
	<stop  offset="6.751216e-04" style="stop-color:#00D1FF"/>
	<stop  offset="1" style="stop-color:#0A00D1"/>
</linearGradient>
<path class="st2" d="M27.7,28.7c-0.5-0.3-7.7-5.9-9.1-6.4C17.6,22,13,25.8,9.4,29l1.2-1.6l6.5-8.2c0.1-0.1,0.1-0.1,0.2-0.2
	c0.8-0.7,2-0.6,2.7,0.2L27.7,28.7z"/>
</svg>
